<?xml version="1.0" encoding="UTF-8"?>
<svg version="1.1" xmlns="http://www.w3.org/2000/svg" width="800" height="800">
<path d="M0 0 C2.18025737 -0.00322542 4.36051453 -0.00659038 6.54077148 -0.01008606 C11.0891978 -0.01603376 15.63760524 -0.01793055 20.18603516 -0.01733398 C25.93948405 -0.01723275 31.69280848 -0.03086491 37.44622803 -0.04810619 C41.94570441 -0.05936984 46.44515209 -0.06124883 50.94464111 -0.06072426 C53.06195503 -0.06188367 55.17927022 -0.06618648 57.29656982 -0.07405663 C68.7160122 -0.11252655 80.04516243 0.17061255 91.43359375 1.05737305 C92.44140396 1.13495 93.44921417 1.21252695 94.48756409 1.29245472 C100.29624133 1.78864999 105.95567695 2.59731145 111.67315674 3.73937702 C115.583209 4.42286935 119.47724218 4.50604118 123.4375 4.60546875 C140.82934424 5.27063109 157.96376483 8.44198836 175.125 11.16796875 C175.37032471 12.12533936 175.61564941 13.08270996 175.8684082 14.0690918 C189.06141572 65.42068919 204.32511885 114.18971427 229.89013672 160.90136719 C231.25746696 163.41111293 232.5998129 165.93343929 233.94140625 168.45703125 C253.55564394 205.15984651 277.52943623 239.35096558 304.6875 270.85546875 C305.15679932 271.40041992 305.62609863 271.94537109 306.10961914 272.50683594 C315.91520884 283.76674889 326.26452982 294.47097541 336.83544922 305.00878906 C338.89017508 307.05810386 340.93943103 309.11278138 342.98828125 311.16796875 C344.31999165 312.499019 345.65201188 313.82975936 346.984375 315.16015625 C347.88310333 316.06192093 347.88310333 316.06192093 348.79998779 316.98190308 C352.51608059 320.6778452 356.35439845 324.17809429 360.33306885 327.59011841 C362.00013207 329.05801871 363.57377793 330.57909711 365.125 332.16796875 C364.795 332.49796875 364.465 332.82796875 364.125 333.16796875 C364.13097354 334.98093777 364.18076472 336.79381237 364.25 338.60546875 C364.29780843 342.69308945 364.08419261 345.85633944 362.625 349.66796875 C359.33190855 359.32770368 359.42491269 373.49291295 363.015625 383.0625 C365.77588915 388.30117034 368.92239877 392.95588433 374.16845703 395.84277344 C377.125 398.16796875 377.125 398.16796875 378.11547852 401.47412109 C378.22303467 402.7627002 378.33059082 404.0512793 378.44140625 405.37890625 C378.50662979 406.08212006 378.57185333 406.78533386 378.63905334 407.50985718 C378.83411431 409.72809679 378.98531447 411.94560441 379.125 414.16796875 C379.19590851 415.20346863 379.19590851 415.20346863 379.26824951 416.2598877 C379.54564238 420.38667601 379.76361299 424.51480786 379.95953369 428.6461792 C380.45756499 439.02985133 381.08985543 449.26899534 382.75 459.54296875 C384.27692735 469.09312215 384.27492082 478.44721233 384.13500977 488.10302734 C384.0574027 494.7276398 384.24792563 501.10916285 385.1875 507.66796875 C385.97248594 513.19981085 386.12791811 518.21162706 385.46484375 523.76953125 C385.20179234 526.40004533 385.05797687 528.92976674 385.00390625 531.56640625 C384.21681598 566.44370504 377.64900056 602.59815664 365.125 635.16796875 C360.28756473 635.95056933 355.65224368 636.29639234 350.75390625 636.30078125 C350.05151825 636.30210052 349.34913025 636.3034198 348.62545776 636.30477905 C346.31276106 636.30670191 344.00018466 636.3003107 341.6875 636.29296875 C340.88410187 636.29208252 340.08070374 636.29119629 339.25296021 636.2902832 C325.50780468 636.27272894 311.77627759 635.98411892 298.03713989 635.59677124 C283.06133284 635.17484821 268.1075016 635.04513038 253.125 635.16796875 C253.125 635.82796875 253.125 636.48796875 253.125 637.16796875 C253.82053482 637.16535034 254.51606964 637.16273193 255.23268127 637.16003418 C275.10131717 637.09633166 294.95693818 637.30743823 314.82244873 637.63153076 C320.8074447 637.72888622 326.79249198 637.82293307 332.77755928 637.91578674 C334.82339934 637.94797661 336.86921091 637.98163659 338.9150238 638.01550293 C347.31968214 638.14833695 355.71937486 638.1935463 364.125 638.16796875 C362.63604556 644.25914601 361.11072512 650.2107934 359.125 656.16796875 C325.465 655.67296875 325.465 655.67296875 291.125 655.16796875 C291.125 656.15796875 291.125 657.14796875 291.125 658.16796875 C291.76012009 658.16574814 292.39524017 658.16352753 293.04960632 658.16123962 C299.71804232 658.13894911 306.38646756 658.123964 313.05493164 658.11303711 C315.53670685 658.10803841 318.01847917 658.10123724 320.50024414 658.0925293 C324.08740967 658.08026672 327.67453593 658.07469565 331.26171875 658.0703125 C332.35393234 658.06515121 333.44614594 658.05998993 334.57145691 658.05467224 C342.13092177 658.05413365 349.59672818 658.49017403 357.125 659.16796875 C356.4709924 664.40002958 354.72941228 666.95914419 352.125 672.16796875 C330.345 671.83796875 308.565 671.50796875 286.125 671.16796875 C286.125 671.82796875 286.125 672.48796875 286.125 673.16796875 C287.3531543 673.1930249 288.58130859 673.21808105 289.84667969 673.24389648 C294.50624953 673.33974698 299.16572987 673.43949547 303.82519531 673.5402832 C305.82256951 673.58297444 307.81996511 673.62467855 309.81738281 673.6652832 C323.26900777 673.93959882 336.69134227 674.4166353 350.125 675.16796875 C348.90784051 679.13534023 347.49259164 682.54890847 345.33984375 686.09375 C344.80939453 686.97224609 344.27894531 687.85074219 343.73242188 688.75585938 C343.18134766 689.65498047 342.63027344 690.55410156 342.0625 691.48046875 C341.23008789 692.8581543 341.23008789 692.8581543 340.38085938 694.26367188 C336.29370301 700.99926574 336.29370301 700.99926574 335.125 702.16796875 C333.43561271 702.26200448 331.74226034 702.28540094 330.05026245 702.28149414 C328.94936279 702.28142365 327.84846313 702.28135315 326.71420288 702.28128052 C325.49480011 702.2761142 324.27539734 702.27094788 323.01904297 702.265625 C321.05838085 702.26338267 319.09771873 702.26114068 317.13705659 702.25891113 C315.01807797 702.25552999 312.89911867 702.24967 310.78014755 702.24313354 C306.33570332 702.2295811 301.89126905 702.2237072 297.44680786 702.21899414 C287.16920566 702.20693344 276.89162824 702.18517866 266.61404419 702.1627655 C257.2725503 702.1424138 247.93106665 702.12433274 238.58955491 702.11455059 C234.91259193 702.11045974 231.23565979 702.10432585 227.55871201 702.09280396 C212.45278762 702.04606791 197.361574 702.13176715 182.26220703 702.60546875 C181.00142271 702.64393417 179.74063839 702.6823996 178.44164848 702.72203064 C168.93441958 703.05211007 159.54302597 703.83730116 150.125 705.16796875 C151.07560303 705.13767578 152.02620605 705.10738281 153.00561523 705.07617188 C213.02382792 703.22374927 273.10037656 704.0367241 333.125 705.16796875 C332.02726058 706.904417 330.92800354 708.63990589 329.828125 710.375 C329.21614258 711.34155518 328.60416016 712.30811035 327.97363281 713.30395508 C322.3422301 722.02846449 322.3422301 722.02846449 318.125 724.16796875 C315.2070879 724.57597005 312.34986507 724.50132115 309.41015625 724.40625 C308.56806107 724.39223145 307.72596588 724.37821289 306.85835266 724.36376953 C304.27980415 724.316161 301.70282737 724.24476322 299.125 724.16796875 C297.67986194 724.13193429 296.2347127 724.09634385 294.78955078 724.0612793 C291.96871492 723.98781205 289.14843286 723.90347849 286.328125 723.81201172 C268.09433341 723.22215979 249.86773344 723.05661734 231.625 723.04296875 C230.46487396 723.04047119 229.30474792 723.03797363 228.10946655 723.03540039 C224.75003157 723.02944453 221.39068626 723.03102311 218.03125 723.03515625 C217.05122513 723.0331723 216.07120026 723.03118835 215.06147766 723.02914429 C207.05078331 723.05523349 199.1105898 723.57077767 191.125 724.16796875 C191.86524918 724.17827621 192.60549835 724.18858368 193.36817932 724.19920349 C256.44558096 725.0811375 256.44558096 725.0811375 279.75 725.66796875 C280.87125778 725.69478226 280.87125778 725.69478226 282.01516724 725.72213745 C292.07039695 725.96637867 302.09176043 726.47775424 312.125 727.16796875 C309.7238882 729.67793625 307.46315979 731.76690671 304.47265625 733.53515625 C303.44277588 734.14750122 303.44277588 734.14750122 302.39208984 734.7722168 C299.35421113 736.52328642 296.30580461 738.25412585 293.24365234 739.96240234 C291.44180433 740.98769913 289.67884837 742.080863 287.92578125 743.1875 C281.24130879 746.99827402 275.94269655 747.36964606 268.50390625 746.81640625 C258.10943704 746.20897443 247.75565577 746.05965085 237.34765625 746.0703125 C236.57148453 746.07071974 235.79531281 746.07112698 234.99562073 746.07154655 C230.20799745 746.07495193 225.42041694 746.0859155 220.6328125 746.0993042 C216.50195847 746.10971794 212.37109787 746.11413961 208.24023438 746.11914062 C200.20180549 746.12971774 192.16340764 746.14667847 184.125 746.16796875 C184.125 746.82796875 184.125 747.48796875 184.125 748.16796875 C184.73711838 748.16352753 185.34923676 748.1590863 185.97990417 748.1545105 C243.41996898 747.75707028 243.41996898 747.75707028 267.125 750.16796875 C246.55582258 763.8807537 213.1727894 766.5550958 189.125 770.16796875 C188.19123535 770.31218262 187.2574707 770.45639648 186.29541016 770.60498047 C173.12730309 772.59688913 160.08645716 773.55866341 146.76928711 773.78979492 C138.8281328 773.9483843 130.98581455 774.48883657 123.07421875 775.171875 C111.32224724 776.16015289 99.66568053 776.56203191 87.875 776.54296875 C86.80969055 776.54375427 85.7443811 776.54453979 84.64678955 776.54534912 C57.91493814 776.52283506 31.20586487 775.36491315 4.5 774.29296875 C3.41005234 774.24933952 2.32010468 774.2057103 1.1971283 774.16075897 C-71.40665409 771.24467013 -71.40665409 771.24467013 -104.0625 768.48046875 C-105.01683929 768.399711 -105.97117859 768.31895325 -106.95443726 768.23574829 C-135.57436666 765.74181227 -163.68802811 759.53490865 -190.875 750.16796875 C-190.875 749.83796875 -190.875 749.50796875 -190.875 749.16796875 C-190.11744919 749.15766129 -189.35989838 749.14735382 -188.57939148 749.13673401 C-181.44291831 749.03878812 -174.30653228 748.93627781 -167.17019939 748.82862949 C-163.50127332 748.77344674 -159.83233921 748.72003421 -156.16333008 748.6706543 C-152.62306108 748.62294213 -149.08288823 748.5705969 -145.54273415 748.515028 C-143.53363701 748.4847058 -141.52446919 748.4591919 -139.51530457 748.43373108 C-138.29426529 748.41378586 -137.07322601 748.39384064 -135.81518555 748.37329102 C-134.73818893 748.35774673 -133.66119232 748.34220245 -132.55155945 748.32618713 C-129.7728121 748.27818128 -129.7728121 748.27818128 -126.875 747.16796875 C-130.56176977 746.9824709 -134.24930127 746.82235247 -137.9375 746.66796875 C-139.1445459 746.61519775 -140.3515918 746.56242676 -141.59521484 746.50805664 C-149.93442467 746.19766801 -158.22345208 746.19678686 -166.56640625 746.3828125 C-169.67786119 746.43687511 -172.78935047 746.48851645 -175.90084839 746.54003906 C-177.9420124 746.58313238 -179.98292794 746.64087063 -182.02322388 746.71435547 C-196.68099867 747.23673513 -206.99623889 745.17307045 -219.875 738.16796875 C-221.83335387 737.1992279 -223.79278246 736.23265232 -225.75390625 735.26953125 C-227.31822719 734.4499438 -228.87961815 733.62473056 -230.4375 732.79296875 C-231.66243164 732.15681641 -231.66243164 732.15681641 -232.91210938 731.5078125 C-238.74801587 728.421937 -238.74801587 728.421937 -239.875 726.16796875 C-185.425 725.17796875 -185.425 725.17796875 -129.875 724.16796875 C-154.83394693 723.31166462 -154.83394693 723.31166462 -179.74326324 723.33732605 C-184.37273688 723.42578811 -189.00280416 723.46828935 -193.6328125 723.51953125 C-199.42420014 723.58563795 -205.21446826 723.6654874 -211.00488281 723.79199219 C-215.78693222 723.89524568 -220.56773952 723.9537805 -225.35079193 723.98292542 C-227.14499059 724.00186735 -228.93910389 724.03677608 -230.73264313 724.088974 C-246.26923899 724.52879433 -246.26923899 724.52879433 -253.22558594 718.89648438 C-254.80416522 717.34913186 -256.35523217 715.77312235 -257.875 714.16796875 C-259.59130979 712.6532747 -261.31880818 711.15105884 -263.0625 709.66796875 C-264.3558814 708.52635015 -265.63540513 707.36777416 -266.875 706.16796875 C-266.875 705.83796875 -266.875 705.50796875 -266.875 705.16796875 C-221.14178288 704.32142908 -175.4614153 703.69199826 -129.72607422 704.80981445 C-116.43873982 705.13295057 -103.16688907 705.29659993 -89.875 705.16796875 C-104.10627535 703.90594653 -118.3310241 702.98173243 -132.61328125 702.5859375 C-133.3717485 702.56442879 -134.13021576 702.54292007 -134.91166687 702.52075958 C-150.83749538 702.08965073 -166.75748132 702.15590718 -182.6875 702.24609375 C-185.24388055 702.25887893 -187.80026179 702.27152783 -190.35664368 702.28404236 C-200.89447831 702.33788853 -211.43219437 702.39296437 -221.96972656 702.49023438 C-228.50919654 702.55047386 -235.04848595 702.58452817 -241.58822632 702.60341644 C-244.05705714 702.61513478 -246.52586275 702.63590968 -248.99453735 702.66605377 C-252.41205543 702.7068954 -255.82836334 702.71693506 -259.24609375 702.71972656 C-260.25467438 702.73927399 -261.263255 702.75882141 -262.30239868 702.77896118 C-269.14722877 702.73898585 -269.14722877 702.73898585 -272.88525391 699.80609131 C-273.54187012 698.93551086 -274.19848633 698.06493042 -274.875 697.16796875 C-275.68839844 696.25660156 -276.50179687 695.34523438 -277.33984375 694.40625 C-282.48846802 688.31411797 -287.04964304 682.19667341 -290.875 675.16796875 C-287.42571641 674.38723647 -284.25125112 674.04549723 -280.7175293 674.05444336 C-279.71686935 674.05451889 -278.71620941 674.05459442 -277.68522644 674.05467224 C-276.6173439 674.05983353 -275.54946136 674.06499481 -274.44921875 674.0703125 C-273.34649124 674.07172745 -272.24376373 674.0731424 -271.10762024 674.07460022 C-267.59255233 674.08018871 -264.07754859 674.09273916 -260.5625 674.10546875 C-258.17643321 674.11048523 -255.79036543 674.11504788 -253.40429688 674.11914062 C-247.5611761 674.13015438 -241.71809263 674.14688111 -235.875 674.16796875 C-236.205 673.50796875 -236.535 672.84796875 -236.875 672.16796875 C-255.685 671.83796875 -274.495 671.50796875 -293.875 671.16796875 C-295.855 667.20796875 -297.835 663.24796875 -299.875 659.16796875 C-292.89703832 658.2517348 -286.09157061 658.03565064 -279.05859375 658.0703125 C-277.41299217 658.07243492 -277.41299217 658.07243492 -275.73414612 658.07460022 C-272.26023531 658.08015863 -268.78639104 658.09270329 -265.3125 658.10546875 C-262.94466239 658.11048913 -260.57682377 658.11505109 -258.20898438 658.11914062 C-252.43096722 658.1301144 -246.65298836 658.14681064 -240.875 658.16796875 C-240.875 657.17796875 -240.875 656.18796875 -240.875 655.16796875 C-261.005 655.49796875 -281.135 655.82796875 -301.875 656.16796875 C-308.875 640.16796875 -308.875 640.16796875 -308.875 638.16796875 C-273.895 637.83796875 -238.915 637.50796875 -202.875 637.16796875 C-202.875 636.17796875 -202.875 635.18796875 -202.875 634.16796875 C-203.92557587 634.23902328 -204.97615173 634.31007782 -206.05856323 634.38328552 C-218.15596101 635.1546446 -230.20155765 635.29966333 -242.3203125 635.265625 C-244.31240808 635.26375399 -246.30450413 635.26233333 -248.29660034 635.26133728 C-253.47492806 635.25756578 -258.65322658 635.24778307 -263.83154297 635.2366333 C-269.14159755 635.22630206 -274.45165696 635.22181487 -279.76171875 635.21679688 C-290.13282515 635.20615454 -300.50391012 635.18914482 -310.875 635.16796875 C-311.83360577 632.79098882 -312.79036201 630.4132916 -313.74609375 628.03515625 C-314.14942932 627.03585083 -314.14942932 627.03585083 -314.56091309 626.01635742 C-319.87283038 612.78315995 -322.64352329 599.34509371 -325.27246094 585.36523438 C-325.65475156 583.33667765 -326.04274565 581.3091808 -326.43847656 579.28320312 C-330.67971059 557.56131123 -332.78794804 535.52736655 -333.52978516 513.41748047 C-333.8038693 505.57024052 -334.44816177 497.7784517 -335.21508789 489.96484375 C-335.8744033 483.06546734 -336.30408268 476.38469921 -335.38500977 469.49462891 C-334.78348704 464.86434877 -334.66826468 460.27004295 -334.59375 455.60546875 C-334.5572196 453.74829083 -334.52067953 451.8911131 -334.48413086 450.03393555 C-334.45801224 448.59478287 -334.45801224 448.59478287 -334.43136597 447.1265564 C-334.37458885 444.14638805 -334.307288 441.16663582 -334.23657227 438.18676758 C-334.04053719 429.84970707 -333.85236783 421.51933047 -333.87109375 413.1796875 C-333.86078125 412.08076172 -333.85046875 410.98183594 -333.83984375 409.84960938 C-333.82229262 407.92776114 -333.8340689 406.00529453 -333.8828125 404.08398438 C-333.81891367 400.32266694 -333.6863781 398.08362949 -331.13500977 395.2043457 C-329.72408598 394.00316473 -328.28204704 392.83750755 -326.81030273 391.71166992 C-324.37884601 389.77220974 -323.19905652 387.80437997 -321.9375 384.98046875 C-321.55722656 384.16191406 -321.17695313 383.34335937 -320.78515625 382.5 C-318.55780802 376.79301763 -318.69147033 371.41815848 -318.6875 365.35546875 C-318.66913086 363.89657227 -318.66913086 363.89657227 -318.65039062 362.40820312 C-318.63913558 356.86697169 -319.2002653 352.42953681 -320.875 347.16796875 C-321.03515625 344.5078125 -321.03515625 344.5078125 -320.9375 342.10546875 C-320.82594123 339.11278345 -320.86576813 337.19543829 -321.83203125 334.3203125 C-321.875 331.16796875 -321.875 331.16796875 -320.63793945 329.44995117 C-318.66912781 327.46015178 -316.61799594 325.62327968 -314.5 323.79296875 C-312.92159283 322.36880225 -311.34347579 320.94431415 -309.765625 319.51953125 C-308.54456055 318.43526855 -308.54456055 318.43526855 -307.29882812 317.32910156 C-303.56308045 313.99823548 -299.90008207 310.59222023 -296.25 307.16796875 C-295.20017944 306.18461548 -295.20017944 306.18461548 -294.12915039 305.18139648 C-287.28829696 298.71579644 -280.85588805 291.89892805 -274.50732422 284.953125 C-273.02364452 283.33053063 -271.5313532 281.71651124 -270.03515625 280.10546875 C-265.28486405 274.95260942 -260.73757941 269.67924918 -256.33984375 264.22265625 C-254.53414825 261.98485295 -252.71520688 259.76314976 -250.87890625 257.55078125 C-202.5633351 199.13513714 -164.74734809 128.30108135 -144.45825195 55.26708984 C-143.87871299 53.18133177 -143.29618636 51.09642903 -142.71289062 49.01171875 C-140.40061225 40.73941646 -138.1277025 32.45668947 -135.875 24.16796875 C-134.87548081 20.50117091 -133.87531165 16.83455048 -132.875 13.16796875 C-112.84283132 9.59729861 -92.83098095 6.80282838 -72.6015625 4.63800049 C-69.85345562 4.34145699 -67.1064509 4.03532219 -64.35940838 3.72909927 C-60.99403567 3.35493067 -57.62787491 2.9881495 -54.26171875 2.62109375 C-53.06552414 2.48882385 -51.86932953 2.35655396 -50.6368866 2.22027588 C-33.73863596 0.41986747 -16.98040229 0.00599859 0 0 Z M-61.875 47.16796875 C-62.90109375 47.71066406 -63.9271875 48.25335938 -64.984375 48.8125 C-78.63837647 56.39600622 -90.66521686 66.37030999 -101.875 77.16796875 C-103.00421875 78.20244141 -103.00421875 78.20244141 -104.15625 79.2578125 C-133.98085626 107.40748616 -152.75828641 151.52184137 -154.875 192.16796875 C-155.25079196 205.49529793 -155.06689215 218.83884508 -154.875 232.16796875 C-152.565 232.82796875 -150.255 233.48796875 -147.875 234.16796875 C-146.32606737 240.10554383 -147.5654574 243.26937242 -150.01171875 248.80078125 C-151.54753956 253.01212701 -150.23042692 256.10168799 -148.875 260.16796875 C-148.67912273 263.66474076 -148.53085137 267.15526629 -148.4453125 270.65625 C-148.22583924 275.84130574 -147.17756846 279.51010125 -144.875 284.16796875 C-144.483125 284.97234375 -144.09125 285.77671875 -143.6875 286.60546875 C-143.419375 287.12109375 -143.15125 287.63671875 -142.875 288.16796875 C-143.7 288.53921875 -144.525 288.91046875 -145.375 289.29296875 C-146.2 289.91171875 -147.025 290.53046875 -147.875 291.16796875 C-148.12505386 294.20979768 -148.12505386 294.20979768 -147.875 297.16796875 C-148.535 297.82796875 -149.195 298.48796875 -149.875 299.16796875 C-150.37009843 302.36593785 -150.71204466 305.53652438 -150.99804688 308.7578125 C-151.19454983 310.57413714 -151.5273969 312.37441901 -151.875 314.16796875 C-152.865 314.82796875 -153.855 315.48796875 -154.875 316.16796875 C-155.31209055 318.26296632 -155.31209055 318.26296632 -155.21557617 320.70947266 C-155.21534958 321.65029694 -155.21512299 322.59112122 -155.21488953 323.56045532 C-155.19940567 324.57820038 -155.18392181 325.59594543 -155.16796875 326.64453125 C-155.16372391 327.68491547 -155.15947906 328.72529968 -155.15510559 329.79721069 C-155.13827482 333.12939022 -155.10061422 336.46097116 -155.0625 339.79296875 C-155.04745887 342.04816837 -155.03376947 344.30337744 -155.02148438 346.55859375 C-154.98835699 352.0952573 -154.9381142 357.63157027 -154.875 363.16796875 C-152.47996313 364.2946905 -150.0840129 365.41939433 -147.6875 366.54296875 C-147.01396484 366.86007812 -146.34042969 367.1771875 -145.64648438 367.50390625 C-139.03219325 370.88655245 -139.03219325 370.88655245 -131.875 372.16796875 C-131.875 326.29796875 -131.875 280.42796875 -131.875 233.16796875 C-84.025 233.16796875 -36.175 233.16796875 13.125 233.16796875 C13.125 253.95796875 13.125 274.74796875 13.125 296.16796875 C18.075 294.18796875 23.025 292.20796875 28.125 290.16796875 C31.095 289.17796875 34.065 288.18796875 37.125 287.16796875 C37.125 269.34796875 37.125 251.52796875 37.125 233.16796875 C71.775 233.16796875 106.425 233.16796875 142.125 233.16796875 C142.785 230.52796875 143.445 227.88796875 144.125 225.16796875 C146.83860362 220.64529606 150.1333898 218.59826032 155.125 217.16796875 C158.76969882 216.77157845 162.39879662 216.75709626 166.0625 216.73046875 C174.73158355 216.52687872 182.32664368 215.47019525 190.640625 213.08984375 C195.43979977 211.82010693 200.17760562 211.3776041 205.125 211.16796875 C206.51341717 167.09857933 192.51601487 122.55740791 163.125 89.16796875 C162.03058594 87.90919922 162.03058594 87.90919922 160.9140625 86.625 C158.68639444 84.10421772 156.41793845 81.62944798 154.125 79.16796875 C153.40183594 78.3790625 152.67867187 77.59015625 151.93359375 76.77734375 C121.67072454 45.0294945 75.89524003 26.08874102 32.26953125 24.96484375 C-1.52565988 24.54689613 -32.07545768 31.24755523 -61.875 47.16796875 Z M-20.875 247.16796875 C-20.875 248.15796875 -20.875 249.14796875 -20.875 250.16796875 C-22.855 251.15796875 -22.855 251.15796875 -24.875 252.16796875 C-23.885 253.65296875 -23.885 253.65296875 -22.875 255.16796875 C-22.215 255.16796875 -21.555 255.16796875 -20.875 255.16796875 C-20.545 255.82796875 -20.215 256.48796875 -19.875 257.16796875 C-19.875 256.50796875 -19.875 255.84796875 -19.875 255.16796875 C-19.215 255.16796875 -18.555 255.16796875 -17.875 255.16796875 C-17.875 254.50796875 -17.875 253.84796875 -17.875 253.16796875 C-17.215 252.83796875 -16.555 252.50796875 -15.875 252.16796875 C-16.535 252.16796875 -17.195 252.16796875 -17.875 252.16796875 C-18.205 251.17796875 -18.535 250.18796875 -18.875 249.16796875 C-19.535 248.50796875 -20.195 247.84796875 -20.875 247.16796875 Z M121.125 258.16796875 C120.465 260.14796875 119.805 262.12796875 119.125 264.16796875 C118.465 263.83796875 117.805 263.50796875 117.125 263.16796875 C117.125 264.15796875 117.125 265.14796875 117.125 266.16796875 C115.475 266.82796875 113.825 267.48796875 112.125 268.16796875 C112.125 268.49796875 112.125 268.82796875 112.125 269.16796875 C114.105 269.16796875 116.085 269.16796875 118.125 269.16796875 C117.795 270.48796875 117.465 271.80796875 117.125 273.16796875 C118.115 273.16796875 119.105 273.16796875 120.125 273.16796875 C120.455 274.81796875 120.785 276.46796875 121.125 278.16796875 C121.455 278.16796875 121.785 278.16796875 122.125 278.16796875 C122.785 276.18796875 123.445 274.20796875 124.125 272.16796875 C124.785 272.49796875 125.445 272.82796875 126.125 273.16796875 C125.795 271.84796875 125.465 270.52796875 125.125 269.16796875 C126.775 269.16796875 128.425 269.16796875 130.125 269.16796875 C128.1995356 266.94436195 128.1995356 266.94436195 125.125 266.16796875 C124.4375 264.10546875 124.4375 264.10546875 124.125 262.16796875 C123.135 262.66296875 123.135 262.66296875 122.125 263.16796875 C122.125 261.51796875 122.125 259.86796875 122.125 258.16796875 C121.795 258.16796875 121.465 258.16796875 121.125 258.16796875 Z M60.125 279.16796875 C60.125 280.15796875 60.125 281.14796875 60.125 282.16796875 C58.145 283.15796875 58.145 283.15796875 56.125 284.16796875 C57.115 285.65296875 57.115 285.65296875 58.125 287.16796875 C58.785 287.16796875 59.445 287.16796875 60.125 287.16796875 C60.455 287.82796875 60.785 288.48796875 61.125 289.16796875 C61.125 288.50796875 61.125 287.84796875 61.125 287.16796875 C61.785 287.16796875 62.445 287.16796875 63.125 287.16796875 C63.125 286.50796875 63.125 285.84796875 63.125 285.16796875 C63.785 284.83796875 64.445 284.50796875 65.125 284.16796875 C64.465 284.16796875 63.805 284.16796875 63.125 284.16796875 C62.795 283.17796875 62.465 282.18796875 62.125 281.16796875 C61.465 280.50796875 60.805 279.84796875 60.125 279.16796875 Z M-70.4375 288.48046875 C-72.19923323 290.17912895 -72.19923323 290.17912895 -71.875 293.16796875 C-73.195 293.49796875 -74.515 293.82796875 -75.875 294.16796875 C-74.885 294.49796875 -73.895 294.82796875 -72.875 295.16796875 C-70.98146634 297.06150241 -69.4551368 299.01323676 -67.875 301.16796875 C-67.545 299.84796875 -67.215 298.52796875 -66.875 297.16796875 C-66.215 297.49796875 -65.555 297.82796875 -64.875 298.16796875 C-64.875 297.50796875 -64.875 296.84796875 -64.875 296.16796875 C-64.215 295.83796875 -63.555 295.50796875 -62.875 295.16796875 C-62.875 294.50796875 -62.875 293.84796875 -62.875 293.16796875 C-63.865 292.50796875 -64.855 291.84796875 -65.875 291.16796875 C-67.0625 289.04296875 -67.0625 289.04296875 -67.875 287.16796875 C-69.0874831 287.06077007 -69.0874831 287.06077007 -70.4375 288.48046875 Z M192.83984375 302.85546875 C190.125 304.16796875 190.125 304.16796875 182.125 304.16796875 C182.125 313.40796875 182.125 322.64796875 182.125 332.16796875 C189.98316521 325.88143658 194.40119135 318.40026855 198.125 309.16796875 C198.43566406 308.51570313 198.74632812 307.8634375 199.06640625 307.19140625 C200.76387311 303.6152594 200.76387311 303.6152594 200.8125 299.73046875 C200.4721875 298.95703125 200.4721875 298.95703125 200.125 298.16796875 C197.65295151 298.16796875 194.75248233 301.40334245 192.83984375 302.85546875 Z M13.125 318.16796875 C13.125 349.18796875 13.125 380.20796875 13.125 412.16796875 C18.405 410.18796875 23.685 408.20796875 29.125 406.16796875 C31.765 405.83796875 34.405 405.50796875 37.125 405.16796875 C37.125 383.71796875 37.125 362.26796875 37.125 340.16796875 C34.815 339.17796875 32.505 338.18796875 30.125 337.16796875 C27.98046875 335.5625 27.98046875 335.5625 26.3125 333.98046875 C24.09705082 331.66247077 24.09705082 331.66247077 21.125 331.16796875 C21.186875 330.40484375 21.24875 329.64171875 21.3125 328.85546875 C21.08801146 325.63779968 20.40801597 325.26834344 18.125 323.16796875 C17.4375 320.98046875 17.4375 320.98046875 17.125 319.16796875 C15.805 318.83796875 14.485 318.50796875 13.125 318.16796875 Z M147.125 326.16796875 C147.125 327.15796875 147.125 328.14796875 147.125 329.16796875 C145.145 330.15796875 145.145 330.15796875 143.125 331.16796875 C144.115 332.65296875 144.115 332.65296875 145.125 334.16796875 C145.785 334.16796875 146.445 334.16796875 147.125 334.16796875 C147.455 334.82796875 147.785 335.48796875 148.125 336.16796875 C148.125 335.50796875 148.125 334.84796875 148.125 334.16796875 C148.785 334.16796875 149.445 334.16796875 150.125 334.16796875 C150.125 333.50796875 150.125 332.84796875 150.125 332.16796875 C150.785 331.83796875 151.445 331.50796875 152.125 331.16796875 C151.465 331.16796875 150.805 331.16796875 150.125 331.16796875 C149.795 330.17796875 149.465 329.18796875 149.125 328.16796875 C148.465 327.50796875 147.805 326.84796875 147.125 326.16796875 Z M-113.875 352.16796875 C-114.205 353.15796875 -114.535 354.14796875 -114.875 355.16796875 C-115.865 355.82796875 -116.855 356.48796875 -117.875 357.16796875 C-115.4 359.14796875 -115.4 359.14796875 -112.875 361.16796875 C-112.875 360.50796875 -112.875 359.84796875 -112.875 359.16796875 C-111.555 358.50796875 -110.235 357.84796875 -108.875 357.16796875 C-109.535 356.17796875 -110.195 355.18796875 -110.875 354.16796875 C-111.535 354.16796875 -112.195 354.16796875 -112.875 354.16796875 C-113.205 353.50796875 -113.535 352.84796875 -113.875 352.16796875 Z M188.46533203 363.74560547 C183.51589593 368.86401236 180.88149811 372.06435324 181 379.29296875 C181.40516977 382.59121036 181.40516977 382.59121036 182.125 385.16796875 C188.2312264 382.11485555 193.1984139 377.91539334 198.35546875 373.5078125 C201.125 371.16796875 201.125 371.16796875 203.4609375 369.55859375 C205.48732012 368.1821931 205.48732012 368.1821931 205.5625 364.98046875 C205.05489945 360.55709254 203.84819295 357.260552 202.125 353.16796875 C197.088774 353.16796875 191.89559721 360.42635638 188.46533203 363.74560547 Z M-154.875 380.16796875 C-155.72737319 390.07134458 -155.72737319 390.07134458 -153.40625 393.96484375 C-152.7359375 394.609375 -152.065625 395.25390625 -151.375 395.91796875 C-150.64410156 396.63984375 -149.91320312 397.36171875 -149.16015625 398.10546875 C-148.40605469 398.78609375 -147.65195313 399.46671875 -146.875 400.16796875 C-146.19308594 400.80734375 -145.51117188 401.44671875 -144.80859375 402.10546875 C-140.68340964 405.85123279 -136.45813774 408.89429894 -131.875 412.16796875 C-131.875 403.91796875 -131.875 395.66796875 -131.875 387.16796875 C-139.465 384.85796875 -147.055 382.54796875 -154.875 380.16796875 Z M84.125 386.16796875 C83.795 387.15796875 83.465 388.14796875 83.125 389.16796875 C82.135 389.82796875 81.145 390.48796875 80.125 391.16796875 C80.785 391.16796875 81.445 391.16796875 82.125 391.16796875 C82.125 391.82796875 82.125 392.48796875 82.125 393.16796875 C82.785 393.16796875 83.445 393.16796875 84.125 393.16796875 C84.455 394.15796875 84.785 395.14796875 85.125 396.16796875 C85.125 395.17796875 85.125 394.18796875 85.125 393.16796875 C86.445 392.50796875 87.765 391.84796875 89.125 391.16796875 C88.465 390.17796875 87.805 389.18796875 87.125 388.16796875 C86.465 388.16796875 85.805 388.16796875 85.125 388.16796875 C84.795 387.50796875 84.465 386.84796875 84.125 386.16796875 Z M-64.875 391.16796875 C-64.875 392.15796875 -64.875 393.14796875 -64.875 394.16796875 C-66.855 395.15796875 -66.855 395.15796875 -68.875 396.16796875 C-67.885 397.65296875 -67.885 397.65296875 -66.875 399.16796875 C-66.215 399.16796875 -65.555 399.16796875 -64.875 399.16796875 C-64.545 399.82796875 -64.215 400.48796875 -63.875 401.16796875 C-63.875 400.50796875 -63.875 399.84796875 -63.875 399.16796875 C-63.215 399.16796875 -62.555 399.16796875 -61.875 399.16796875 C-61.875 398.50796875 -61.875 397.84796875 -61.875 397.16796875 C-61.215 396.83796875 -60.555 396.50796875 -59.875 396.16796875 C-60.535 396.16796875 -61.195 396.16796875 -61.875 396.16796875 C-62.205 395.17796875 -62.535 394.18796875 -62.875 393.16796875 C-63.535 392.50796875 -64.195 391.84796875 -64.875 391.16796875 Z M182.125 413.16796875 C179.67814765 417.97185958 180.96194323 421.98707951 182.125 427.16796875 C189.715 427.16796875 197.305 427.16796875 205.125 427.16796875 C205.125 417.92796875 205.125 408.68796875 205.125 399.16796875 C198.33837288 399.16796875 186.85201742 408.67466351 182.125 413.16796875 Z M-154.875 411.16796875 C-154.875 416.44796875 -154.875 421.72796875 -154.875 427.16796875 C-148.605 427.16796875 -142.335 427.16796875 -135.875 427.16796875 C-139.70281702 423.34015173 -143.5026016 419.82476808 -147.625 416.35546875 C-148.21410156 415.85337891 -148.80320313 415.35128906 -149.41015625 414.83398438 C-151.84476035 412.31207317 -151.84476035 412.31207317 -154.875 411.16796875 Z M22.875 423.66796875 C15.33445946 424.16796875 15.33445946 424.16796875 13.125 424.16796875 C13.125 425.15796875 13.125 426.14796875 13.125 427.16796875 C21.045 427.16796875 28.965 427.16796875 37.125 427.16796875 C37.125 425.84796875 37.125 424.52796875 37.125 423.16796875 C32.34958653 423.10790066 27.63556309 423.34536649 22.875 423.66796875 Z M-154.875 451.16796875 C-154.875 458.42796875 -154.875 465.68796875 -154.875 473.16796875 C-147.6631026 473.17563112 -147.6631026 473.17563112 -140.875 471.16796875 C-138.95833333 468.91796875 -138.95833333 468.91796875 -137.875 466.16796875 C-137.318125 465.28109375 -136.76125 464.39421875 -136.1875 463.48046875 C-134.71046483 461.3212411 -134.71046483 461.3212411 -134.875 459.16796875 C-133.885 459.49796875 -132.895 459.82796875 -131.875 460.16796875 C-131.875 457.19796875 -131.875 454.22796875 -131.875 451.16796875 C-139.465 451.16796875 -147.055 451.16796875 -154.875 451.16796875 Z M13.125 451.16796875 C12.6972297 460.67280047 12.6972297 460.67280047 17.125 467.16796875 C17.3725 467.91046875 17.62 468.65296875 17.875 469.41796875 C19.14748153 471.55145803 19.14748153 471.55145803 22.625 472.41796875 C28.00864456 473.44196706 28.00864456 473.44196706 37.125 473.16796875 C37.125 465.90796875 37.125 458.64796875 37.125 451.16796875 C29.205 451.16796875 21.285 451.16796875 13.125 451.16796875 Z M182.125 451.16796875 C182.125 458.09796875 182.125 465.02796875 182.125 472.16796875 C185.1775 472.02359375 188.23 471.87921875 191.375 471.73046875 C192.33051758 471.68736572 193.28603516 471.6442627 194.27050781 471.59985352 C195.03202148 471.56174561 195.79353516 471.5236377 196.578125 471.484375 C197.74069824 471.42938843 197.74069824 471.42938843 198.92675781 471.37329102 C201.45222445 471.19330732 201.45222445 471.19330732 205.125 470.16796875 C205.125 463.89796875 205.125 457.62796875 205.125 451.16796875 C197.535 451.16796875 189.945 451.16796875 182.125 451.16796875 Z M-133.875 467.16796875 C-133.875 468.15796875 -133.875 469.14796875 -133.875 470.16796875 C-133.215 469.50796875 -132.555 468.84796875 -131.875 468.16796875 C-132.535 467.83796875 -133.195 467.50796875 -133.875 467.16796875 Z M-154.875 480.16796875 C-154.545 481.48796875 -154.215 482.80796875 -153.875 484.16796875 C-152.89917969 484.37292969 -151.92335937 484.57789063 -150.91796875 484.7890625 C-149.64566406 485.05847656 -148.37335938 485.32789063 -147.0625 485.60546875 C-145.79792969 485.87230469 -144.53335938 486.13914062 -143.23046875 486.4140625 C-139.875 487.16796875 -139.875 487.16796875 -136.875 488.16796875 C-136.875 485.85796875 -136.875 483.54796875 -136.875 481.16796875 C-137.865 480.83796875 -138.855 480.50796875 -139.875 480.16796875 C-140.865 481.65296875 -140.865 481.65296875 -141.875 483.16796875 C-144.2181213 482.91235552 -146.55343403 482.57526103 -148.875 482.16796875 C-149.205 481.50796875 -149.535 480.84796875 -149.875 480.16796875 C-151.525 480.16796875 -153.175 480.16796875 -154.875 480.16796875 Z M16.125 480.16796875 C14.73212194 481.3383318 14.73212194 481.3383318 14.9375 484.60546875 C14.72935072 488.21829596 14.72935072 488.21829596 17.125 490.16796875 C17.455 489.17796875 17.785 488.18796875 18.125 487.16796875 C19.445 487.16796875 20.765 487.16796875 22.125 487.16796875 C21.8125 490.04296875 21.8125 490.04296875 21.125 493.16796875 C20.135 493.82796875 19.145 494.48796875 18.125 495.16796875 C16.3905489 497.69222231 16.3905489 497.69222231 16.125 501.16796875 C17.06719394 503.56114135 18.28893416 505.71151477 19.54296875 507.95703125 C21.59209867 512.11600605 23.00802328 516.38914711 24.4375 520.79296875 C24.70369141 521.6118457 24.96988281 522.43072266 25.24414062 523.27441406 C25.87702776 525.23702864 26.50187463 527.20223304 27.125 529.16796875 C29.00718318 526.34469398 29.48983492 525.12189968 30.0546875 521.921875 C30.2084082 521.09059082 30.36212891 520.25930664 30.52050781 519.40283203 C30.67874023 518.52095215 30.83697266 517.63907227 31 516.73046875 C32.08715191 510.8924838 33.24567228 505.35791389 35.375 499.79296875 C37.75113145 493.31429784 37.48799571 486.98422158 37.125 480.16796875 C35.68844146 480.08665412 34.2505517 480.02863316 32.8125 479.98046875 C32.01199219 479.94566406 31.21148437 479.91085937 30.38671875 479.875 C27.59459633 480.23667389 27.02155967 481.18894996 25.125 483.16796875 C21.4375 483.35546875 21.4375 483.35546875 18.125 483.16796875 C18.125 482.17796875 18.125 481.18796875 18.125 480.16796875 C17.465 480.16796875 16.805 480.16796875 16.125 480.16796875 Z M62.125 495.16796875 C62.125 496.15796875 62.125 497.14796875 62.125 498.16796875 C60.145 499.15796875 60.145 499.15796875 58.125 500.16796875 C59.115 501.65296875 59.115 501.65296875 60.125 503.16796875 C60.785 503.16796875 61.445 503.16796875 62.125 503.16796875 C62.455 503.82796875 62.785 504.48796875 63.125 505.16796875 C63.125 504.50796875 63.125 503.84796875 63.125 503.16796875 C63.785 503.16796875 64.445 503.16796875 65.125 503.16796875 C65.125 502.50796875 65.125 501.84796875 65.125 501.16796875 C65.785 500.83796875 66.445 500.50796875 67.125 500.16796875 C66.465 500.16796875 65.805 500.16796875 65.125 500.16796875 C64.795 499.17796875 64.465 498.18796875 64.125 497.16796875 C63.465 496.50796875 62.805 495.84796875 62.125 495.16796875 Z M-25.875 496.16796875 C-25.875 498.47796875 -25.875 500.78796875 -25.875 503.16796875 C-27.195 502.83796875 -28.515 502.50796875 -29.875 502.16796875 C-29.875 503.15796875 -29.875 504.14796875 -29.875 505.16796875 C-31.525 505.82796875 -33.175 506.48796875 -34.875 507.16796875 C-34.875 507.49796875 -34.875 507.82796875 -34.875 508.16796875 C-32.895 508.16796875 -30.915 508.16796875 -28.875 508.16796875 C-29.205 509.48796875 -29.535 510.80796875 -29.875 512.16796875 C-28.555 511.50796875 -27.235 510.84796875 -25.875 510.16796875 C-25.875 512.47796875 -25.875 514.78796875 -25.875 517.16796875 C-23.7364515 515.02942025 -23.44844937 514.03521561 -22.875 511.16796875 C-21.885 511.82796875 -20.895 512.48796875 -19.875 513.16796875 C-20.205 511.84796875 -20.535 510.52796875 -20.875 509.16796875 C-19.555 508.50796875 -18.235 507.84796875 -16.875 507.16796875 C-18.855 506.50796875 -20.835 505.84796875 -22.875 505.16796875 C-22.545 503.84796875 -22.215 502.52796875 -21.875 501.16796875 C-22.535 501.16796875 -23.195 501.16796875 -23.875 501.16796875 C-24.205 499.51796875 -24.535 497.86796875 -24.875 496.16796875 C-25.205 496.16796875 -25.535 496.16796875 -25.875 496.16796875 Z M20.125 521.16796875 C21.125 524.16796875 21.125 524.16796875 21.125 524.16796875 Z M21.125 525.16796875 C21.78757422 532.89218924 22.88964626 540.51597178 24.125 548.16796875 C24.455 548.16796875 24.785 548.16796875 25.125 548.16796875 C25.61655247 540.10286707 24.17437325 532.95070763 22.125 525.16796875 C21.795 525.16796875 21.465 525.16796875 21.125 525.16796875 Z M36.125 531.16796875 C31.18729668 554.82779717 31.62584977 580.33000783 35.125 604.16796875 C47.005 604.16796875 58.885 604.16796875 71.125 604.16796875 C70.465 603.17796875 69.805 602.18796875 69.125 601.16796875 C68.795 599.18796875 68.465 597.20796875 68.125 595.16796875 C57.895 595.16796875 47.665 595.16796875 37.125 595.16796875 C37.125 574.04796875 37.125 552.92796875 37.125 531.16796875 C36.795 531.16796875 36.465 531.16796875 36.125 531.16796875 Z M13.125 535.16796875 C13.125 548.03796875 13.125 560.90796875 13.125 574.16796875 C13.785 574.16796875 14.445 574.16796875 15.125 574.16796875 C16.49990009 569.38359073 16.31580644 564.6744228 16.3125 559.73046875 C16.31314453 558.74868652 16.31378906 557.7669043 16.31445312 556.75537109 C16.26106713 549.38446435 15.65216662 542.39473936 14.125 535.16796875 C13.795 535.16796875 13.465 535.16796875 13.125 535.16796875 Z M-154.875 546.16796875 C-154.875 565.30796875 -154.875 584.44796875 -154.875 604.16796875 C-152.235 604.16796875 -149.595 604.16796875 -146.875 604.16796875 C-147.205 603.65234375 -147.535 603.13671875 -147.875 602.60546875 C-149.19510877 599.38770363 -149.00742105 596.61091595 -148.875 593.16796875 C-146.235 592.83796875 -143.595 592.50796875 -140.875 592.16796875 C-141.205 591.50796875 -141.535 590.84796875 -141.875 590.16796875 C-142.875 587.16796875 -142.875 587.16796875 -142.5625 583.73046875 C-142.36753104 578.62228189 -144.91804452 574.52919469 -147.29760742 570.17993164 C-150.48251014 564.32905629 -151.00618061 559.44849366 -151.4375 552.85546875 C-151.52128906 551.60121094 -151.60507813 550.34695313 -151.69140625 549.0546875 C-151.75199219 548.10207031 -151.81257812 547.14945313 -151.875 546.16796875 C-152.865 546.16796875 -153.855 546.16796875 -154.875 546.16796875 Z M-147.875 546.16796875 C-147.5373226 554.35373475 -146.90653319 561.52323287 -143.875 569.16796875 C-143.545 569.16796875 -143.215 569.16796875 -142.875 569.16796875 C-142.875 561.57796875 -142.875 553.98796875 -142.875 546.16796875 C-144.525 546.16796875 -146.175 546.16796875 -147.875 546.16796875 Z M-137.875 546.16796875 C-139.74791423 548.04088298 -139.04132857 550.70998938 -139.06445312 553.20166016 C-139.06380859 554.01554199 -139.06316406 554.82942383 -139.0625 555.66796875 C-139.06314453 556.48571777 -139.06378906 557.3034668 -139.06445312 558.14599609 C-139.01531725 563.75306928 -138.47517085 568.76739214 -136.875 574.16796875 C-135.225 573.83796875 -133.575 573.50796875 -131.875 573.16796875 C-131.875 564.25796875 -131.875 555.34796875 -131.875 546.16796875 C-133.855 546.16796875 -135.835 546.16796875 -137.875 546.16796875 Z M182.125 546.16796875 C182.125 562.33796875 182.125 578.50796875 182.125 595.16796875 C179.155 595.16796875 176.185 595.16796875 173.125 595.16796875 C172.85567479 599.81849747 172.85567479 599.81849747 174.125 604.16796875 C184.355 604.16796875 194.585 604.16796875 205.125 604.16796875 C205.125 585.02796875 205.125 565.88796875 205.125 546.16796875 C197.535 546.16796875 189.945 546.16796875 182.125 546.16796875 Z M-22.875 572.16796875 C-22.875 573.15796875 -22.875 574.14796875 -22.875 575.16796875 C-24.855 576.15796875 -24.855 576.15796875 -26.875 577.16796875 C-25.885 578.65296875 -25.885 578.65296875 -24.875 580.16796875 C-24.215 580.16796875 -23.555 580.16796875 -22.875 580.16796875 C-22.545 580.82796875 -22.215 581.48796875 -21.875 582.16796875 C-21.875 581.50796875 -21.875 580.84796875 -21.875 580.16796875 C-21.215 580.16796875 -20.555 580.16796875 -19.875 580.16796875 C-19.875 579.50796875 -19.875 578.84796875 -19.875 578.16796875 C-19.215 577.83796875 -18.555 577.50796875 -17.875 577.16796875 C-18.535 577.16796875 -19.195 577.16796875 -19.875 577.16796875 C-20.205 576.17796875 -20.535 575.18796875 -20.875 574.16796875 C-21.535 573.50796875 -22.195 572.84796875 -22.875 572.16796875 Z M-140.875 592.16796875 C-140.215 592.82796875 -139.555 593.48796875 -138.875 594.16796875 C-138.875 593.50796875 -138.875 592.84796875 -138.875 592.16796875 C-139.535 592.16796875 -140.195 592.16796875 -140.875 592.16796875 Z M-116.875 595.16796875 C-117.865 598.13796875 -118.855 601.10796875 -119.875 604.16796875 C-111.955 604.16796875 -104.035 604.16796875 -95.875 604.16796875 C-97.36 599.71296875 -97.36 599.71296875 -98.875 595.16796875 C-104.815 595.16796875 -110.755 595.16796875 -116.875 595.16796875 Z M-89.875 595.16796875 C-89.730625 596.46734375 -89.58625 597.76671875 -89.4375 599.10546875 C-89.35628906 599.83636719 -89.27507812 600.56726563 -89.19140625 601.3203125 C-89.05613386 603.17937104 -89.05613386 603.17937104 -87.875 604.16796875 C-85.52186445 604.24068616 -83.16666332 604.25167743 -80.8125 604.23046875 C-79.52214844 604.22144531 -78.23179687 604.21242188 -76.90234375 604.203125 C-75.90332031 604.19152344 -74.90429688 604.17992187 -73.875 604.16796875 C-74.535 603.17796875 -75.195 602.18796875 -75.875 601.16796875 C-76.205 599.18796875 -76.535 597.20796875 -76.875 595.16796875 C-81.165 595.16796875 -85.455 595.16796875 -89.875 595.16796875 Z M-56.875 595.16796875 C-56.545 596.81796875 -56.215 598.46796875 -55.875 600.16796875 C-54.885 600.49796875 -53.895 600.82796875 -52.875 601.16796875 C-51.885 600.50796875 -50.895 599.84796875 -49.875 599.16796875 C-50.205 598.50796875 -50.535 597.84796875 -50.875 597.16796875 C-52.195 597.49796875 -53.515 597.82796875 -54.875 598.16796875 C-55.535 597.17796875 -56.195 596.18796875 -56.875 595.16796875 Z M-44.875 595.16796875 C-45.535 597.47796875 -46.195 599.78796875 -46.875 602.16796875 C-47.205 602.82796875 -47.535 603.48796875 -47.875 604.16796875 C-32.695 604.16796875 -17.515 604.16796875 -1.875 604.16796875 C-2.865 601.19796875 -3.855 598.22796875 -4.875 595.16796875 C-18.075 595.16796875 -31.275 595.16796875 -44.875 595.16796875 Z M115.125 596.16796875 C114.795 598.80796875 114.465 601.44796875 114.125 604.16796875 C123.695 604.16796875 133.265 604.16796875 143.125 604.16796875 C141.64 599.71296875 141.64 599.71296875 140.125 595.16796875 C136.14584841 595.13909891 132.16672347 595.12121469 128.1875 595.10546875 C127.05119141 595.09708984 125.91488281 595.08871094 124.74414062 595.08007812 C123.66455078 595.07685547 122.58496094 595.07363281 121.47265625 595.0703125 C120.47242432 595.06507568 119.47219238 595.05983887 118.44165039 595.05444336 C116.16292772 594.9061578 116.16292772 594.9061578 115.125 596.16796875 Z M-137.875 596.16796875 C-138.49375 596.51859375 -139.1125 596.86921875 -139.75 597.23046875 C-140.45125 597.53984375 -141.1525 597.84921875 -141.875 598.16796875 C-142.535 597.83796875 -143.195 597.50796875 -143.875 597.16796875 C-143.215 598.48796875 -142.555 599.80796875 -141.875 601.16796875 C-140.225 600.50796875 -138.575 599.84796875 -136.875 599.16796875 C-137.205 598.17796875 -137.535 597.18796875 -137.875 596.16796875 Z M7.125 596.16796875 C6.50625 596.51859375 5.8875 596.86921875 5.25 597.23046875 C4.54875 597.53984375 3.8475 597.84921875 3.125 598.16796875 C2.465 597.83796875 1.805 597.50796875 1.125 597.16796875 C1.785 598.48796875 2.445 599.80796875 3.125 601.16796875 C4.775 600.50796875 6.425 599.84796875 8.125 599.16796875 C7.795 598.17796875 7.465 597.18796875 7.125 596.16796875 Z M-123.875 597.16796875 C-123.875 600.16796875 -123.875 600.16796875 -123.875 600.16796875 Z M-65.875 595.16796875 C-66.205 596.15796875 -66.535 597.14796875 -66.875 598.16796875 C-68.525 597.83796875 -70.175 597.50796875 -71.875 597.16796875 C-71.545 598.15796875 -71.215 599.14796875 -70.875 600.16796875 C-69.885 600.49796875 -68.895 600.82796875 -67.875 601.16796875 C-66.885 600.50796875 -65.895 599.84796875 -64.875 599.16796875 C-65.205 597.84796875 -65.535 596.52796875 -65.875 595.16796875 Z M79.125 595.16796875 C78.795 596.15796875 78.465 597.14796875 78.125 598.16796875 C76.475 597.83796875 74.825 597.50796875 73.125 597.16796875 C73.455 598.15796875 73.785 599.14796875 74.125 600.16796875 C75.115 600.49796875 76.105 600.82796875 77.125 601.16796875 C78.115 600.50796875 79.105 599.84796875 80.125 599.16796875 C79.795 597.84796875 79.465 596.52796875 79.125 595.16796875 Z M11.125 602.16796875 C10.795 602.82796875 10.465 603.48796875 10.125 604.16796875 C11.115 603.83796875 12.105 603.50796875 13.125 603.16796875 C12.465 602.83796875 11.805 602.50796875 11.125 602.16796875 Z M-193.875 634.16796875 C-193.875 635.15796875 -193.875 636.14796875 -193.875 637.16796875 C-192.885 637.16796875 -191.895 637.16796875 -190.875 637.16796875 C-190.875 636.17796875 -190.875 635.18796875 -190.875 634.16796875 C-191.865 634.16796875 -192.855 634.16796875 -193.875 634.16796875 Z M-181.875 634.16796875 C-181.875 635.15796875 -181.875 636.14796875 -181.875 637.16796875 C-169.665 637.16796875 -157.455 637.16796875 -144.875 637.16796875 C-144.545 636.17796875 -144.215 635.18796875 -143.875 634.16796875 C-156.415 634.16796875 -168.955 634.16796875 -181.875 634.16796875 Z M-135.875 634.16796875 C-135.875 635.15796875 -135.875 636.14796875 -135.875 637.16796875 C-129.66366744 637.21735851 -123.45244888 637.25368351 -117.2409668 637.27783203 C-115.12733978 637.28789769 -113.0137267 637.30155132 -110.90014648 637.31884766 C-107.86438558 637.34307105 -104.82880857 637.35444613 -101.79296875 637.36328125 C-100.84600632 637.37360382 -99.89904388 637.38392639 -98.92338562 637.39456177 C-97.60235588 637.39478836 -97.60235588 637.39478836 -96.25463867 637.39501953 C-95.09214851 637.40168137 -95.09214851 637.40168137 -93.90617371 637.40847778 C-91.56188455 637.2864014 -91.56188455 637.2864014 -88.875 635.16796875 C-104.55159386 634.46717226 -120.18244139 634.01803985 -135.875 634.16796875 Z M184.125 634.16796875 C184.125 634.82796875 184.125 635.48796875 184.125 636.16796875 C199.635 636.16796875 215.145 636.16796875 231.125 636.16796875 C231.455 635.50796875 231.785 634.84796875 232.125 634.16796875 C216.285 634.16796875 200.445 634.16796875 184.125 634.16796875 Z M240.125 634.16796875 C240.125 634.82796875 240.125 635.48796875 240.125 636.16796875 C241.445 636.16796875 242.765 636.16796875 244.125 636.16796875 C244.125 635.50796875 244.125 634.84796875 244.125 634.16796875 C242.805 634.16796875 241.485 634.16796875 240.125 634.16796875 Z M151.125 635.16796875 C155.125 636.16796875 155.125 636.16796875 155.125 636.16796875 Z M-197.875 654.16796875 C-198.205 655.48796875 -198.535 656.80796875 -198.875 658.16796875 C-197.43760487 658.19508941 -196.00006137 658.21441942 -194.5625 658.23046875 C-193.76199219 658.24207031 -192.96148437 658.25367188 -192.13671875 658.265625 C-189.70638666 658.2645473 -189.70638666 658.2645473 -186.875 657.16796875 C-187.205 656.17796875 -187.535 655.18796875 -187.875 654.16796875 C-191.175 654.16796875 -194.475 654.16796875 -197.875 654.16796875 Z M-177.875 654.16796875 C-177.545 655.15796875 -177.215 656.14796875 -176.875 657.16796875 C-176.215 657.16796875 -175.555 657.16796875 -174.875 657.16796875 C-174.875 656.17796875 -174.875 655.18796875 -174.875 654.16796875 C-175.865 654.16796875 -176.855 654.16796875 -177.875 654.16796875 Z M225.125 654.16796875 C224.795 655.15796875 224.465 656.14796875 224.125 657.16796875 C225.115 656.83796875 226.105 656.50796875 227.125 656.16796875 C227.125 655.50796875 227.125 654.84796875 227.125 654.16796875 C226.465 654.16796875 225.805 654.16796875 225.125 654.16796875 Z M237.125 654.16796875 C236.795 655.15796875 236.465 656.14796875 236.125 657.16796875 C240.085 657.16796875 244.045 657.16796875 248.125 657.16796875 C247.795 656.17796875 247.465 655.18796875 247.125 654.16796875 C243.825 654.16796875 240.525 654.16796875 237.125 654.16796875 Z M257.125 654.16796875 C257.785 655.48796875 258.445 656.80796875 259.125 658.16796875 C259.455 657.17796875 259.785 656.18796875 260.125 655.16796875 C259.135 654.83796875 258.145 654.50796875 257.125 654.16796875 Z M-232.875 655.16796875 C-232.875 656.15796875 -232.875 657.14796875 -232.875 658.16796875 C-232.215 658.16796875 -231.555 658.16796875 -230.875 658.16796875 C-230.875 657.17796875 -230.875 656.18796875 -230.875 655.16796875 C-231.535 655.16796875 -232.195 655.16796875 -232.875 655.16796875 Z M-209.875 655.16796875 C-210.205 656.15796875 -210.535 657.14796875 -210.875 658.16796875 C-209.885 657.83796875 -208.895 657.50796875 -207.875 657.16796875 C-207.875 656.50796875 -207.875 655.84796875 -207.875 655.16796875 C-208.535 655.16796875 -209.195 655.16796875 -209.875 655.16796875 Z M-153.875 655.16796875 C-152.875 657.16796875 -152.875 657.16796875 -152.875 657.16796875 Z M281.125 655.16796875 C280.795 656.15796875 280.465 657.14796875 280.125 658.16796875 C280.785 658.16796875 281.445 658.16796875 282.125 658.16796875 C281.795 657.17796875 281.465 656.18796875 281.125 655.16796875 Z M-207.875 671.16796875 C-208.865 672.65296875 -208.865 672.65296875 -209.875 674.16796875 C-202.945 674.49796875 -196.015 674.82796875 -188.875 675.16796875 C-188.875 674.50796875 -188.875 673.84796875 -188.875 673.16796875 C-195.145 672.50796875 -201.415 671.84796875 -207.875 671.16796875 Z M249.125 673.16796875 C249.125 673.49796875 249.125 673.82796875 249.125 674.16796875 C252.425 674.16796875 255.725 674.16796875 259.125 674.16796875 C258.795 673.50796875 258.465 672.84796875 258.125 672.16796875 C255.01272805 672.16796875 252.18347848 672.62423924 249.125 673.16796875 Z M25.125 736.16796875 C25.125 737.15796875 25.125 738.14796875 25.125 739.16796875 C24.465 739.16796875 23.805 739.16796875 23.125 739.16796875 C23.125 739.82796875 23.125 740.48796875 23.125 741.16796875 C22.17625 741.45671875 21.2275 741.74546875 20.25 742.04296875 C17.07288422 742.93621984 17.07288422 742.93621984 15.125 745.16796875 C15.74419078 746.62877808 16.37056692 748.0865433 17 749.54296875 C17.34804688 750.35507812 17.69609375 751.1671875 18.0546875 752.00390625 C19.04946067 754.30599174 19.04946067 754.30599174 21.125 756.16796875 C24.98137233 757.33384876 26.9772024 757.21230803 30.875 756.04296875 C34.17377257 754.47256984 34.17377257 754.47256984 35.5625 751.91796875 C36.23875772 748.61181992 36.25697366 745.53329705 36.125 742.16796875 C33.155 741.17796875 30.185 740.18796875 27.125 739.16796875 C27.125 738.17796875 27.125 737.18796875 27.125 736.16796875 C26.465 736.16796875 25.805 736.16796875 25.125 736.16796875 Z M36.125 740.16796875 C37.125 742.16796875 37.125 742.16796875 37.125 742.16796875 Z M-85.875 741.16796875 C-86.205 742.48796875 -86.535 743.80796875 -86.875 745.16796875 C-87.65875 745.12671875 -88.4425 745.08546875 -89.25 745.04296875 C-92.03616119 744.88068141 -92.03616119 744.88068141 -93.875 747.16796875 C-94.16102162 751.31306308 -94.16102162 751.31306308 -92.875 755.16796875 C-89.905 755.16796875 -86.935 755.16796875 -83.875 755.16796875 C-83.875 750.54796875 -83.875 745.92796875 -83.875 741.16796875 C-84.535 741.16796875 -85.195 741.16796875 -85.875 741.16796875 Z M-61.875 741.16796875 C-61.545 742.15796875 -61.215 743.14796875 -60.875 744.16796875 C-60.215 743.50796875 -59.555 742.84796875 -58.875 742.16796875 C-59.865 741.83796875 -60.855 741.50796875 -61.875 741.16796875 Z M-16.875 741.16796875 C-17.205 742.48796875 -17.535 743.80796875 -17.875 745.16796875 C-18.65875 745.12671875 -19.4425 745.08546875 -20.25 745.04296875 C-23.03616119 744.88068141 -23.03616119 744.88068141 -24.875 747.16796875 C-25.16102162 751.31306308 -25.16102162 751.31306308 -23.875 755.16796875 C-20.905 755.16796875 -17.935 755.16796875 -14.875 755.16796875 C-14.875 750.54796875 -14.875 745.92796875 -14.875 741.16796875 C-15.535 741.16796875 -16.195 741.16796875 -16.875 741.16796875 Z M-8.875 741.16796875 C-8.875 745.78796875 -8.875 750.40796875 -8.875 755.16796875 C-6.956875 755.26078125 -6.956875 755.26078125 -5 755.35546875 C-4.28070313 755.39027344 -3.56140625 755.42507813 -2.8203125 755.4609375 C-2.17835938 755.36425781 -1.53640625 755.26757812 -0.875 755.16796875 C1.47514158 752.33039075 1.47514158 752.33039075 0.8125 749.04296875 C0.41855679 746.28710453 0.41855679 746.28710453 -0.875 745.16796875 C-2.54117115 745.12733043 -4.20888095 745.12524775 -5.875 745.16796875 C-6.205 743.84796875 -6.535 742.52796875 -6.875 741.16796875 C-7.535 741.16796875 -8.195 741.16796875 -8.875 741.16796875 Z M43.125 741.16796875 C40.91691919 746.363453 41.19097276 749.75061078 42.125 755.16796875 C43.115 755.16796875 44.105 755.16796875 45.125 755.16796875 C45.125 752.52796875 45.125 749.88796875 45.125 747.16796875 C46.115 747.16796875 47.105 747.16796875 48.125 747.16796875 C48.125 749.80796875 48.125 752.44796875 48.125 755.16796875 C48.785 755.16796875 49.445 755.16796875 50.125 755.16796875 C50.455 752.52796875 50.785 749.88796875 51.125 747.16796875 C52.445 747.16796875 53.765 747.16796875 55.125 747.16796875 C54.91875 747.93109375 54.7125 748.69421875 54.5 749.48046875 C53.79108797 752.38682819 53.79108797 752.38682819 56.125 755.16796875 C59.70857241 755.41812748 59.70857241 755.41812748 63.125 755.16796875 C63.455 754.17796875 63.785 753.18796875 64.125 752.16796875 C62.9184375 752.44640625 62.9184375 752.44640625 61.6875 752.73046875 C60.841875 752.87484375 59.99625 753.01921875 59.125 753.16796875 C58.795 752.83796875 58.465 752.50796875 58.125 752.16796875 C60.105 751.83796875 62.085 751.50796875 64.125 751.16796875 C63.74595792 747.87720879 63.74595792 747.87720879 62.125 745.16796875 C59.26232433 745.09471707 56.424281 745.0755867 53.5625 745.10546875 C52.75619141 745.10998047 51.94988281 745.11449219 51.11914062 745.11914062 C49.12106244 745.13096357 47.12302217 745.14889961 45.125 745.16796875 C45.125 744.50796875 45.125 743.84796875 45.125 743.16796875 C46.115 743.16796875 47.105 743.16796875 48.125 743.16796875 C48.125 742.50796875 48.125 741.84796875 48.125 741.16796875 C46.475 741.16796875 44.825 741.16796875 43.125 741.16796875 Z M88.125 741.16796875 C88.125 742.15796875 88.125 743.14796875 88.125 744.16796875 C88.785 744.16796875 89.445 744.16796875 90.125 744.16796875 C90.125 743.17796875 90.125 742.18796875 90.125 741.16796875 C89.465 741.16796875 88.805 741.16796875 88.125 741.16796875 Z M92.125 741.16796875 C92.125 745.78796875 92.125 750.40796875 92.125 755.16796875 C93.115 755.16796875 94.105 755.16796875 95.125 755.16796875 C95.125 753.84796875 95.125 752.52796875 95.125 751.16796875 C95.785 751.16796875 96.445 751.16796875 97.125 751.16796875 C97.785 752.48796875 98.445 753.80796875 99.125 755.16796875 C99.785 755.16796875 100.445 755.16796875 101.125 755.16796875 C100.774375 754.07484375 100.42375 752.98171875 100.0625 751.85546875 C99.125 748.16796875 99.125 748.16796875 100.125 745.16796875 C98.145 746.15796875 98.145 746.15796875 96.125 747.16796875 C95.795 745.18796875 95.465 743.20796875 95.125 741.16796875 C94.135 741.16796875 93.145 741.16796875 92.125 741.16796875 Z M-80.875 745.16796875 C-83.22514158 748.00554675 -83.22514158 748.00554675 -82.5625 751.29296875 C-82.16855679 754.04883297 -82.16855679 754.04883297 -80.875 755.16796875 C-78.54202567 755.20889812 -76.20794775 755.21038598 -73.875 755.16796875 C-73.545 754.17796875 -73.215 753.18796875 -72.875 752.16796875 C-74.0815625 752.44640625 -74.0815625 752.44640625 -75.3125 752.73046875 C-76.158125 752.87484375 -77.00375 753.01921875 -77.875 753.16796875 C-78.205 752.83796875 -78.535 752.50796875 -78.875 752.16796875 C-76.895 751.50796875 -74.915 750.84796875 -72.875 750.16796875 C-73.37256092 747.41155459 -73.37256092 747.41155459 -74.875 745.16796875 C-77.83304573 744.83456404 -77.83304573 744.83456404 -80.875 745.16796875 Z M-70.875 745.16796875 C-71.205 746.48796875 -71.535 747.80796875 -71.875 749.16796875 C-69.4 751.14796875 -69.4 751.14796875 -66.875 753.16796875 C-68.525 752.83796875 -70.175 752.50796875 -71.875 752.16796875 C-71.545 753.15796875 -71.215 754.14796875 -70.875 755.16796875 C-68.565 755.16796875 -66.255 755.16796875 -63.875 755.16796875 C-63.545 753.84796875 -63.215 752.52796875 -62.875 751.16796875 C-64.525 750.17796875 -66.175 749.18796875 -67.875 748.16796875 C-66.555 748.16796875 -65.235 748.16796875 -63.875 748.16796875 C-64.205 747.17796875 -64.535 746.18796875 -64.875 745.16796875 C-66.855 745.16796875 -68.835 745.16796875 -70.875 745.16796875 Z M-61.875 745.16796875 C-61.875 748.46796875 -61.875 751.76796875 -61.875 755.16796875 C-60.885 755.16796875 -59.895 755.16796875 -58.875 755.16796875 C-58.875 751.86796875 -58.875 748.56796875 -58.875 745.16796875 C-59.865 745.16796875 -60.855 745.16796875 -61.875 745.16796875 Z M-57.875 747.16796875 C-58.20833333 750.16796875 -58.20833333 750.16796875 -57.875 753.16796875 C-57.215 753.82796875 -56.555 754.48796875 -55.875 755.16796875 C-54.555 755.16796875 -53.235 755.16796875 -51.875 755.16796875 C-51.545 755.82796875 -51.215 756.48796875 -50.875 757.16796875 C-53.185 756.83796875 -55.495 756.50796875 -57.875 756.16796875 C-57.875 756.82796875 -57.875 757.48796875 -57.875 758.16796875 C-55.11249964 759.54921893 -52.92768901 759.35876181 -49.875 759.16796875 C-47.57439466 757.30507385 -47.57439466 757.30507385 -47.6796875 754.34765625 C-47.70289063 753.25710938 -47.72609375 752.1665625 -47.75 751.04296875 C-47.76804687 749.94726562 -47.78609375 748.8515625 -47.8046875 747.72265625 C-47.82789063 746.87960937 -47.85109375 746.0365625 -47.875 745.16796875 C-53.46164846 744.56375344 -53.46164846 744.56375344 -57.875 747.16796875 Z M-45.875 745.16796875 C-45.875 748.46796875 -45.875 751.76796875 -45.875 755.16796875 C-45.215 755.16796875 -44.555 755.16796875 -43.875 755.16796875 C-43.545 752.52796875 -43.215 749.88796875 -42.875 747.16796875 C-41.885 747.16796875 -40.895 747.16796875 -39.875 747.16796875 C-39.875 749.80796875 -39.875 752.44796875 -39.875 755.16796875 C-38.885 755.16796875 -37.895 755.16796875 -36.875 755.16796875 C-36.84810784 753.68889983 -36.82865379 752.20969392 -36.8125 750.73046875 C-36.80089844 749.90675781 -36.78929687 749.08304688 -36.77734375 748.234375 C-36.64232652 746.17632937 -36.64232652 746.17632937 -37.875 745.16796875 C-40.54558851 745.02681714 -43.19932238 745.12549768 -45.875 745.16796875 Z M-33.875 745.16796875 C-36.22514158 748.00554675 -36.22514158 748.00554675 -35.5625 751.29296875 C-35.16855679 754.04883297 -35.16855679 754.04883297 -33.875 755.16796875 C-31.54202567 755.20889812 -29.20794775 755.21038598 -26.875 755.16796875 C-26.545 754.17796875 -26.215 753.18796875 -25.875 752.16796875 C-27.0815625 752.44640625 -27.0815625 752.44640625 -28.3125 752.73046875 C-29.158125 752.87484375 -30.00375 753.01921875 -30.875 753.16796875 C-31.205 752.83796875 -31.535 752.50796875 -31.875 752.16796875 C-29.895 751.50796875 -27.915 750.84796875 -25.875 750.16796875 C-26.37256092 747.41155459 -26.37256092 747.41155459 -27.875 745.16796875 C-30.83304573 744.83456404 -30.83304573 744.83456404 -33.875 745.16796875 Z M1.125 745.16796875 C1.72424224 749.36266446 2.69999941 753.17796709 4.125 757.16796875 C3.135 757.16796875 2.145 757.16796875 1.125 757.16796875 C1.125 757.82796875 1.125 758.48796875 1.125 759.16796875 C3.5162295 759.37931405 3.5162295 759.37931405 6.125 758.16796875 C8.81153475 753.92787876 10.125 750.18899662 10.125 745.16796875 C9.465 745.16796875 8.805 745.16796875 8.125 745.16796875 C7.465 746.81796875 6.805 748.46796875 6.125 750.16796875 C5.444375 748.93046875 5.444375 748.93046875 4.75 747.66796875 C3.945625 746.43046875 3.945625 746.43046875 3.125 745.16796875 C2.465 745.16796875 1.805 745.16796875 1.125 745.16796875 Z M67.125 745.16796875 C64.77485842 748.00554675 64.77485842 748.00554675 65.4375 751.29296875 C65.83144321 754.04883297 65.83144321 754.04883297 67.125 755.16796875 C69.45797433 755.20889812 71.79205225 755.21038598 74.125 755.16796875 C74.455 754.17796875 74.785 753.18796875 75.125 752.16796875 C72.815 752.49796875 70.505 752.82796875 68.125 753.16796875 C68.125 752.50796875 68.125 751.84796875 68.125 751.16796875 C70.105 751.16796875 72.085 751.16796875 74.125 751.16796875 C74.8064823 749.27617672 74.8064823 749.27617672 75.125 747.16796875 C73.23840125 744.86134276 73.23840125 744.86134276 70.125 744.85546875 C69.135 744.95859375 68.145 745.06171875 67.125 745.16796875 Z M76.125 745.16796875 C76.125 749.78796875 76.125 754.40796875 76.125 759.16796875 C77.115 758.83796875 78.105 758.50796875 79.125 758.16796875 C79.125 757.17796875 79.125 756.18796875 79.125 755.16796875 C81.105 755.16796875 83.085 755.16796875 85.125 755.16796875 C86.50625018 752.40546839 86.31579306 750.22065776 86.125 747.16796875 C84.36363645 744.98465186 84.36363645 744.98465186 82.1796875 744.97265625 C79.15234375 745.0703125 79.15234375 745.0703125 76.125 745.16796875 Z M88.125 745.16796875 C88.125 748.46796875 88.125 751.76796875 88.125 755.16796875 C88.785 755.16796875 89.445 755.16796875 90.125 755.16796875 C90.125 751.86796875 90.125 748.56796875 90.125 745.16796875 C89.465 745.16796875 88.805 745.16796875 88.125 745.16796875 Z M108.25 746.29296875 C106.82711543 748.25273265 106.82711543 748.25273265 107.375 751.29296875 C107.83433524 754.04587716 107.83433524 754.04587716 109.125 755.16796875 C111.45797433 755.20889812 113.79205225 755.21038598 116.125 755.16796875 C116.455 753.84796875 116.785 752.52796875 117.125 751.16796875 C115.145 751.49796875 113.165 751.82796875 111.125 752.16796875 C111.125 750.84796875 111.125 749.52796875 111.125 748.16796875 C114.095 748.66296875 114.095 748.66296875 117.125 749.16796875 C116.465 747.84796875 115.805 746.52796875 115.125 745.16796875 C112.3601335 744.94379039 110.66222513 744.84563367 108.25 746.29296875 Z M118.125 747.16796875 C117.79166667 750.16796875 117.79166667 750.16796875 118.125 753.16796875 C120.01000271 755.48359962 120.01000271 755.48359962 123.125 755.41796875 C126.23999729 755.48359962 126.23999729 755.48359962 128.125 753.16796875 C128.45833333 750.16796875 128.45833333 750.16796875 128.125 747.16796875 C126.23999729 744.85233788 126.23999729 744.85233788 123.125 744.91796875 C120.01000271 744.85233788 120.01000271 744.85233788 118.125 747.16796875 Z M129.125 745.16796875 C129.125 748.46796875 129.125 751.76796875 129.125 755.16796875 C130.115 755.16796875 131.105 755.16796875 132.125 755.16796875 C132.24875 754.03359375 132.3725 752.89921875 132.5 751.73046875 C132.70625 750.55484375 132.9125 749.37921875 133.125 748.16796875 C133.785 747.83796875 134.445 747.50796875 135.125 747.16796875 C135.125 749.47796875 135.125 751.78796875 135.125 754.16796875 C136.115 754.49796875 137.105 754.82796875 138.125 755.16796875 C138.24875 754.03359375 138.3725 752.89921875 138.5 751.73046875 C138.70625 750.55484375 138.9125 749.37921875 139.125 748.16796875 C139.785 747.83796875 140.445 747.50796875 141.125 747.16796875 C141.455 749.80796875 141.785 752.44796875 142.125 755.16796875 C142.785 755.16796875 143.445 755.16796875 144.125 755.16796875 C144.125 752.19796875 144.125 749.22796875 144.125 746.16796875 C139.13854726 744.83824802 134.24722534 745.09967241 129.125 745.16796875 Z M103.125 753.16796875 C103.125 753.82796875 103.125 754.48796875 103.125 755.16796875 C104.115 755.16796875 105.105 755.16796875 106.125 755.16796875 C106.125 754.50796875 106.125 753.84796875 106.125 753.16796875 C105.135 753.16796875 104.145 753.16796875 103.125 753.16796875 Z " fill="#000000" transform="translate(374.875,11.83203125)"/>
<path d="M0 0 C8.91 1.65 17.82 3.3 27 5 C28.1753709 8.52611269 29.28500887 11.88732793 30.20166016 15.45947266 C30.41625381 16.29063599 30.63084747 17.12179932 30.85194397 17.97814941 C31.07869308 18.86450073 31.3054422 19.75085205 31.5390625 20.6640625 C32.03765523 22.59656507 32.5364421 24.52901756 33.03540039 26.46142578 C33.29467316 27.46788147 33.55394592 28.47433716 33.82107544 29.5112915 C36.18854391 38.68081693 38.59411948 47.84049132 41 57 C41.20212097 57.77102051 41.40424194 58.54204102 41.61248779 59.33642578 C46.46255676 77.80007773 52.61967292 95.39546296 60 113 C60.38892426 113.93126709 60.38892426 113.93126709 60.78570557 114.88134766 C76.61787758 152.77113351 95.6885871 189.12633015 119 223 C119.78869824 224.17645516 120.57639201 225.3535841 121.36328125 226.53125 C131.72823111 241.94438331 143.0054717 256.81684578 155 271 C155.64751221 271.7727124 155.64751221 271.7727124 156.30810547 272.56103516 C162.02458947 279.37676669 167.87896308 286.04837721 173.9375 292.5625 C174.5147583 293.18415039 175.0920166 293.80580078 175.68676758 294.44628906 C178.63540145 297.58898218 181.63724643 300.63784417 184.77734375 303.58984375 C185.68335327 304.45210571 185.68335327 304.45210571 186.60766602 305.33178711 C187.75298621 306.41287192 188.91298597 307.47869491 190.08959961 308.52563477 C193.09354739 311.3668001 193.9713569 312.68428934 194.3515625 316.875 C194.23554687 317.90625 194.11953125 318.9375 194 320 C180.1191959 310.12327401 168.38093948 297.53972395 156.3894043 285.51977539 C153.67935604 282.80433986 150.96396751 280.09432636 148.24804688 277.38476562 C146.50228324 275.63834158 144.75682963 273.89160756 143.01171875 272.14453125 C142.21054123 271.34537796 141.40936371 270.54622467 140.58390808 269.72285461 C126.00111296 255.07970081 113.13636637 238.70015846 101 222 C100.51321777 221.33033203 100.02643555 220.66066406 99.52490234 219.97070312 C72.13662033 182.10538803 49.07123815 140.75941382 30.125 98.0625 C29.70911621 97.12994385 29.29323242 96.1973877 28.86474609 95.23657227 C21.35667058 78.01085087 15.84657696 60.31192432 10.74584961 42.24511719 C9.68063827 38.47571882 8.60185759 34.71038997 7.52148438 30.9453125 C6.82992929 28.51585255 6.13914632 26.08617264 5.44921875 23.65625 C5.13152023 22.54769653 4.81382172 21.43914307 4.48649597 20.29699707 C4.18890884 19.23799194 3.89132172 18.17898682 3.5847168 17.08789062 C3.32603317 16.17479126 3.06734955 15.26169189 2.80082703 14.32092285 C1.66055954 9.59238568 0.87011307 4.7856219 0 0 Z " fill="#000000" transform="translate(554,24)"/>
<path d="M0 0 C-2.79992772 12.67149524 -6.20222475 25.12781 -9.84375 37.58178711 C-10.74297725 40.66343308 -11.62964047 43.74850887 -12.515625 46.83398438 C-17.79868923 65.0702903 -23.72227435 83.0407846 -31.9375 100.1875 C-32.70489502 101.81764038 -32.70489502 101.81764038 -33.48779297 103.48071289 C-34.51077658 105.6511575 -35.5376458 107.81977602 -36.56884766 109.98632812 C-37.86645566 112.71878687 -39.14653735 115.45841378 -40.41796875 118.203125 C-62.12832714 164.92377832 -90.10262457 208.40018748 -123 248 C-123.75796875 248.91676514 -123.75796875 248.91676514 -124.53125 249.85205078 C-130.49353143 257.03900656 -136.66466195 263.88581715 -143.37304688 270.38745117 C-146.14180997 273.08024211 -148.75800108 275.83275369 -151.27734375 278.76171875 C-155.55077309 283.70377189 -160.1297425 288.32117686 -164.75 292.9375 C-166.07463257 294.26201172 -166.07463257 294.26201172 -167.42602539 295.61328125 C-173.34917629 301.48470871 -179.34189896 306.96785233 -186 312 C-186.89847656 312.7321875 -187.79695313 313.464375 -188.72265625 314.21875 C-191 316 -191 316 -192 316 C-192.36817738 311.90532582 -192.5151519 309.72537763 -190.09155273 306.31274414 C-188.77586304 305.06158813 -188.77586304 305.06158813 -187.43359375 303.78515625 C-186.96188248 303.32572128 -186.4901712 302.86628632 -186.00416565 302.39292908 C-184.4976694 300.93198322 -182.96914577 299.49701348 -181.4375 298.0625 C-179.45154269 296.16323767 -177.47427299 294.25501367 -175.49609375 292.34765625 C-174.07224365 290.98060547 -174.07224365 290.98060547 -172.61962891 289.5859375 C-169.20736069 286.21755493 -166.07454928 282.67497995 -163 279 C-162.09981689 277.95498898 -161.19882252 276.91067604 -160.296875 275.8671875 C-154.15073936 268.64642078 -148.17966981 261.31485191 -142.39160156 253.80371094 C-141.47782573 252.61932921 -140.56060927 251.43759248 -139.63964844 250.25878906 C-125.05343869 231.56466892 -111.99107265 211.44269287 -100 191 C-99.52933105 190.19997559 -99.05866211 189.39995117 -98.57373047 188.57568359 C-90.59325338 174.95451392 -83.12050896 161.08896941 -76 147 C-75.61279785 146.2363916 -75.2255957 145.4727832 -74.82666016 144.68603516 C-69.7069937 134.49493598 -65.23483396 124.02368112 -60.84954834 113.50064087 C-60.25918337 112.08426669 -59.66659489 110.6688164 -59.0713501 109.25448608 C-49.78246811 87.118446 -43.22726635 64.24774241 -37.125 41.0625 C-36.45637506 38.54995824 -35.7871067 36.03758761 -35.1171875 33.52539062 C-34.47598019 31.11213381 -33.83533391 28.69872785 -33.1953125 26.28515625 C-32.75628098 24.6303701 -32.75628098 24.6303701 -32.30838013 22.94215393 C-31.07190593 18.24115993 -29.87974505 13.54843409 -28.86279297 8.79467773 C-28 5 -28 5 -27 4 C-25.17642751 3.63116443 -23.34169181 3.31717218 -21.50390625 3.02734375 C-20.38822266 2.85009766 -19.27253906 2.67285156 -18.12304688 2.49023438 C-16.94806641 2.30783203 -15.77308594 2.12542969 -14.5625 1.9375 C-13.39138672 1.75123047 -12.22027344 1.56496094 -11.01367188 1.37304688 C-2.29759043 0 -2.29759043 0 0 0 Z " fill="#000000" transform="translate(238,26)"/>
<path d="M0 0 C-10.28798406 43.77142853 -23.08133329 86.17227686 -42 127 C-42.80398334 128.76144596 -43.60743163 130.52313631 -44.41015625 132.28515625 C-49.61492888 143.60225397 -55.49883927 154.50994075 -61.55517578 165.39111328 C-62.88518862 167.79268766 -64.19488986 170.203823 -65.49609375 172.62109375 C-72.08134004 184.78945435 -79.44864847 196.41160588 -87 208 C-87.45906738 208.70785645 -87.91813477 209.41571289 -88.39111328 210.14501953 C-103.90597888 234.01725791 -121.16872666 256.58852753 -140.55566406 277.43798828 C-142.0967123 279.10459183 -143.6235008 280.78349131 -145.1484375 282.46484375 C-145.67638916 283.04427734 -146.20434082 283.62371094 -146.74829102 284.22070312 C-147.75676533 285.32755367 -148.76266472 286.43675847 -149.76538086 287.54882812 C-152.9537361 291.03245255 -156.31507771 294.04444194 -160 297 C-159.85852552 293.56230655 -159.71098846 290.12489706 -159.5625 286.6875 C-159.52318359 285.73037109 -159.48386719 284.77324219 -159.44335938 283.78710938 C-159.35795057 281.83584659 -159.26164535 279.88503345 -159.1550293 277.93481445 C-159.05294756 276.00233474 -158.97817493 274.06818835 -158.93286133 272.13354492 C-158.60738726 265.02953089 -156.6232689 260.69544608 -152.5625 254.9375 C-151.45580749 253.27598082 -150.35301695 251.61185682 -149.25390625 249.9453125 C-148.42656982 248.70249512 -148.42656982 248.70249512 -147.58251953 247.43457031 C-112.12387833 192.88449779 -92.46659972 125.34309556 -79.76171875 62.09375 C-79.58432159 61.21748962 -79.40692444 60.34122925 -79.22415161 59.43841553 C-78.37966397 55.25310248 -77.55798347 51.06549451 -76.77539062 46.86816406 C-76.47972015 45.36512539 -76.18352529 43.86218974 -75.88671875 42.359375 C-75.76930832 41.68418823 -75.65189789 41.00900146 -75.53092957 40.31335449 C-74.55389745 35.50384728 -72.68180075 33.16062608 -69 30 C-68.29101562 29.36578125 -67.58203125 28.7315625 -66.8515625 28.078125 C-59.70468615 22.21016337 -52.0523742 17.50015988 -44 13 C-43.4117041 12.67080566 -42.8234082 12.34161133 -42.21728516 12.00244141 C-29.13122516 4.79974981 -15.08529732 -0.30786321 0 0 Z " fill="#000000" transform="translate(207,31)"/>
<path d="M0 0 C17.17051015 1.85524806 32.97700485 8.8935269 48.73291016 15.60986328 C50.82953343 16.50197006 52.93046164 17.38406416 55.03662109 18.25341797 C57.72649952 19.36724976 60.39586392 20.51931887 63.0625 21.6875 C63.84737793 22.00686523 64.63225586 22.32623047 65.44091797 22.65527344 C66.1526416 22.97915039 66.86436523 23.30302734 67.59765625 23.63671875 C68.51816772 24.03443481 68.51816772 24.03443481 69.45727539 24.44018555 C72.03412257 27.04557827 72.31895768 30.51907643 73 34 C73.40520874 35.88561646 73.40520874 35.88561646 73.81860352 37.80932617 C74.09009777 39.13692285 74.36013699 40.46481772 74.62890625 41.79296875 C74.93956851 43.30665255 75.25070638 44.82023879 75.56225586 46.33374023 C75.72466766 47.12352264 75.88707947 47.91330505 76.05441284 48.72702026 C80.22771305 68.93678237 84.82352169 89.02302178 90 109 C90.2552948 109.98691833 90.2552948 109.98691833 90.51574707 110.99377441 C95.08653663 128.56285122 100.83391809 145.6259238 107 162.6875 C107.32912384 163.60290558 107.65824768 164.51831116 107.99734497 165.4614563 C112.74127148 178.59974562 118.11513809 191.33469099 124 204 C124.53157715 205.16297607 125.0631543 206.32595215 125.61083984 207.52416992 C133.40958715 224.5256565 141.80570032 241.78767847 152.81640625 256.98046875 C159.4028114 266.09637986 160.73851061 274.00001317 161 285 C161.01820801 285.6820752 161.03641602 286.36415039 161.05517578 287.06689453 C161.1339181 290.71528843 161.11598807 294.35281949 161 298 C153.92706359 293.9807375 149.06287866 288.13198254 143.80859375 282.0234375 C141.98840433 279.98702688 140.08487121 278.08915721 138.125 276.1875 C134.21050594 272.32570106 130.76994648 268.17776971 127.33203125 263.890625 C125.04005272 261.04964659 122.68186882 258.27654349 120.3125 255.5 C70.32782759 195.33468221 32.96612606 122.0141193 11.57989502 47.03192139 C10.95208522 44.83210915 10.3214665 42.63311071 9.69091797 40.43408203 C8.53190633 36.38565439 7.3833029 32.33438099 6.24139404 28.28109741 C5.79351987 26.69376741 5.34357231 25.10702077 4.89141846 23.52090454 C0.50533774 8.10377968 0.50533774 8.10377968 0 0 Z " fill="#000000" transform="translate(586,31)"/>
<path d="M0 0 C19.84584705 2.33480554 19.84584705 2.33480554 28.625 4.75 C29.60299561 5.01458008 30.58099121 5.27916016 31.58862305 5.55175781 C51.22501689 11.00909895 69.21277872 20.04097077 85 33 C85.55107422 33.44569336 86.10214844 33.89138672 86.66992188 34.35058594 C120.62160622 61.92450126 139.59032347 98.72258776 145 142 C145 148.6 145 155.2 145 162 C97.15 162 49.3 162 0 162 C0 108.54 0 55.08 0 0 Z M52 39 C51.67 40.65 51.34 42.3 51 44 C50.34 43.67 49.68 43.34 49 43 C48.67 43.99 48.34 44.98 48 46 C47.01 46.66 46.02 47.32 45 48 C45.639375 48.28875 46.27875 48.5775 46.9375 48.875 C49 50 49 50 50 52 C50.33 51.67 50.66 51.34 51 51 C51.33 52.32 51.66 53.64 52 55 C52.66 55 53.32 55 54 55 C54.37125 53.5459375 54.37125 53.5459375 54.75 52.0625 C55.1625 51.051875 55.575 50.04125 56 49 C58.125 48.125 58.125 48.125 60 48 C59.21625 47.814375 58.4325 47.62875 57.625 47.4375 C55 46 55 46 53.6875 42.375 C53.3471875 40.704375 53.3471875 40.704375 53 39 C52.67 39 52.34 39 52 39 Z M19 91 C22.32706638 92.0328097 25.16123083 91.9815758 28.625 91.8125 C36.03541848 91.74916309 41.44783166 93.90099143 47.75 97.625 C53.83221473 104.04511555 57.84820191 111.70986658 58.0625 120.58984375 C57.59334922 131.04310965 53.00162501 138.50988952 46 146 C54.63591772 145.72142201 60.63354329 142.96647594 67.046875 137.140625 C73.78278745 129.94413734 77.1216305 121.8824782 77 112 C76.18923626 102.5893495 72.63429055 95.20797472 65.8125 88.6875 C57.60977829 81.93944815 50.1298569 80.2980174 39.5546875 80.6171875 C31.21091581 81.51574753 25.36416947 85.79768164 19 91 Z M108 132 C108 132.99 108 133.98 108 135 C106.02 135.99 106.02 135.99 104 137 C104.99 138.485 104.99 138.485 106 140 C106.66 140 107.32 140 108 140 C108.33 140.66 108.66 141.32 109 142 C109 141.34 109 140.68 109 140 C109.66 140 110.32 140 111 140 C111 139.34 111 138.68 111 138 C111.66 137.67 112.32 137.34 113 137 C112.34 137 111.68 137 111 137 C110.67 136.01 110.34 135.02 110 134 C109.34 133.34 108.68 132.68 108 132 Z " fill="#000000" transform="translate(412,60)"/>
<path d="M0 0 C0 53.46 0 106.92 0 162 C-47.85 162 -95.7 162 -145 162 C-145 122.11868871 -134.78323934 85.3333667 -108 55 C-107.16984375 54.03707031 -106.3396875 53.07414062 -105.484375 52.08203125 C-80.07595186 23.09091216 -39.3547462 0 0 0 Z M-26 34 C-26 34.99 -26 35.98 -26 37 C-27.98 37.99 -27.98 37.99 -30 39 C-29.01 40.485 -29.01 40.485 -28 42 C-27.34 42 -26.68 42 -26 42 C-25.67 42.66 -25.34 43.32 -25 44 C-25 43.34 -25 42.68 -25 42 C-24.34 42 -23.68 42 -23 42 C-23 41.34 -23 40.68 -23 40 C-22.34 39.67 -21.68 39.34 -21 39 C-21.66 39 -22.32 39 -23 39 C-23.33 38.01 -23.66 37.02 -24 36 C-24.66 35.34 -25.32 34.68 -26 34 Z M-65 84 C-65.66 87.63 -66.32 91.26 -67 95 C-67.99 94.01 -68.98 93.02 -70 92 C-70.99 92.495 -70.99 92.495 -72 93 C-71.01 94.65 -70.02 96.3 -69 98 C-70.11375 98.12375 -71.2275 98.2475 -72.375 98.375 C-76.03103677 98.6465813 -76.03103677 98.6465813 -78 101 C-75.03 101.33 -72.06 101.66 -69 102 C-69.66 103.98 -70.32 105.96 -71 108 C-69.68 107.01 -68.36 106.02 -67 105 C-66.87882812 105.63808594 -66.75765625 106.27617187 -66.6328125 106.93359375 C-66.46523438 107.75988281 -66.29765625 108.58617187 -66.125 109.4375 C-65.88136719 110.67306641 -65.88136719 110.67306641 -65.6328125 111.93359375 C-65.42398438 112.61550781 -65.21515625 113.29742187 -65 114 C-64.34 114.33 -63.68 114.66 -63 115 C-62.505 110.545 -62.505 110.545 -62 106 C-60.35 106.66 -58.7 107.32 -57 108 C-57.66 106.02 -58.32 104.04 -59 102 C-56.36 102 -53.72 102 -51 102 C-53.52956528 98.9083091 -56.22454612 98.09068668 -60 97 C-59.67 95.35 -59.34 93.7 -59 92 C-59.99 92.33 -60.98 92.66 -62 93 C-62.66 90.03 -63.32 87.06 -64 84 C-64.33 84 -64.66 84 -65 84 Z M-109 117 C-109 117.99 -109 118.98 -109 120 C-110.98 120.99 -110.98 120.99 -113 122 C-112.01 123.485 -112.01 123.485 -111 125 C-110.34 125 -109.68 125 -109 125 C-108.67 125.66 -108.34 126.32 -108 127 C-108 126.34 -108 125.68 -108 125 C-107.34 125 -106.68 125 -106 125 C-106 124.34 -106 123.68 -106 123 C-105.34 122.67 -104.68 122.34 -104 122 C-104.66 122 -105.32 122 -106 122 C-106.33 121.01 -106.66 120.02 -107 119 C-107.66 118.34 -108.32 117.68 -109 117 Z M-25 144 C-25 144.99 -25 145.98 -25 147 C-26.98 147.99 -26.98 147.99 -29 149 C-28.01 150.485 -28.01 150.485 -27 152 C-26.34 152 -25.68 152 -25 152 C-24.67 152.66 -24.34 153.32 -24 154 C-24 153.34 -24 152.68 -24 152 C-23.34 152 -22.68 152 -22 152 C-22 151.34 -22 150.68 -22 150 C-21.34 149.67 -20.68 149.34 -20 149 C-20.66 149 -21.32 149 -22 149 C-22.33 148.01 -22.66 147.02 -23 146 C-23.66 145.34 -24.32 144.68 -25 144 Z " fill="#000000" transform="translate(388,60)"/>
<path d="M0 0 C4.32073145 1.46154132 7.64292954 3.76635722 11.1875 6.5625 C11.75629883 7.00650146 12.32509766 7.45050293 12.91113281 7.90795898 C18.15473837 12.04358451 23.1410564 16.41824445 28 21 C28.74765625 21.68320313 29.4953125 22.36640625 30.265625 23.0703125 C42.93722029 35.07731363 49.88680151 48.86568857 56 65 C56.32097656 65.84449707 56.64195312 66.68899414 56.97265625 67.55908203 C71.01452581 105.27090222 74.40848353 146.65359598 78.875 186.375 C78.97845734 187.28578308 79.08191467 188.19656616 79.18850708 189.13494873 C80.57039166 201.41256382 81.4817809 213.65584534 82 226 C79.35327607 223.48901449 77.28607571 221.13056372 75.4765625 217.96484375 C75.01999268 217.16941162 74.56342285 216.37397949 74.09301758 215.55444336 C73.60857178 214.69085205 73.12412598 213.82726074 72.625 212.9375 C72.10897217 212.02427979 71.59294434 211.11105957 71.0612793 210.17016602 C66.85413878 202.65835713 62.80071349 195.06748162 58.8125 187.4375 C58.2673877 186.40036865 57.72227539 185.3632373 57.16064453 184.29467773 C48.81524845 168.15635525 41.8552509 151.62163097 35.86962891 134.47363281 C34.87678241 131.63010485 33.87113928 128.79136276 32.86328125 125.953125 C26.5532317 108.10159349 20.59337248 90.1226652 15.75 71.8125 C15.57211945 71.14395996 15.39423889 70.47541992 15.21096802 69.78662109 C10.17244726 50.73568352 6.17164884 31.42969983 2.08984375 12.15625 C1.87780807 11.15889328 1.6657724 10.16153656 1.4473114 9.13395691 C1.25578995 8.22156754 1.06426849 7.30917816 0.86694336 6.36914062 C0.69867538 5.57012329 0.53040741 4.77110596 0.35704041 3.94787598 C0 2 0 2 0 0 Z " fill="#000000" transform="translate(662,61)"/>
<path d="M0 0 C1.4019279 4.20578369 0.17239373 7.63418263 -0.80859375 11.828125 C-1.11071022 13.16009918 -1.11071022 13.16009918 -1.41893005 14.51898193 C-2.08272541 17.43148538 -2.75914636 20.34085518 -3.4375 23.25 C-3.6678595 24.24628418 -3.89821899 25.24256836 -4.13555908 26.26904297 C-5.73463645 33.18472275 -7.36125993 40.09362433 -9 47 C-9.1840741 47.78028564 -9.36814819 48.56057129 -9.55780029 49.36450195 C-14.56375334 70.56744912 -20.99788902 91.1171503 -28.18682861 111.66351318 C-29.00048504 114.00139368 -29.80234681 116.34301607 -30.60107422 118.68603516 C-41.56375294 150.76263784 -55.25565289 184.18147112 -75 212 C-75.33 212 -75.66 212 -76 212 C-75.47895285 202.10679655 -74.31217257 192.5025002 -72.5625 182.75 C-72.43639343 182.03900146 -72.31028687 181.32800293 -72.18035889 180.59545898 C-67.06763737 152.02072132 -60.33642538 123.49827997 -51 96 C-50.68885254 95.06961914 -50.37770508 94.13923828 -50.05712891 93.18066406 C-45.04467306 78.32222019 -38.84812001 64.09934958 -32 50 C-31.55785156 49.08831055 -31.11570313 48.17662109 -30.66015625 47.23730469 C-22.3771964 30.3580089 -12.76306752 13.9021111 0 0 Z " fill="#000000" transform="translate(127,71)"/>
<path d="M0 0 C0.5497272 5.63470383 -1.04952165 8.38987758 -4 13 C-4.33 13 -4.66 13 -5 13 C-5.08086147 11.20906809 -5.13912702 9.41710372 -5.1875 7.625 C-5.22230469 6.62726563 -5.25710937 5.62953125 -5.29296875 4.6015625 C-5.14794922 3.31378906 -5.14794922 3.31378906 -5 2 C-2 0 -2 0 0 0 Z " fill="#000000" transform="translate(50,347)"/>
<path d="M0 0 C2.86724686 0.57344937 3.8614515 0.8614515 6 3 C6.1953125 5.3828125 6.1953125 5.3828125 6.125 8.125 C6.10695313 9.03507812 6.08890625 9.94515625 6.0703125 10.8828125 C6.04710937 11.58148438 6.02390625 12.28015625 6 13 C2.50586395 10.13301658 0.71163126 8.15849852 0.1875 3.6875 C0.125625 2.470625 0.06375 1.25375 0 0 Z " fill="#000000" transform="translate(742,347)"/>
<path d="M0 0 C2.99167566 4.48751349 2.36836911 8.78099266 2.375 14.0625 C2.39949219 15.06216797 2.42398438 16.06183594 2.44921875 17.09179688 C2.47630373 24.03909434 1.54215616 29.93028591 -2 36 C-4.75 38.625 -4.75 38.625 -7 40 C-7.06308278 32.66589866 -7.05812146 25.3341174 -7 18 C-6.99613281 16.79085938 -6.99226563 15.58171875 -6.98828125 14.3359375 C-6.7488163 8.47317496 -5.44979274 5.3366153 -1.27734375 1.14453125 C-0.85582031 0.76683594 -0.43429688 0.38914062 0 0 Z " fill="#000000" transform="translate(50,361)"/>
<path d="M0 0 C1.14626322 0.97866338 2.29199788 1.95794587 3.4375 2.9375 C4.07558594 3.48277344 4.71367188 4.02804687 5.37109375 4.58984375 C8.35819193 7.17579685 8.22695102 8.44027057 8.53515625 12.46875 C8.62216797 13.59796875 8.70917969 14.7271875 8.79882812 15.890625 C8.88583984 17.08171875 8.97285156 18.2728125 9.0625 19.5 C9.15337891 20.66015625 9.24425781 21.8203125 9.33789062 23.015625 C9.81547782 29.3643029 10.10202103 35.63388787 10 42 C3.85754668 37.53276122 0.57863548 32.46986548 -1 25 C-1.09000848 23.38731971 -1.13062644 21.77143868 -1.1328125 20.15625 C-1.13410156 19.23972656 -1.13539063 18.32320313 -1.13671875 17.37890625 C-1.13285156 16.42886719 -1.12898437 15.47882813 -1.125 14.5 C-1.12886719 13.54996094 -1.13273438 12.59992188 -1.13671875 11.62109375 C-1.13542969 10.70457031 -1.13414062 9.78804688 -1.1328125 8.84375 C-1.13168457 8.01037109 -1.13055664 7.17699219 -1.12939453 6.31835938 C-1.00464558 4.08323482 -0.62140725 2.14499663 0 0 Z " fill="#000000" transform="translate(741,361)"/>
<path d="M0 0 C1.98 0.495 1.98 0.495 4 1 C4 2.32 4 3.64 4 5 C3.01 5.33 2.02 5.66 1 6 C-0.0625 4.125 -0.0625 4.125 -1 2 C-0.67 1.34 -0.34 0.68 0 0 Z " fill="#000000" transform="translate(396,755)"/>
<path d="M0 0 C1.98 0.495 1.98 0.495 4 1 C3.67 2.65 3.34 4.3 3 6 C2.01 6 1.02 6 0 6 C-1.125 2.25 -1.125 2.25 0 0 Z " fill="#000000" transform="translate(284,759)"/>
<path d="M0 0 C0.99 0.33 1.98 0.66 3 1 C2.67 2.65 2.34 4.3 2 6 C1.01 5.67 0.02 5.34 -1 5 C-0.67 3.35 -0.34 1.7 0 0 Z " fill="#000000" transform="translate(321,759)"/>
<path d="M0 0 C1.98 0.495 1.98 0.495 4 1 C3.67 2.65 3.34 4.3 3 6 C2.01 6 1.02 6 0 6 C-1.125 2.25 -1.125 2.25 0 0 Z " fill="#000000" transform="translate(353,759)"/>
<path d="M0 0 C1.98 0.495 1.98 0.495 4 1 C3.67 2.65 3.34 4.3 3 6 C2.01 6 1.02 6 0 6 C-1.125 2.25 -1.125 2.25 0 0 Z " fill="#000000" transform="translate(369,759)"/>
<path d="M0 0 C0.99 0 1.98 0 3 0 C4.125 3.75 4.125 3.75 3 6 C1.68 5.67 0.36 5.34 -1 5 C-0.67 3.35 -0.34 1.7 0 0 Z " fill="#000000" transform="translate(455,759)"/>
<path d="M0 0 C0.99 0 1.98 0 3 0 C4.125 3.75 4.125 3.75 3 6 C1.68 6 0.36 6 -1 6 C-1.042721 4.33388095 -1.04063832 2.66617115 -1 1 C-0.67 0.67 -0.34 0.34 0 0 Z " fill="#000000" transform="translate(497,759)"/>
</svg>
