<?xml version="1.0" encoding="utf-8"?>
<svg version="1.1" id="bistro" xmlns="http://www.w3.org/2000/svg" xmlns:xlink="http://www.w3.org/1999/xlink" x="0px" y="0px"
	 viewBox="0 0 1000 1000" style="enable-background:new 0 0 1000 1000;" xml:space="preserve">
<path fill="blue" stroke="blue" stroke-width="5" id="_x31_" d="M409.1,691c0.4,0.5,0.7,1.1,1.2,1.5c4,3.1,6.6,7.3,8.4,12c1.6,4.2,2.2,8.6,2.1,13.1c-0.1,5.5-0.7,11-1.9,16.4
	c-0.9,3.9-2,7.8-2.9,11.8c-1.1,4.8-2,9.7-3,14.5c-1.6,7.5-1.5,15.1-0.9,22.7c0.3,3.6,1.1,7.2,1.9,10.8c0.8,3.6,1.8,7.1,2.8,10.6
	c0.4,1.3,0.8,2.6,1.3,3.9c0.4,1.1,0.8,1.4,2,1.3c0.5,0,1-0.1,1.5-0.2c3.9-0.8,7.8-1.5,11.6-2.4c5.9-1.5,11.5-3.7,16.8-6.5
	c11.5-6,20.5-14.6,27.1-25.8c4.1-6.8,6.8-14.2,8.7-21.9c1.3-5.4,2.3-10.8,3-16.3c0.4-3.2,0.1-3.5-3-3.4c-2.2,0-4.3,0.1-6.5,0.1
	c-1.2,0-2.4-0.2-3.5-0.3c-2.2-0.3-3.7-2.1-4.1-4.8c-0.3-1.9,1.2-4.4,3.1-5.3c1.2-0.6,2.4-0.8,3.7-0.7c2.6,0,5.1,0,7.7,0
	c0.7,0,1.4,0,2.1-0.1c1.1-0.1,1.6-0.6,1.6-1.7c0.1-1.3,0.1-2.6,0.1-3.9c-0.1-27-0.1-53.9-0.2-80.9c0-8,0-16,0-24c0-0.5,0-1,0-1.5
	c-0.1-1.2-0.5-1.6-1.6-1.7c-0.7,0-1.4,0-2.1,0c-29.7,0-59.5,0-89.2,0c-9.1,0-18.2,0-27.3,0c-2.7,0-5.3-0.6-7.7-1.8
	c-3.5-1.7-5.7-4.5-7.2-7.9c-2.2-5-2-10,0.3-14.9c2.2-4.8,6.2-7.5,11.1-9.1c2.3-0.7,4.6-1,7-0.9c10.3,0,20.5,0,30.8,0
	c1,0,2.2,0.3,3.3-0.5c-0.3-0.4-0.5-0.7-0.8-0.8c-5-1.9-7.5-5.8-8.9-10.7c-0.3-1-0.2-2.2-1.3-3c-0.3,0.1-0.7,0.1-1,0.3
	c-2.9,1.9-6.1,1.4-9.2,1.2c-0.3,0-0.6-0.1-0.9-0.2c-3.3-1.6-5.7-4.1-6.5-7.6c-1.1-4.8,0.6-8.7,5.2-11.2c2.6-1.4,5.4-1.9,8.3-0.6
	c0.2,0.1,0.4,0.1,0.6,0.2c0.8,0.2,1.4-0.2,1.5-1c0-0.6,0-1.2,0-1.8c-0.1-2.3-0.2-4.5-0.2-6.8c0-1.7,0.3-2,2.1-2c5.8,0,11.7,0,17.5,0
	c10.7,0,21.3,0,32,0c0.6,0,1.2,0,1.8,0c1.1,0.1,1.6,0.6,1.7,1.7c0.1,0.8,0.1,1.6,0.1,2.4c-0.3,5.3-0.4,10.7-1,16
	c-0.5,4.8-1.4,9.6-3.1,14.1c-1.4,3.8-3.6,6.7-7.2,8.7c-0.4,0.2-0.8,0.6-1.3,1c0.5,0.3,0.8,0.6,1.1,0.7c0.6,0.1,1.2,0.1,1.8,0.1
	c26.7-0.1,53.3-0.2,80-0.2c25.1,0,50.2,0.1,75.3,0.2c6.8,0,13.6,0,20.4-0.1c3.5,0,6.7,0.8,9.6,2.5c5.9,3.5,9.1,8.8,9.1,15.6
	c0,4.4-1.7,8.3-4.5,11.7c-2.6,3.2-6.3,4.3-10.2,4.8c-1.5,0.2-3,0.1-4.4,0.1c-36.9,0-73.9,0-110.8-0.1c-0.2,0-0.4,0-0.6,0
	c-2.5,0-2.7,0.2-2.7,2.7c0,19.4,0,38.7,0,58.1c0,16.4,0,32.8,0,49.2c0,0.8,0,1.6,0.1,2.4c0.1,0.7,0.5,1.1,1.2,1.2
	c0.8,0.1,1.6,0.1,2.4,0.1c2.7,0,5.3,0,8,0c2.1,0,3.7,0.9,5.2,2.5c2,2.2,1,7.1-2,8.3c-1.1,0.5-2.3,0.7-3.5,0.7c-2.5,0-4.9,0-7.4-0.1
	c-0.6,0-1.2,0-1.8,0c-0.8,0.1-1.2,0.6-1.2,1.4c0,0.7,0.1,1.4,0.1,2.1c0.8,7.5,2.1,14.8,4.4,22c1.9,5.9,4.1,11.7,7.5,17
	c8,12.9,19.1,22.3,33.2,27.9c4.3,1.7,8.7,3.2,13.2,4.3c2.5,0.6,5,1,7.6,1.5c0.7,0.1,1.4,0.2,2.1,0.2c0.9,0,1.5-0.5,1.8-1.3
	c1.5-4.3,2.7-8.7,3.6-13.1c0.8-3.8,1.4-7.6,2-11.4c0.8-5.8,0.8-11.6,0-17.4c-0.5-3.8-1.1-7.6-1.8-11.4c-0.5-2.5-1.1-5-1.7-7.5
	c-1.4-6.3-2.9-12.5-4.1-18.8c-1.1-5.8-1.3-11.8-0.3-17.7c1.2-7.3,4.6-13.4,10.2-18.2c0.7-0.6,1.5-0.9,1.7-2.2
	c-0.6-0.4-1.2-0.9-1.8-1.2c-2-1-3.6-2.5-4.7-4.4c-2.2-3.4-2-6.7,1.1-9.6c1.9-1.8,4.1-3.1,6.5-4.1c3.1-1.3,6.3-2.2,9.6-2.9
	c11.6-2.3,23.4-2.2,35.1-1.4c1.8,0.1,3.5,0.2,5.3,0.3c4.3,0.1,8.7,0.2,13,0.9c0.1,0,0.2,0,0.3,0c7,0.2,14,1.2,21,1.7
	c2,0.1,3.9,0.4,5.9,0.6c0.5,0.1,1,0.2,1.5,0.2c4.8,0.5,9.6,0.9,14.4,1.4c3,0.3,6.1,0.7,9.1,1c2.9,0.3,3.1,0.1,3-2.7
	c0-0.8-0.1-1.6-0.1-2.4c-0.4-4.6-0.8-9.2-1.2-13.9c-0.8-10.2-1.6-20.5-2.3-30.7c-0.9-12.5-0.7-25.1,0.4-37.6
	c0.6-6.2,1.6-12.3,3.1-18.4c1.5-6.2,3.5-12.3,6.2-18.2c8-17.5,20.7-30.3,38.2-38.4c6.2-2.9,12.7-4.9,19.3-6.4
	c8.8-2,17.7-3.3,26.6-4.1c4.2-0.4,8.5-0.4,12.7-0.3c3.4,0,6.7,0.8,9.8,2.2c5.3,2.4,9,6.3,10.9,11.8c0.4,1.1,0.5,2.3,0.6,3.5
	c0.4,5.2-0.7,10-3,14.6c-1.9,3.9-3.9,7.8-5.8,11.6c-4.4,9-8.2,18.4-11.7,27.8c-3.1,8.1-5.5,16.5-8,24.8c-1.6,5.4-2.8,10.9-4.1,16.4
	c-1.1,4.8-2.2,9.6-3.1,14.5c-1.1,5.5-2,11.1-2.9,16.6c-0.6,3.3-1.1,6.6-1.7,9.9c-0.6,3.6-1.1,7.2-1.6,10.8c-0.5,3.9-1,7.8-1.4,11.8
	c-0.1,0.9-0.3,1.8,0.3,2.8c1.7,0.7,3.5,1.4,5.3,2.2c4.4,1.9,8.4,4.4,12.2,7.2c3.6,2.6,7.2,5.3,10.8,7.8c0.9,0.7,2,1.2,3.2,1.8
	c0.5-0.7,1-1.2,1.2-1.7c0.7-1.3,1.3-2.7,1.9-4c0.5-1,0.4-1.5-0.4-2.4c-2.2-2.4-4.4-4.8-6.5-7.3c-3.1-3.8-5.6-7.9-6.8-12.7
	c-0.4-1.6-0.7-3.3-0.8-5c-0.4-4.5-0.1-8.9,1-13.2c1.1-4.2,2-8.4,3-12.7c0.1-0.4,0.4-0.8,0.7-1.4c0.6,0.3,1.3,0.4,1.7,0.8
	c4.6,4.2,8.8,8.8,11.8,14.4c3.3,6.2,4.1,12.8,3.1,19.6c-0.6,4.2-1.6,8.3-2.4,12.5c-0.1,0.4,0,0.7,0.1,1.1c0,0.1,0.1,0.1,0.3,0.2
	c0.2-0.1,0.6-0.1,0.7-0.3c2.9-3.4,5.8-6.7,8.7-10.1c2.2-2.6,3.6-5.6,5.1-8.7c0.4-0.8,0.4-1.7,0.3-2.6c0-3.2-0.2-6.3-0.3-9.5
	c0-1.9-0.1-3.8-0.1-5.6c0-1.4-0.4-1.8-1.8-1.8c-1.9,0-3.7-0.1-5.6-0.6c-2.7-0.7-4.8-2.2-6.7-4.1c-2.8-2.8-5.1-6-7.2-9.4
	c-0.7-1.2-1.4-2.4-2.1-3.6c-0.6-1-0.1-1.8,1-1.8c4.2,0.3,8.5,0.7,12.6,1.8c2.7,0.7,5.1,2,7.4,3.7c0.6,0.4,1.3,0.8,2.1,1.4
	c0.3-0.6,0.6-1.1,0.6-1.5c0.1-2.3,0-4.5,0-6.8c0-34.3-0.1-68.5-0.1-102.8c0-86.1,0-172.2,0-258.4c0-6.9-0.1-13.8-0.1-20.7
	c0-3.3,0.2-3.5,3.5-3.6c1.7,0,3.4,0,5,0.1c1.3,0.1,1.7,0.6,1.8,1.9c0.1,0.7,0,1.4,0,2.1c0,37,0,74.1,0.1,111.1
	c0,72.8,0.1,145.6,0.2,218.4c0,20.3,0,40.7,0.1,61c0.1,13.5,0.4,27.1,0.6,40.6c0,1.6,0,3.2,0,4.7c0,0.5,0.1,0.9,0.1,1.3
	c0.6,0.4,0.9,0,1.1-0.3c0.4-0.5,0.8-1.1,1.2-1.7c2.6-3.7,5.9-6.3,10.3-7.5c0.9-0.2,1.7-0.6,2.6-0.7c0.4-0.1,0.9,0.1,1.3,0.1
	c0.1,0.4,0.3,0.6,0.2,0.7c-1.2,3.1-1.5,6.3-2.1,9.5c-0.7,3.3-1.1,6.6-1.8,9.9c-0.5,2.5-1.1,5-1.6,7.5c-0.1,0.5-0.2,0.9-0.3,1.6
	c2.3,0.8,4.5,0.5,6.6,0.1c1.4-3.8,3.8-6.8,5.7-10.2c1.5-2.6,3.2-5,5.2-7.2c4.4-4.8,9.8-7.5,16.4-7.7c5.7-0.2,11.2,0.8,16.5,2.8
	c0.2,0.1,0.3,0.3,0.5,0.6c-0.1,0.3-0.2,0.8-0.5,1.1c-3.8,4.3-8.2,7.7-13.9,9.1c-4.6,1.1-9.2,2.3-13.7,3.7c-3,0.9-6,2-8.7,3.6
	c-1.4,0.8-2.8,1.5-4.1,2.3c-0.4,0.2-0.6,0.7-0.8,1c0.4,0.9,1,0.7,1.6,0.7c5.1-0.1,10.3-0.2,15.4-0.3c2.4,0,4.7,0,7.1,0.1
	c0.9,0,1.8,0.1,2.6,0.4c2.4,0.7,3.4,3.7,1.9,5.7c-0.3,0.4-0.9,0.8-1.5,0.9c-1.2,0.2-2.4,0.3-3.5,0.3c-9.4,0-18.8,0-28.1,0
	c-4.7,0-9.5,0-14.2,0c-1.5,0-1.9,0.4-2,1.9c-0.1,2.1-0.1,4.1-0.1,6.2c0,1.3,0.6,1.8,1.8,1.8c2.1,0.1,4.1,0.1,6.2,0.1
	c9.8,0,19.6,0,29.3,0c2.4,0,4.7,0.1,7.1,0.1c0.6,0,1.2,0,1.8,0.1c1.1,0.2,1.6,0.7,1.4,1.8c-0.1,0.8-0.2,1.6-0.5,2.3
	c-1,3.4-2.1,6.8-3.1,10.2c-1,3.3-1.8,6.7-2.7,10c-0.5,1.7-0.9,3.4-1.3,5.2c-0.3,1-0.7,1.4-1.7,1.3c-3.2-0.5-6.5-0.3-9.8-0.3
	c-20.6,0-41.3,0.1-61.9,0.1c-3.5,0-6.9,0.1-10.4,0.1c-0.7,0-1.4,0-2.1,0c-1.1,0-1.8-0.5-2.2-1.6c-0.7-2.5-1.4-4.9-2.2-7.4
	c-1.5-5.1-3-10.2-4.5-15.3c-0.4-1.5-0.9-3-1.3-4.6c-0.2-0.9,0.2-1.6,1.1-1.7c0.8-0.1,1.6-0.1,2.4-0.1c2.9,0,5.7,0,8.6,0
	c0.5,0,1,0,1.4-0.1c0.3-0.1,0.5-0.6,0.5-0.9c0-0.4-0.3-0.7-0.5-1c-1.4-1.7-2-3.6-1.9-5.8c0-0.4,0-0.8-0.1-1.2
	c-0.1-1-0.5-1.4-1.5-1.4c-2.1-0.1-4.1-0.1-6.2-0.1c-0.8,0-1.6,0-2.4-0.1c-0.9-0.1-1.4-0.7-1.5-1.6c-0.1-0.4-0.1-0.8-0.1-1.2
	c0-2.9,0.9-3.9,3.9-3.9c1.5,0,3,0.1,4.4,0.1c3.7,0,7.3,0.1,11,0.1c0.4,0,0.8,0,1.2-0.1c0.3-0.1,0.7-0.4,0.8-0.7
	c0.1-0.3-0.1-0.8-0.3-1c-0.3-0.4-0.7-0.7-1.1-0.9c-3.6-2.6-7.3-5.1-10.9-7.7c-4-2.9-8.1-5.7-12.6-7.7c-1.3-0.5-2.5-1.1-3.9-1.5
	c-1.2-0.4-1.9,0-2.1,1.3c0,0.1,0,0.2,0,0.3c-0.4,5.4-0.9,10.8-1.3,16.2c-0.2,3.3-0.4,6.7-0.6,10.1c-1,15.9-1.4,31.8-0.9,47.7
	c0.1,2.1,0.1,4.1,0.2,6.2c0.1,1.3,0.5,1.7,1.8,1.8c0.8,0.1,1.6,0.2,2.4,0.2c3.5,0.3,5.3,4.4,4.1,7.8c-0.3,0.8-1.2,1.6-2,2.1
	c-0.9,0.6-2,1-3,1.1c-1.9,0.1-2.2,0.8-2,2.4c0.4,2.4,0.7,4.9,1.3,7.3c1.4,6,2.8,11.9,4.4,17.8c1.5,5.7,3.2,11.4,5,17
	c3.1,9.6,6.5,19,10.4,28.3c0.5,1.3,1,2.6,1.3,3.9c0.4,1.7-0.2,3.1-1.7,4.1c-3.1,2-6.9,1.3-8.7-2c-0.9-1.6-1.6-3.4-2.4-5.1
	c-2.8-6.1-4.9-12.5-7.1-18.8c-1.5-4.3-2.7-8.7-4-13c-1-3.2-2-6.4-2.8-9.6c-1.1-4.1-2.2-8.2-3.1-12.3c-1.1-5.2-1.9-10.5-2.8-15.7
	c-0.1-0.7-0.3-1.4-0.4-2c-0.3-2.4-1.1-2.6-3.2-2.5c-1,0-2,0-3,0c-15.9,0.1-31.8,0.1-47.7,0.2c-0.8,0-1.6,0-2.4,0.1
	c-1.3,0.1-1.7,0.5-1.8,1.9c-0.3,3.6,0.1,7.1,1.3,10.5c2,5.8,3.8,11.6,5.7,17.4c3.2,9.8,7.3,19.2,12.3,28.2c2.4,4.4,5.1,8.7,7.7,13
	c0.5,0.8,0.9,1.5,1.3,2.3c0.5,1,0.2,1.9-0.9,2c-2.8,0.4-5.7,0.6-8.6,0.2c-1.4-0.2-2.6-0.9-3.5-2c-0.8-1-1.6-2-2.3-3.1
	c-4.2-7-7.9-14.3-10.9-22c-2-5.1-4-10.3-6-15.4c-0.1-0.3-0.3-0.7-0.5-0.9c-0.8-0.1-1,0.4-1.2,0.8c-0.3,0.6-0.5,1.3-0.6,2
	c-1.4,5.7-2.9,11.3-5,16.7c-1.9,4.8-3.7,9.6-5.8,14.2c-1.4,3.1-3.2,6.1-4.8,9.2c-0.9,1.7-2.3,2.8-4.1,3c-2.1,0.2-4.1,0.2-6.2,0.3
	c-0.5,0-1-0.2-1.4-0.4c-0.7-0.3-1-1-0.8-1.7c0.3-0.8,0.7-1.6,1.1-2.4c3.4-6.2,6.7-12.6,9.4-19.1c2.6-6.3,5-12.7,6.8-19.2
	c1.4-5.3,3-10.6,4.2-16c1.2-5.2,2-10.5,2.8-15.7c0.5-3.7,0.3-3.7-3.2-3.7c-26.3,0-52.5,0-78.8,0c-8.9,0-17.8,0.1-26.7,0.1
	c-3.4,0-3.3,0.2-3.7,3.5c-0.6,5.3-1,10.6-2.1,15.8c-0.5,2.3-1.1,4.6-1.7,6.9c-0.5,2-1.2,4-1.7,6c-0.1,0.4,0,0.9,0,1.6
	c0.7,0.1,1.4,0.3,2,0.3c2.9,0,5.7,0.1,8.6,0.1c12.2,0,24.5,0.1,36.7,0c3,0,5.7,0.6,8.1,2.3c2.9,2,4.7,4.7,4.9,8.4
	c0.1,1.2,0.1,2.4,0.1,3.6c0,3.6,0.1,7.1,0.1,10.7c0,1.7,0.4,3.1,1.9,4.1c0.3,0.2,0.6,0.5,0.9,0.8c4.9,4.1,3.8,11.7-0.2,14.9
	c-1.8,1.4-3.6,2.4-5.8,2.6c-2.8,0.2-5.4,0.1-8-1.2c-5.4-2.8-6.6-10.8-2.7-15.1c0.6-0.7,1.2-1.3,1.9-1.9c0.8-0.7,1.3-1.5,1.3-2.5
	c0.1-4.1,0.2-8.3,0.2-12.4c0-0.6-0.2-1.2-0.3-1.7c-0.2-0.8-0.8-1.4-1.7-1.4c-1.1-0.1-2.2-0.1-3.3-0.1c-7.3,0-14.6,0.1-21.9,0.1
	c-8.4,0-16.8-0.2-25.2-0.2c-0.5,0-1,0-1.5,0c-0.8,0.1-1.5,0.5-1.9,1.3c-0.5,1-0.9,2-1.4,2.9c-3.2,7-6.9,13.8-11.1,20.2
	c-1.9,2.8-4,5.4-5.9,8.1c-1.2,1.7-2.9,2.4-4.9,2.2c-1.3-0.1-2.6-0.4-3.7-0.8c-1.9-0.7-2.6-2.5-1.7-4.3c0.5-1,1.1-1.9,1.7-2.8
	c2.9-4.4,5.9-8.6,8.7-13.1c2.5-4.1,4.8-8.4,7.2-12.6c0.1-0.3,0.3-0.5,0.4-0.8c0.3-0.8,0.1-1.4-0.7-1.7c-1-0.3-2.1-0.6-3.2-0.8
	c-15.3-2.7-29.1-8.8-40.9-18.8c-10.4-8.7-18.4-19.2-23.1-32.1c-0.4-1.2-0.8-2.4-1.3-3.6c-0.3-0.8-0.7-1.6-1.2-2.7
	c-0.5,0.6-0.8,0.9-0.9,1.3c-0.9,2.5-1.7,5-2.8,7.5c-5.3,12.4-13.2,22.9-23.8,31.2c-6.8,5.4-14.3,9.4-22.5,12.3
	c-3.1,1.1-6.1,2.2-9.3,3c-2.9,0.7-5.8,1.1-8.7,1.7c-0.9,0.2-1.8,0.3-2.6,0.5c-0.9,0.2-1.3,1-0.9,1.8c0.4,0.9,0.8,1.8,1.2,2.7
	c3.5,7.1,7.8,13.7,12.2,20.3c1.2,1.7,2.3,3.5,3.4,5.2c0.3,0.4,0.5,0.9,0.7,1.3c0.4,1,0.2,2-0.6,2.7c-2,1.8-4.3,2.3-6.9,1.8
	c-1.1-0.2-1.9-1-2.6-1.8c-1.1-1.3-2.2-2.6-3.1-4c-5.6-8.1-10.9-16.5-14.6-25.7c-0.2-0.5-0.6-1-0.8-1.6c-0.4-0.8-1.1-1.1-1.9-1.1
	c-1.7,0-3.4,0.2-5,0.2c-12.7,0-25.5,0-38.2,0.1c-2.1,0-4.1,0-6.2,0.1c-1.9,0.1-2.6,0.6-2.6,2.5c-0.1,4.2-0.1,8.5-0.1,12.7
	c0,1.4,0.6,2.5,1.8,3.2c0.2,0.1,0.3,0.2,0.5,0.4c3.2,2.2,4.4,5.2,4,9c-0.4,4.1-2.7,6.9-6.5,8.5c-4.5,1.9-8.7,0.8-12.6-1.9
	c-1.2-0.9-1.9-2.2-2.4-3.6c-1.5-4.3-0.7-8,2.5-11.1c1.1-1.1,1.6-2.1,1.6-3.6c0-5,0-10.1,0-15.1c0-4.5,2.2-7.7,5.9-9.9
	c1.7-1,3.6-1.6,5.6-1.6c1.3,0,2.6,0,3.9,0c13.6,0,27.3-0.1,40.9-0.1c1.2,0,2.4,0.3,3.6-0.5c0-0.3,0.1-0.7,0-1.1
	c-0.8-3-1.8-6.1-2.5-9.1c-0.8-3.4-1.5-6.7-2-10.2c-0.6-3.8-0.9-7.6-1.3-11.5c-0.1-1.3-0.5-1.7-1.9-1.7c-2.2-0.1-4.3-0.1-6.5-0.1
	c-31.7,0-63.4,0-95.1,0.1c-1.8,0-3.6,0-5.3,0.1c-1.8,0-2.2,0.4-2.1,2c0.1,1.6,0.2,3.2,0.5,4.7c0.9,4.5,2,9.1,2.9,13.6
	c1,5,2.5,10,4,14.8c2.7,8.5,5.7,16.8,9.7,24.8c2.1,4.2,4.3,8.4,6.5,12.6c0.4,0.8,0.8,1.6,1.1,2.4c0.6,1.6,0.2,2.4-1.6,2.7
	c-1.1,0.2-2.2,0.2-3.2,0.3c-0.7,0-1.4,0-2.1,0c-2.3,0-4-0.9-5.1-2.9c-1.2-2.2-2.5-4.2-3.7-6.4c-3.9-7.5-7.1-15.2-9.9-23.1
	c-1.6-4.5-2.7-9.1-4.1-13.6c-0.1-0.2-0.2-0.3-0.3-0.5c-0.9-0.2-1.2,0.5-1.4,1.1c-0.5,1.5-0.9,3-1.4,4.5c-2.5,7.7-5.7,15.1-9.2,22.4
	c-2.3,4.8-5,9.4-8.1,13.8c-0.5,0.7-1,1.4-1.6,2.1c-0.9,1-2,1.7-3.3,1.8c-2.2,0.1-4.3,0.1-6.5,0.1c-0.4,0-0.8-0.2-1.1-0.3
	c-0.8-0.4-1.1-1.2-0.8-2c0.3-0.6,0.6-1.2,1-1.8c1.8-3.1,3.6-6.1,5.5-9.1c5.5-8.8,9.6-18.3,13.3-28c2.6-6.7,4.6-13.6,6.6-20.5
	c0.8-2.9,1.5-5.9,2.1-8.9c0.3-1.5,0.2-3.1,0.2-4.7c0-0.9-0.6-1.5-1.5-1.6c-1-0.2-2-0.2-2.9-0.2c-3.7,0-7.3,0-11,0
	c-12.1,0-24.3,0.1-36.4,0.1c-1.3,0-2.6,0-3.8,0.1c-1.5,0.1-1.9,0.5-2.3,1.9c-0.2,0.8-0.3,1.6-0.4,2.3c-0.4,2.3-0.7,4.7-1.1,7
	c-0.9,6.1-2.3,12-3.7,18c-1.8,7.7-4.1,15.2-6.5,22.7c-2.5,7.9-5.4,15.7-8.8,23.2c-0.7,1.4-1.2,2.9-2.1,4.2c-1.9,2.8-4.8,3.4-7.8,1.8
	c-2-1.1-2.8-2.7-2-4.9c1.1-2.9,2.3-5.7,3.4-8.5c3.4-8.5,6.7-17.1,9.2-25.9c1.5-5.1,3-10.2,4.3-15.4c1.1-4.6,1.9-9.3,2.9-13.9
	c0.7-3.1,1.1-6.2,1.5-9.4c0.3-2.6,0.3-2.7-2.1-3.9c-0.8-0.4-1.5-0.8-2-1.6c-2-3.1-0.5-7.3,3.1-8.3c0.3-0.1,0.6-0.1,0.9-0.2
	c1.3-0.2,1.8-1.1,1.9-2.3c0.1-1.1,0.1-2.2,0.1-3.3c0-11.6,0.1-23.1,0-34.7c-0.1-7.7-0.7-15.4-1.1-23.1c-0.1-1.9-0.5-3.7-0.6-5.6
	c-0.2-2.6-0.4-5.1-0.6-7.7c-0.1-1.2-0.8-1.6-1.8-1.1c-3.3,1.6-6.9,2.2-10.4,3.2c-3.7,1-7.5,1.7-11,3.3c-3.2,1.5-6.2,3.4-9.3,5.2
	c-0.3,0.2-0.5,0.7-0.5,1c0.1,0.3,0.5,0.5,0.9,0.6c0.2,0.1,0.4,0,0.6,0c3.2-0.1,6.3-0.1,9.5-0.2c3.3,0,6.5-0.1,9.8,0
	c1.4,0,2.8,0.2,4.1,0.5c1.3,0.2,2.1,1.1,2.2,2.4c0.1,0.8,0.1,1.6,0,2.3c-0.1,0.9-0.7,1.4-1.5,1.6c-0.9,0.2-1.8,0.3-2.6,0.3
	c-3.5,0.1-6.9,0.1-10.4,0.2c-10.2,0-20.3,0.1-30.5,0.1c-0.6,0-1.2,0-1.8,0c-1.1,0.1-1.7,0.6-1.7,1.7c-0.1,2.3-0.2,4.5-0.2,6.8
	c0,1,0.5,1.4,1.5,1.5c0.6,0,1.2,0,1.8,0c12.7,0,25.5,0.1,38.2,0.1c0.9,0,1.8,0,2.7,0.1c0.6,0.1,1.1,0.7,1,1.3c0,0.5-0.1,1-0.3,1.4
	c-1.8,6-3.6,11.9-5.3,17.9c-0.6,2.1-1.1,4.2-1.6,6.3c-0.3,1.3-0.6,2.7-1.4,3.7c-0.3,0.1-0.5,0.3-0.7,0.2c-2.9-0.6-5.9-0.6-8.8-0.6
	c-25,0.1-50,0.2-75,0.2c-0.3,0-0.6,0-0.9,0c-1.7,0-1.9-0.1-2.5-1.9c-0.7-2.3-1.4-4.5-2-6.8c-1.5-5.2-3.1-10.4-4.6-15.6
	c-0.4-1.5-0.8-3.1-1.2-4.6c-0.2-0.8,0.2-1.4,1-1.5c0.7-0.1,1.4-0.2,2.1-0.2c3.3,0,6.5,0,9.8,0c0.6,0,1.1-0.1,1.9-0.2
	c-0.1-0.6-0.1-1.1-0.3-1.5c-1.3-1.8-1.7-3.7-1.7-5.9c0-0.9,0.1-1.8-0.5-2.5c-0.8-0.6-1.7-0.4-2.6-0.4c-2.4-0.1-4.7-0.1-7.1-0.2
	c-1.3-0.1-1.8-0.5-1.9-1.8c-0.1-1-0.1-2,0-3c0.1-1.1,0.8-1.9,1.9-2c1.4-0.1,2.8-0.1,4.1,0c2.7,0.2,5.3,0.5,8,0.6
	c0.8,0.1,2,0.4,2.4-0.5c0.6-1.3-0.8-1.8-1.5-2.6c-0.3-0.3-0.8-0.6-1.2-0.9c-4.6-2.9-9.1-5.9-13.7-8.7c-4.5-2.8-9.3-5.3-14.3-7.1
	c-1.8-0.6-3.6-1.1-5.4-1.4c-3.7-0.6-6.9,0.5-9.2,3.4c-1.7,2.1-3,4.4-4.6,6.5c-0.5,0.7-1,1.4-1.7,2c-0.8,0.7-2.1,0.1-2.1-1.1
	c0-0.8,0.1-1.6,0.5-2.3c1.4-2.5,3-4.9,5-6.9c3.8-3.8,8.3-5,13.6-3.9c4.5,1,8.6,2.8,12.6,5c7.2,3.9,14.1,8.3,20.9,12.9
	c0.1,0.1,0.2,0.1,0.2,0.2c1.5,1,2.2,0.7,2.3-1c0-0.6,0-1.2,0.1-1.8c0.2-1.9-0.4-3.5-2.1-4.6c-0.5-0.3-0.9-0.8-1.4-1.1
	c-5.2-3.8-9-8.8-12-14.5c-2.7-4.9-3.5-10.2-3-15.8c0.4-4.1,1.3-8.2,2.6-12.1c0.7-2.1,1.2-4.2,1.8-6.2c0.2-0.8,0.4-1.5,1.4-2
	c0.3,0.2,0.8,0.3,1.1,0.7c2.2,2.4,4.5,4.7,6.6,7.2c3.3,3.8,5.7,8.1,7.1,12.9c1.5,5.2,1.9,10.5,1,15.8c-0.8,4.5-1.5,8.9-2.3,13.4
	c0,0.2,0.1,0.4,0.2,0.7c0.4-0.1,0.9-0.2,1.3-0.4c5.1-4.2,10.2-8.5,14.1-13.9c1.8-2.6,3.4-5.3,5-8.1c0.3-0.6,0.5-1.3,0.5-2
	c-0.1-1.5-0.1-3-0.4-4.4c-0.5-2.3-1.2-4.6-1.7-6.9c-0.2-0.6-0.1-1.3-0.2-2.4c0.6,0.4,1.1,0.5,1.2,0.7c0.8,2.2,1.7,4.4,2.4,6.7
	c0.4,1.4,0.7,2.9,1.1,4.3c0.1,0.2,0.3,0.4,0.4,0.6c0.2,0,0.3,0,0.4,0c1.4-2,2.8-4,4.1-6.1c0.7-1.1,0.9-2.4,0.9-3.7
	c0-2.2,0-4.3,0-6.5c0-30.5-0.1-61,0-91.6c0-83.3,0.1-166.5,0.1-249.8c0-19.1-0.1-38.1-0.1-57.2c0-1.5-0.1-3,0-4.4
	c0-1.2,0.6-1.8,1.8-1.8c2.4,0,4.7,0,7.1,0.1c1,0,1.4,0.6,1.5,1.5c0,0.4,0,0.8,0,1.2c0,24.2,0,48.4,0,72.6c0,58,0.1,115.9,0.1,173.9
	c0,43.9,0,87.9,0,131.8c0,13.4,0,26.9,0.1,40.3c0,5.9,0.3,11.8,0.4,17.8c0,0.5,0.3,1,0.5,1.8c0.5-0.5,0.8-0.7,1-1
	c2.3-3.6,5.7-6,9.4-7.9c1.6-0.8,3.4-1.1,5.1-1.5c0.7-0.2,1.4,0.5,1.3,1.2c-0.1,0.7-0.2,1.4-0.4,2c-1.3,4.8-2.8,9.7-4,14.5
	c-0.8,3.2-1.4,6.4-1.9,9.6c-0.3,1.7,0.1,2.1,1.9,2.1c1.2,0,2.4-0.1,3.6-0.1c1.1,0,1.9-0.5,2.4-1.4c1-1.9,2.1-3.8,3.1-5.7
	c1.4-3,3.1-5.9,5.1-8.6c2-2.7,4.4-5.1,7.4-6.7c2.4-1.3,4.9-2.2,7.6-2.3c2.5-0.1,4.9-0.1,7.4-0.1c0.6,0,1.2,0.1,1.8,0.1
	c0.5,0,0.9-0.4,1-0.9c0.1-0.5,0-1,0-1.5c-0.1-4.6-1.1-9-1.7-13.5c-0.5-3.7-1.2-7.4-1.8-11.1c-0.9-5.5-1.8-11.1-2.8-16.6
	c-1.1-6.1-2.3-12.2-3.6-18.3c-0.9-4-2-8-3.1-12c-1.3-4.8-2.5-9.5-4-14.2c-1.7-5.3-3.5-10.5-5.4-15.7c-5-13.7-11.3-26.7-17.9-39.6
	c-1.5-3-2.9-6-3.7-9.3c-2.3-10,2.6-19.8,13.5-23c3-0.9,6-1.3,9.1-1.3c8.5-0.1,16.9,0.7,25.4,2c5.1,0.8,10.1,1.8,15.1,3
	c14,3.5,26.8,9.5,37.4,19.5c7,6.5,12.5,14.2,16.8,22.7c2.9,5.8,5.2,12,7,18.2c1.3,4.5,2.2,9.2,3,13.9c2.2,13.8,2.3,27.7,1.5,41.7
	c-0.6,9.5-1.2,18.9-1.9,28.4c-0.5,6.2-1.1,12.4-1.6,18.6c-0.1,1.5-0.3,3-0.3,4.4c0,1.3,0.5,1.8,1.9,1.6c3.2-0.3,6.5-0.7,9.7-1.1
	c1-0.1,1.9-0.3,2.9-0.4c9.4-0.9,18.9-1.7,28.3-2.7c4.4-0.5,8.8-0.8,13.3-1.1c1.3-0.1,2.6-0.3,3.8-0.4c1.2-0.1,2.3-0.4,3.5-0.4
	c7.6-0.4,15.2-0.7,22.8-1c6.3-0.2,12.6,0.1,18.9,0.9c5.7,0.7,11.2,2.1,16.4,4.7c1.8,0.9,3.4,2.1,4.6,3.6c2.3,2.8,2.5,5.7,0.6,8.8
	c-1.1,1.9-2.7,3.4-4.7,4.4C410.6,689.5,409.6,689.8,409.1,691z M644.2,765.8c0-0.1,0-0.1,0-0.2c17.7,0,35.4,0,53,0
	c3.8,0,3.9,0,3.9-3.7c0.2-14.4,0.4-28.8,0.5-43.3c0-1.4,0-2.8-0.1-4.1c-0.1-2.1-0.4-2.4-2.4-2.5c-0.9-0.1-1.8-0.1-2.7-0.1
	c-10-0.7-20.1-1.4-30.1-2.1c-4.4-0.3-8.8-0.8-13.3-1.3c-4.4-0.5-8.8-1-13.2-1.6c-4.1-0.6-8.2-1.2-12.3-1.9
	c-5.3-0.9-10.5-1.7-15.7-2.8c-5.6-1.2-11.2-2.5-16.6-4.2c-2.2-0.7-4.2-0.5-6.2,0.8c-2.8,1.8-5.2,3.9-6.9,6.7
	c-2.5,4.2-3.5,8.7-3.2,13.6c0.5,6.8,1.8,13.5,3.4,20.1c1.8,8,3.9,15.9,4.7,24.1c0.2,2.1,0.7,2.6,2.8,2.7c1.2,0.1,2.4,0,3.6,0
	C610.2,765.8,627.2,765.8,644.2,765.8z M400.7,765.5c0.2-0.4,0.5-0.7,0.6-1c0.3-1.3,0.6-2.7,0.8-4.1c0.9-6.9,2.7-13.5,4.3-20.2
	c1.5-6.1,3-12.3,3.5-18.6c0.3-3.1,0.3-6.1-0.2-9.1c-1-6.1-4.2-10.7-9.4-14c-1.4-0.9-2.9-1.2-4.5-0.9c-0.7,0.1-1.4,0.3-2,0.4
	c-2.9,0.7-5.7,1.4-8.6,2.1c-2.1,0.5-4.2,1-6.4,1.4c-5.6,1.1-11.2,2.2-16.8,3.2c-3.7,0.7-7.4,1.2-11.1,1.7c-4.5,0.6-9,1.3-13.5,1.8
	c-6.3,0.7-12.6,1.3-18.9,1.8c-9.1,0.7-18.3,1.3-27.5,2c-0.7,0-1.4,0-2.1,0.1c-0.7,0.1-1.1,0.5-1.2,1.1c-0.1,1-0.2,2-0.2,3
	c-0.2,15.6,0.3,31.2,1.4,46.7c0,0.5,0.1,1,0.1,1.5c0.1,0.8,0.6,1.3,1.4,1.3c0.9,0.1,1.8,0.1,2.7,0.1c35.3,0,70.7,0,106-0.1
	C399.7,765.7,400.2,765.6,400.7,765.5z M220.9,689.4c0.9-0.2,1.5-0.4,2.1-0.6c2.5-1.1,5-2.3,7.6-3.2c7.4-2.5,14.9-4.4,22.6-6
	c7.6-1.6,15.3-2.8,23.1-3.8c1.9-0.2,2.1-0.4,2.2-2.4c0.3-3.4,0.6-6.9,0.9-10.3c0.5-7,1-14,1.6-21c0.5-6.9,1.1-13.8,1.7-20.6
	c0.2-2.5-0.3-3.1-3-2.8c-8.5,1-17.1,1.3-25.7,0.7c-5.2-0.4-10.4-0.8-15.6-1.3c-9.1-0.8-18-2.5-26.8-4.7c-0.3-0.1-0.6-0.2-0.9-0.2
	c-0.8-0.1-1.4,0.4-1.4,1.1c0,0.7,0.1,1.4,0.3,2.1c0.5,2.4,1.1,4.8,1.5,7.2c0.7,3.3,1.3,6.6,1.9,9.9c0.6,3.5,1.2,7,1.7,10.5
	c0.7,4.4,1.4,8.8,2,13.2c0.6,4.1,1.1,8.2,1.6,12.3c0.7,5.8,1.3,11.6,2,17.3C220.5,687.7,220.7,688.5,220.9,689.4z M707.1,627.1
	C707.1,627.1,707.1,627.1,707.1,627.1c0.5,7.1,1,14.2,1.5,21.2c0.6,7.9,1.3,15.7,2,23.6c0.2,3,0.3,3.1,3.2,3.5
	c3.8,0.6,7.6,1.1,11.4,1.7c2.6,0.4,5.3,0.8,7.9,1.4c4.7,1,9.4,2.1,14.1,3.2c4.9,1.1,9.7,2.6,14.3,4.7c1.7,0.8,3.4,1.7,5.1,2.4
	c0.9,0.4,1.6,0,1.8-0.9c0.1-0.7,0.1-1.4,0.2-2.1c0.6-4.9,1.1-9.8,1.8-14.7c0.6-4.2,1.2-8.4,1.8-12.6c0.9-6.1,1.9-12.3,2.9-18.4
	c0.4-2.3,0.8-4.7,1.2-7c1-5.2,2.1-10.4,3.1-15.7c0.2-1.2,0.5-2.3,0.8-3.4c0.1-0.5-0.3-1-0.8-1c-0.4,0-0.8,0-1.2,0.1
	c-2.4,0.5-4.8,1.2-7.2,1.7c-5.2,1-10.4,2.1-15.7,2.9c-8.4,1.2-16.9,1.8-25.4,2c-3.8,0.1-7.7,0-11.5-0.2c-3.3-0.2-6.7-0.2-10-1.1
	c-1.2-0.3-1.8,0.3-1.9,1.6c0,0.4,0,0.8,0.1,1.2C706.8,623.2,707,625.1,707.1,627.1z M766.8,707c-0.8,0.2-1.5,0.3-2.1,0.5
	c-1.6,0.5-3.1,1.3-4.7,1.7c-6,1.3-12,2.4-18.1,2.6c-8.7,0.3-17.4,0.5-26,0.6c-3.8,0.1-3.8,0-3.8,3.7c0.1,15.2,0.2,30.4-0.8,45.6
	c-0.2,3.6-0.1,3.8,3.6,3.8c16,0,32,0,48,0c0.3,0,0.6,0,0.9,0c2.4-0.1,2.6-0.3,2.6-2.8c0-1.5-0.1-3-0.1-4.4
	c-0.6-16.5-0.4-32.9,0.8-49.4C767,708.4,766.9,707.8,766.8,707z M223.4,707.2c-0.8,1.1-0.6,2.2-0.5,3.1c0.2,5.3,0.5,10.7,0.6,16
	c0.1,11.7,0.1,23.3,0.1,35c0,0.8-0.1,1.6,0,2.4c0.1,1.5,0.5,2,1.9,2.1c1.1,0.1,2.2,0,3.3,0c15.6,0,31.2-0.1,46.8-0.1
	c0.4,0,0.8,0,1.2,0c1.2-0.1,1.7-0.6,1.7-1.9c0-0.3-0.1-0.6-0.1-0.9c-1-13.4-1.2-26.8-1.2-40.3c0-2.5,0-4.9,0-7.4
	c0-2.5-0.3-2.7-2.7-2.7c-4.1,0-8.3,0-12.4-0.1c-8.4-0.1-16.8-0.2-25.1-1.5c-4.2-0.7-8.3-1.6-12.2-3.4
	C224.2,707.3,223.8,707.3,223.4,707.2z M807.8,532.3c0.5-0.4,0.8-0.5,1-0.8c1.9-2.7,3.4-5.6,4.2-8.8c0.9-3.8,0.2-6.7-3.7-9.5
	c-1-0.7-2.3-1.2-3.5-1.6c-2.2-0.7-4.4-0.8-6.7-0.9c-5.8,0-11.6,0.7-17.4,1.5c-8.6,1.2-17.1,2.8-25.4,5.5c-6.2,2-12.2,4.5-17.6,8.2
	c-6.5,4.4-12.1,9.7-16.6,16.2c-4.3,6.1-7.4,12.8-9.8,19.8c-1,3-1.9,6-2.6,9.1c-0.9,4.1-1.5,8.3-2.2,12.5c-0.1,0.7-0.2,1.4-0.2,2.1
	c0,0.6,0.4,1.1,1,1.4c0.6,0.2,1.1,0.3,1.7,0.4c5,0.6,9.9,1.5,15,1.7c10.6,0.4,21.1,0.1,31.6-1.6c9.7-1.6,19.4-3.6,29-6
	c1.4-0.4,2.8-0.7,4.3-1.7c-0.5-0.3-0.8-0.6-1.1-0.6c-0.7,0-1.4,0.1-2,0.3c-5.6,1.4-11.3,2.7-17.1,3.6c-7.2,1.1-14.4,2.2-21.8,2.4
	c-1.3,0-2.6,0.1-3.8,0.2c-8.3,0.5-16.6,0.3-24.9-0.2c-0.5,0-1,0-1.4-0.2c-0.4-0.2-0.8-0.6-0.9-1c-0.2-0.4,0-1,0-1.5
	c0-3.8,0.5-7.5,1.2-11.2c0.5-2.5,0.9-5.1,1.6-7.5c2-6.5,5.1-12.4,9.1-17.8c9.4-12.5,21.5-21.3,36.8-25.3c5.1-1.3,10.3-1.9,15.5-1.5
	c1.7,0.2,3.4,0.3,5,0.7c2.3,0.5,4.6,1,6.8,1.8c5,1.8,9.3,4.8,13,8.6C806.5,531.2,807.1,531.7,807.8,532.3z M199.6,579.6
	c0.4,0.6,0.6,1,0.9,1.1c0.8,0.4,1.6,0.7,2.5,0.9c5.4,1.2,10.8,2.4,16.2,3.5c8.7,1.8,17.5,2.9,26.4,3.6c11,0.9,22.1,0.9,33.1-1.1
	c0.6-0.1,1.2-0.2,1.7-0.4c1-0.3,1.4-0.9,1.3-2c0-0.3-0.1-0.6-0.1-0.9c-1-6.7-2.3-13.4-4.3-19.9c-2.5-8.2-6.2-15.8-11.1-22.8
	c-6.4-9.1-14.8-15.8-24.8-20.5c-3.8-1.8-7.7-3-11.7-4.2c-3.6-1.1-7.3-1.9-10.9-2.6c-3.3-0.7-6.6-1.1-9.9-1.6
	c-6.9-1.1-13.9-1.6-20.9-1.8c-0.9,0-1.8,0-2.7,0.1c-2.9,0.3-5.6,1.2-7.8,3.2c-2.5,2.3-3.4,5-2.3,8.3c0.9,3,2.2,5.7,4,8.2
	c0.3,0.4,0.7,0.6,1.1,1.1c0.7-0.6,1.3-1.1,1.9-1.6c1.9-1.6,3.7-3.3,5.7-4.7c5.6-3.9,12-5.5,18.6-6.1c8.4-0.9,16.5,0.7,24.2,4.1
	c8.3,3.6,15.8,8.5,22.2,15c7.4,7.5,13.2,15.9,16.3,26.1c1.9,6.2,2.9,12.5,3.1,18.9c0,0.5-0.1,1-0.2,1.6c-0.6,0.2-1.3,0.5-1.9,0.5
	c-2.5,0.2-4.9,0.5-7.4,0.5c-7.5,0.2-15,0-22.5-0.5c-13-0.8-25.9-2.4-38.5-6C201.1,579.5,200.5,579.6,199.6,579.6z M622.1,593.1
	c-0.8-1-1.9-0.7-3-0.7c-5.4,0-10.9,0.1-16.3,0.1c-33.5,0-66.9-0.1-100.4-0.1c-32.5,0-65,0-97.4,0.1c-12.1,0-24.3,0.1-36.4,0.1
	c-0.8,0-1.6,0-2.4,0.1c-1.3,0.1-1.7,0.8-1.4,2c0.3,0.9,0.8,1.7,1.7,1.8c1.3,0.2,2.7,0.5,4.1,0.5c9.8,0.1,19.5,0,29.3,0
	c47.7,0,95.4,0.1,143.1,0.1c20.5,0,41.1,0.1,61.6,0.1c4.3,0,8.7,0.1,13,0C620.4,597.2,621.4,596.1,622.1,593.1z M727,608.1
	c6,0,11-0.1,16-0.7c4.8-0.6,9.6-1,14.4-1.7c2.7-0.4,5.4-1,8.1-1.6c2.7-0.6,5.4-1.2,8.1-1.8c2.3-0.5,4.7-0.9,6.9-1.7
	c3.9-1.4,3.6-1,4-4.8c0-0.2,0.1-0.4,0.1-0.6c0.1-1.1-0.5-1.7-1.6-1.4c-2.4,0.6-4.8,1.3-7.2,1.8c-2.5,0.6-5,1.2-7.5,1.7
	c-3.1,0.6-6.2,1-9.3,1.6c-6.3,1.1-12.7,1.8-19.1,2c-5.9,0.2-11.8,0-17.8,0c-1.2,0-2.4-0.2-3.5-0.4c-3.3-0.6-6.6-1.2-9.9-1.8
	c-0.3-0.1-0.6-0.1-0.9-0.1c-1,0-1.6,0.4-1.6,1.3c-0.1,1.7-0.1,3.4-0.1,5c0,0.9,0.5,1.4,1.4,1.7c0.4,0.1,0.8,0.2,1.2,0.2
	C715.1,607.4,721.5,608.4,727,608.1z M262.2,608.2c5.4,0.2,11.8-0.6,18.2-1.3c0.4,0,0.8-0.1,1.2-0.2c0.9-0.2,1.4-0.8,1.4-1.6
	c0-1.6,0-3.2-0.1-4.7c-0.1-0.9-0.7-1.3-1.7-1.2c-0.3,0-0.6,0.1-0.9,0.1c-6.8,1-13.7,2-20.6,1.8c-4-0.1-8.1-0.1-12.1-0.2
	c-1.4,0-2.8-0.2-4.1-0.3c-4.9-0.6-9.8-1.2-14.7-1.9c-2.3-0.3-4.6-0.9-7-1.2c-4.5-0.6-8.8-2-13.3-2.9c-1.2-0.3-2.5-1.5-3.5-0.3
	c-0.9,0.9,0.1,2.2,0.2,3.4c0.1,1.3,0.9,2.2,2.1,2.5c2.3,0.6,4.5,1.3,6.8,1.9c3.5,0.8,7.1,1.5,10.7,2.3c0.6,0.1,1.2,0.2,1.8,0.3
	c1.2,0.2,2.3,0.4,3.5,0.6c1.2,0.2,2.3,0.4,3.5,0.6c1.3,0.2,2.5,0.4,3.8,0.5c1.6,0.2,3.1,0.5,4.7,0.6c1.7,0.2,3.3,0.2,5,0.4
	C251.7,608.1,256.5,608.2,262.2,608.2z M145.1,701.7c0.1-0.4,0.2-0.7,0.2-1c0.1-6,0.2-12,0.2-18c0-4.6,0-9.3-0.1-13.9
	c0-1-0.2-2-0.4-2.9c-0.3-1-1.2-1.4-2.1-0.8c-2.4,1.6-4.5,3.3-5.9,6c-2,4-4.5,7.6-7.8,10.7c-1.4,1.3-3,2.6-4.5,3.9
	c-0.9,0.7-1,1.7-0.3,2.6c0.3,0.4,0.7,0.7,1,1.1c3.3,3.4,6.6,6.8,9.9,10.2c0.3,0.3,0.4,0.8,0.7,1.3c-0.5,0.2-0.9,0.4-1.2,0.5
	c-0.3,0.1-0.9-0.1-0.7,0.6C137.4,702.3,143,702.2,145.1,701.7z M711.5,686.8c-0.6,1.3-0.2,2.5-0.2,3.7c0,1.1,0.6,1.8,1.7,2.1
	c2.5,0.7,5.1,1.5,7.6,2.3c1.7,0.5,3.4,0.9,5.2,1.3c3,0.6,6,1.1,9,1.7c6,1.2,12.1,1.2,18.3,0.8c1-0.1,1.9-0.4,2.9-0.6
	c0.2-0.1,0.6-0.4,0.5-0.6c-0.1-0.3-0.3-0.8-0.6-0.9c-3.5-1.3-7-2.7-10.6-3.7c-3.9-1.1-7.8-2-11.8-2.8c-5.8-1.2-11.6-2.2-17.4-3.2
	c-1-0.2-2-0.3-2.9-0.3C712.6,686.5,712,686.7,711.5,686.8z M243.2,698.8c6.1,0.2,12-0.8,17.9-2.2c2.5-0.6,5-1,7.5-1.7
	c2.5-0.6,4.9-1.4,7.4-2.2c1.1-0.3,1.6-1.1,1.7-2.2c0.1-0.7,0.1-1.4,0-2.1c-0.1-1.4-0.7-1.9-2.2-1.7c-1.5,0.2-2.9,0.6-4.4,0.8
	c-6.5,1-13.1,1.9-19.5,3.6c-4.9,1.3-9.9,2.5-14.9,3.9c-1.2,0.3-2.4,0.9-3.6,1.4c-0.2,0.1-0.4,0.5-0.4,0.7c0,0.2,0.2,0.6,0.4,0.7
	c1,0.3,2.1,0.6,3.2,0.6C238.7,698.7,240.9,698.7,243.2,698.8z M133,718.4c0,0.1,0,0.2,0,0.3c2.9,0,5.7,0,8.6,0c0.7,0,1.4,0,2.1,0
	c1.3-0.1,1.8-0.5,1.9-1.8c0.1-1.4,0-2.8,0-4.1c0-3,0.3-3.6-3.6-3.7c-7.8-0.1-15.6-0.2-23.3-0.4c-1.6,0-2.1,0.6-1.8,2.2
	c0.5,2.2,1.6,4.2,2.8,6.2c0.4,0.7,1.2,1.1,2,1.2c0.8,0.1,1.6,0.2,2.4,0.2C126.9,718.4,129.9,718.4,133,718.4z M823.4,718.4
	C823.4,718.4,823.4,718.4,823.4,718.4c2.8,0,5.5,0,8.3-0.1c0.7,0,1.4,0,2.1-0.1c0.8-0.1,1.3-0.6,1.3-1.4c0.1-2.1,0.1-4.1,0-6.2
	c0-1.1-0.5-1.5-1.7-1.6c-0.5,0-1,0-1.5,0c-5.2-0.1-10.5-0.2-15.7-0.3c-2,0-3.9-0.1-5.9-0.1c-1.6,0-2.1,0.7-1.9,2.3
	c0.4,2.4,1.6,4.4,2.9,6.4c0.3,0.5,1.1,0.8,1.8,0.9c0.8,0.2,1.6,0.2,2.4,0.2C818,718.4,820.7,718.4,823.4,718.4z M821.6,687.7
	c0.3,0.5,0.5,1.1,0.9,1.5c1.1,1.5,2.2,3,3.3,4.5c1,1.4,2,2.9,3.1,4.3c1.1,1.5,1.1,1.4,1.2,3.7c1.5-0.3,3,0.4,4.7-0.2
	c0.1-0.5,0.3-0.9,0.3-1.4c-0.1-8.4-0.2-16.9-0.3-25.3c0-0.1-0.3-0.3-0.5-0.5c-1.5,1.4-2.1,3.5-3.6,4.9c-1.4,1.4-2.7,2.9-4.1,4.2
	C825.1,684.9,823.5,686.1,821.6,687.7z M130.2,701.9c0-0.2,0-0.4,0-0.6c-0.8-0.1-1.5-0.2-2.3-0.2c-2.2-0.1-4-1-5.2-2.8
	c-0.4-0.6-0.8-1.1-1.2-1.6c-0.4-0.5-0.7-0.9-1.2-1.3c-1-0.9-1.7-0.7-2.4,0.3c-0.9,1.3-1.2,2.9-1.5,4.4c-0.2,1.5,0.1,2.1,1.6,2.1
	c3.6,0,7.3,0,10.9,0C129.3,702.2,129.8,702,130.2,701.9z M824.4,701.5c-1-1.3-0.9-1.3-1.8-1.7c-1.6-0.8-3-1.9-4-3.4
	c-0.2-0.3-0.4-0.7-0.7-1c-0.6-0.7-1.5-0.5-1.9,0.4c-0.6,1.3-1.1,2.5-1.6,3.8c-0.1,0.3-0.1,0.8-0.1,1.1
	C816.5,701.5,821.7,702,824.4,701.5z M288.2,688.8c1.2-0.3,2-0.6,2.8-0.8c3.3-0.9,6.6-1.9,9.9-2.8c0.3-0.1,0.5-0.5,1-0.9
	c-0.7-0.2-1.1-0.3-1.4-0.3c-1.1,0-2.2,0.1-3.2,0.2c-2.6,0.3-5.3,0.7-7.9,1c-1.1,0.2-1.5,0.6-1.5,1.8
	C287.9,687.5,288.1,687.9,288.2,688.8z M389,552.8c1.8,0,3.4-1.5,3.3-3.1c-0.1-1.6-1.5-2.9-3.1-2.9c-1.6,0-3.3,1.5-3.3,3.1
	C385.8,551.3,387.4,552.8,389,552.8z M161.8,701.5c-0.1-0.6-0.1-0.9-0.2-1.1c-1.6-1.8-3.3-3.6-4.3-5.9c-0.1-0.2-0.5-0.3-0.7-0.2
	c-0.2,0.1-0.5,0.4-0.5,0.6c-0.2,1.9-0.3,3.9-0.4,5.8c0,0.7,0.3,1.2,1,1.2C158.3,702,159.9,702.1,161.8,701.5z M687.6,683.4
	c1.8,1.2,3.2,1.8,4.8,2.2c1.8,0.5,3.5,1.2,5.3,1.8c0.7,0.2,1.3,0.4,2,0.5c0.7,0.1,1.3-0.5,1.2-1.3c-0.1-1-0.6-1.7-1.5-2
	c-0.5-0.2-1-0.2-1.4-0.3C694.8,684.1,691.6,683.8,687.6,683.4z M846.1,701.9c1.6,0.2,3,0.5,4.5-0.2c-1-2.3-2.5-4.1-3.8-5.9
	c-0.1-0.1-0.4,0-0.5,0C845.7,697.6,845.6,699.4,846.1,701.9z M148.5,752.6c-12.3,0-24.7,0-37,0c-0.7,0-1.4,0-2.1,0.1
	c-0.6,0.1-1,0.6-1,1.3c0,0.3,0,0.6,0.1,0.9c0.6,2.2,1.1,4.4,1.7,6.6c0.6,2,1.2,4,1.7,6c1,3.6,2,7.2,3.1,10.8c1.3,4.7,2.7,9.5,4,14.2
	c1.2,4.4,2.4,8.7,3.7,13.1c0.6,2,0.9,2.2,2.9,2.2c15,0,30,0.1,45,0.1c2.2,0,2.7-0.1,3.6-2.6c0.1-0.4,0.2-0.8,0.3-1.1
	c0.9-3.3,1.9-6.6,2.8-10c1.4-4.9,2.9-9.8,4.2-14.8c2.2-8.1,4.4-16.2,6.6-24.2c0.6-2.3,0.4-2.7-1.8-2.7c-0.5,0-1,0-1.5,0
	c-12.1,0.1-24.3,0.2-36.4,0.3C148.5,752.7,148.5,752.6,148.5,752.6z M841.5,752.6c-12.1,0-24.3,0-36.4,0c-0.7,0-1.4,0-2.1,0
	c-1,0.1-1.5,0.7-1.2,1.6c0.7,3,1.5,5.9,2.3,8.9c1,3.7,2.2,7.4,3.2,11c1,3.3,1.9,6.6,2.8,9.9c1.1,3.7,2.1,7.4,3.2,11.1
	c0.9,3.2,1.8,6.5,2.8,9.6c1,3,1.1,3,4.2,3c14.4,0,28.8,0.1,43.2,0.1c0.5,0,1,0,1.5,0c1.1,0,1.9-0.6,2.2-1.6c0.5-1.5,0.9-3,1.4-4.5
	c1.1-3.9,2.2-7.8,3.3-11.7c1.3-4.9,2.7-9.9,4-14.8c1.1-4.2,2.2-8.4,3.3-12.6c0.7-2.8,1.5-5.5,2.2-8.3c0.3-1.3-0.1-1.9-1.4-2
	c-0.8-0.1-1.6,0-2.4,0c-12,0.1-24.1,0.3-36.1,0.4C841.5,752.7,841.5,752.7,841.5,752.6z M164.1,219.4c0.1,0.9,0.3,1.7,0.3,2.5
	c0,5.1,0,10.3,0,15.4c0,0.3,0,0.6,0,0.9c-0.1,0.9-0.6,1.4-1.6,1.5c-0.6,0.1-1.2,0.1-1.8,0.1c-7.1,0-14.2,0-21.3,0
	c-0.4,0-0.8,0-1.2,0c-1.1-0.1-1.6-0.5-1.7-1.6c-0.1-0.5-0.1-1-0.1-1.5c0-5.1,0-10.3,0-15.4c0-0.1,0-0.2,0-0.3c0-1.3,0.4-1.7,1.8-1.8
	c1.3,0,2.6,0,3.9,0c0.7,0,1.3-0.2,2.1-0.3c0.1-0.7,0.3-1.2,0.3-1.8c0-2.3-0.1-4.5-0.1-6.8c0-2.1-0.7-2.9-2.6-3.2
	c-3.4-0.7-6.5-2.3-9.4-4.2c-5.9-4-10.2-9.2-13.1-15.7c-1.3-2.9-1.9-6-2.1-9.2c-0.6-9.2,1.6-17.4,7.6-24.5
	c5.6-6.6,12.7-10.4,21.3-11.6c14.6-2.1,29.1,6.5,34.7,19.5c2.8,6.5,3.7,13.2,2.1,20.3c-2.4,10.8-8.7,18.6-18.5,23.6
	c-1.8,0.9-3.8,1.7-5.8,2.1c-1.1,0.2-2.2,0.7-3.2,1c-0.2,0.5-0.4,0.7-0.4,1c0,2.7,0,5.3,0,8c0,1.4,0.4,1.7,1.8,1.8
	c1.5,0.1,3,0,4.4,0.1C162.4,219.1,163.2,219.2,164.1,219.4z M125,174.3c-0.8,11.3,9.4,25.9,24.8,26.1c15,0.2,26.6-12.5,26.5-25.5
	c-0.1-13.8-10-25.5-25.2-26C136.5,148.5,124.6,161.4,125,174.3z M825.9,219.5c2.7-1.2,5.7,0.3,8.4-0.9c0.4-1.9,0.5-8.3,0.2-10.2
	c-1.1-0.7-2.5-0.9-3.8-1.3c-3.1-0.9-6.2-2-8.9-3.8c-7.5-4.8-12.9-11.4-15.3-20c-1.2-4.4-1.5-8.9-0.8-13.5
	c1.6-10.2,6.9-17.9,15.5-23.5c5.3-3.4,11.2-4.8,17.4-4.9c13.2-0.1,26,8.1,31,21.2c2.3,6.2,2.9,12.6,1.4,18.9
	c-2.2,9.2-7.3,16.5-15.5,21.5c-2.9,1.7-5.8,3.4-9.1,4c-0.9,0.1-1.5,0.8-1.5,1.6c0,3.1,0.1,6.1,0.1,9.2c0,0.2,0.2,0.3,0.4,0.6
	c0.6,0.1,1.2,0.3,1.9,0.3c1.4,0.1,2.8,0,4.1,0.1c1.7,0,2.1,0.3,2.1,2.1c0.1,4,0,8.1,0,12.1c0,1.5,0,3,0,4.4
	c-0.1,1.3-0.5,1.7-1.8,1.8c-0.4,0-0.8,0-1.2,0c-7,0-14,0-21-0.1c-0.7,0-1.4,0-2.1,0c-1.3-0.1-1.7-0.5-1.7-1.9c0-5.5,0-11.1,0-16.6
	C825.6,220.5,825.8,220,825.9,219.5z M813,176.2c-0.2,3.1,1.3,7.5,3.7,11.7c3.5,6,8.8,9.9,15.4,11.7c6.9,1.9,13.7,0.8,19.8-3.1
	c6.3-4.1,10.3-9.8,11.7-17.1c1.2-6.3,0-12.3-3.3-17.9c-6.5-11-20.6-15.6-32.2-10.1C818.5,155.9,813.2,163.5,813,176.2z M863,658.8
	c4.1-6.4,5-13.3,3.7-20.7c-0.6-3.4-1.7-6.7-2.8-9.9c-1.6-4.5-2.4-3.6-5.1-1.1c-6.4,6-10.2,13.4-11.5,22.1c-0.2,1.1,0,2.4,0.3,3.5
	c1,3.6,2.5,7,4.5,10.2c1,1.6,2.1,3.3,3.9,4.7C858.9,664.8,861.1,661.9,863,658.8z M169.5,665c2.9-3,5.3-6.4,6.9-10.2
	c0.8-1.9,1.4-3.9,1.6-6c0.8-7.5-0.4-14.7-3.5-21.7c-0.2-0.5-0.5-1.1-0.8-1.5c-0.4-0.6-1.2-0.8-1.8-0.4c-0.3,0.1-0.5,0.3-0.7,0.5
	c-6.5,5.5-10.7,12.3-11.9,20.8c-0.2,1.7-0.2,3.6,0.1,5.3c0.6,3.6,1.8,7.1,3.4,10.3c0.9,1.8,2,3.6,4.1,5.1
	C167.9,666.4,168.7,665.8,169.5,665z M892.7,645.9c0-0.8-0.2-1.6-0.3-2.3c-0.4-1.5-1.3-1.9-2.6-1.3c-0.3,0.1-0.5,0.3-0.8,0.4
	c-4.4,2.6-8.9,5.1-13.2,7.9c-1.7,1.1-3.4,2.4-4.8,3.9c-3.2,3.2-4.3,7-2.2,11.3c2.7,5.7,7,7.5,12.3,6.1c5.4-1.4,9-5,10.8-10.4
	c1.1-3.3,1.1-6.6,1-9.9C892.7,649.6,892.8,647.7,892.7,645.9z M199.4,642.2c-5,3-9.9,6.1-14.8,9.1c-1.7,1.1-3.1,2.4-4.2,4
	c-3.5,5-1.7,11.7,2.5,14.4c0.9,0.6,1.9,1.1,2.9,1.3c4.3,1.1,8,0,11.2-3c3.2-3,5.1-6.8,5.3-11.2c0.2-4.2,0-8.5,0-12.7
	c0-0.9-0.3-1.7-0.5-3C200.6,641.7,199.9,641.8,199.4,642.2z M136.4,647.7c0.3-0.3,0.6-0.8,0.7-1.3c0.4-3,0.1-5.9-2-8.4
	c-1.5-1.7-3.2-3.2-5.2-4.4c-5.4-3.1-11.3-4.5-17.5-4.9c-0.4,0-0.8-0.1-1.2,0c-0.4,0.1-0.9,0.3-1.3,0.4c0.1,0.5,0,0.8,0.2,1
	c0.9,1.8,1.8,3.5,2.8,5.2c2,3.8,4.8,7,8,9.8c1.5,1.3,3.2,2.2,5.1,2.9c2.8,1,5.6,1,8.6,1.2C135.2,648.7,135.8,648.3,136.4,647.7z"/>
</svg>
