<?xml version="1.0" encoding="utf-8"?>
<svg version="1.1" id="Layer_1" xmlns="http://www.w3.org/2000/svg" xmlns:xlink="http://www.w3.org/1999/xlink" x="0px" y="0px"
	 viewBox="0 0 949.2 978.2" style="enable-background:new 0 0 949.2 978.2;" xml:space="preserve">
<path fill="black" stroke="black" stroke-width="0" d="M283.3,929.3c10.2-5.4,21.9-6.8,33.6-8.1c16.9-1.8,33.2-5.6,47.5-15.1c3.5-2.3,7-5.5,8.8-9.1c3.4-7,8.2-12.4,14.5-16.8
	c4.1-2.8,7.8-6.1,11.3-9.7c-10.9,4.7-24.5,7-28.8,19.3c-2.9,8.4-8,10.1-14.6,11.8c-19.4,5.2-38.8,10.2-58.2,15.6
	c-10.1,2.8-19.7,7-29.8,9.7c-15.1,4.1-30.4,2.3-45.7,0.7c-1.6-0.2-3.3-0.5-5.3-0.7c9.3-4.5,18.4-8.5,27.1-13.2
	c6.4-3.4,12.3-7.9,18.6-11.6c7.1-4.2,14.3-8.1,21.2-12c-9.8,1.2-19.9,3.8-27.9,10.6c-14.7,12.4-32.5,18-50.1,23.9
	c-3.7,1.2-8.2-0.2-12.3-0.4c-10.1-0.5-20.3-0.7-30.4-1.4c-4.1-0.3-8.1-1.5-12.2-2.1c-1.6-0.2-3.3-0.2-4.8,0c-37,6.5-74,13-111,19.4
	c-5.2,0.9-10.5,1.5-16.2,1.3c1.7-1.3,3.4-2.8,5.2-4c13.9-8.8,27.7-17.9,41.8-26.3c15.5-9.2,33-10.7,50.5-12.2
	c32.4-2.6,64.9-2.3,97.4-1c1.8,0.1,3.6,0,5.4,0c0.2-0.4,0.4-0.8,0.6-1.2c-2.6-1.6-5.2-3.4-7.9-4.9c-2.8-1.5-4.1-3.1-2.3-6.3
	c2.3-4,4.4-8.2,6.4-12.3c0.5-1.1,0.5-2.6,0.5-3.9c-0.6-35.8-1.2-71.6-2.1-107.5c-0.1-2.1-1.9-5-3.8-6.2c-7.8-5.3-16-10-24-15
	c-1.2-0.8-2.2-1.9-3.9-3.3c6.7-2.9,12.7-5.7,18.8-8.2c27.9-11.7,55.8-23.4,83.8-34.9c3.4-1.4,4.7-3.1,4.8-6.9
	c0.4-13.5,1.3-27,2-40.4c0.1-1.9,0-3.8,0-5.9c18-6.5,37-4.6,55.2-3.4c-2,10.5-1.1,20.6-1.7,31.4c8.5-3,16.3-5.7,24.1-8.4
	c9.7-3.4,19.4-6.9,29.2-10.1c2.1-0.7,4.9-0.6,7,0.3c16.6,6.9,33.1,14,49.6,21c2.4,1,4.9,1.8,7.7,2.7c1.4-5.9,5.3-5.2,9-3.8
	c3.2,1.2,6.2,3.2,9.4,4.6c11.3,5.2,22.4,10.8,34,15.3c9.8,3.9,19.4,7.8,27.9,14.2c3.5,2.7,7.7,4.5,12.9,7.5
	c-7.1,3.9-13.8,7.5-20.4,11.3c-6.5,3.8-13,7.8-19.4,11.7c0.2,0.5,0.5,1.1,0.7,1.6c1.3-0.3,2.7-0.4,3.9-0.9
	c10.8-4.6,22.2-7.7,31-16.5c6.4-6.4,11.6-7.1,18.4-2.6c11.5,7.7,23.9,12.8,37.3,16c4.6,1.1,8.9,3.2,13.4,4.9c0.2-0.5,0.5-1,0.7-1.5
	c-5-2.5-9.8-5.6-15-7.4c-9.8-3.4-19-7.7-28-14.4c17.1,0,33.4,0,49.6,0c0.1-0.4,0.2-0.8,0.3-1.1c-6.5-1.4-13-3.4-19.6-4.2
	c-10.7-1.2-21.6-1.6-32.4-2.3c-0.7,0-1.4-0.2-2,0c-10.6,4.1-18.6-2-26.8-6.9c-5.2-3.1-10.5-6.3-15.7-10.4c11,0,22,0,33.1,0
	c0.1-0.8,0.1-1.5,0.2-2.3c-8-1.1-16-2.4-24.1-3.3c-11.4-1.2-22.9-1.8-34.3-3.2c-8.1-1-14.8-5.2-21.4-10.3
	c12.5-4.6,24.7-4.8,37.1-2.3c4,0.8,8.2,0.5,12.5-0.4c-1.2-0.3-2.3-0.6-3.5-0.8c-5.2-1-10.5-1.8-15.6-3c-8.1-1.9-16.1-1.1-24.2,0.3
	c-6.1,1-12.5,0.5-18.7,0.6c-6.2,0.1-12.4,0-19.1,0c0.6-7.7,1.2-16.4,1.9-25.1c1.8-21.6,3.8-43.1,5.6-64.7
	c1.9-21.9,3.7-43.8,5.6-65.7c1.8-20.6,3.6-41.1,5.4-61.7c1.9-21.1,3.8-42.1,5.6-63.2c1.8-20.6,3.6-41.1,5.4-61.7
	c0.8-9.6,1.2-19.3,2.2-28.9c1.8-17.3-6.2-29.8-18.9-40.1c-2.3-1.9-4.8-3.6-7.1-5.5c-7.7-6.4-9-13.7-4.8-22.7
	c1.6-3.3,2.6-7.2,2.7-10.8c0.1-6.8-0.3-13.6-1-20.4c-0.9-8.6,3.4-15,9.7-19c7.7-4.9,16.4-8.5,25-11.8c5.1-2,9.7-4.1,14.3-7.1
	c5.6-3.6,6.1-7.5,6-13c-0.2-13-0.2-26-0.1-39c0-2.6-0.4-4.3-3.1-5.5c-1.8-0.8-3.4-2.6-4.7-4.3c-3.8-5.1-3.4-7.5,1.9-11.1
	c3.3-2.2,6.9-4,10.2-6.2c6.6-4.4,13.1-9,19.8-13.4c6.3-4.2,12.7-8.4,19.2-12.2c4.2-2.4,4.9-4.7,1.6-8.3c-5.8-6.2-3.7-16.4,4.1-20.2
	c1.5-0.7,3.1-1.2,5.7-2.2c-0.9-5.7-1.9-11.6-2.6-17.6c-0.1-1.1,0.3-2.8,1.1-3.5c0.8-0.6,2.6-0.7,3.5-0.1c0.8,0.5,1.5,2.2,1.4,3.2
	c-0.6,5.9-1.5,11.8-2.3,17.3c15.3,7.6,16.8,13.1,7.5,26.4c2,1.5,4,3.1,6.1,4.5c14.9,9.7,29.8,19.5,44.7,29.2
	c0.1,0.1,0.3,0.2,0.4,0.3c8.4,6.1,8.7,9.8,0.4,16c-2.9,2.1-3.5,4.2-3.5,7.4c0,14.5-0.1,29-0.4,43.5c0,3.1,1.4,4.6,3.6,6.7
	c6.9,6.6,15.7,8.1,24,11.3c8.5,3.3,16.2,7.8,21.3,15.7c2,3.1,2.6,6.1,2.2,10.2c-0.9,9.2-0.4,18.6-0.2,28c0,1.4,1.5,2.8,2.4,4.2
	c5.8,8.7,4.4,16.4-4,22.5c-2,1.5-4.1,2.8-6.4,3.9c-17.5,8.7-24.4,23.5-23.5,42.2c1.1,20.6,3,41.2,4.7,61.7
	c1.8,21.4,3.7,42.8,5.5,64.2c2.2,25.5,4.4,51.1,6.6,76.6c1.7,19.9,3.6,39.8,5.3,59.7c2.3,25.4,4.5,50.7,6.8,76.1
	c1.8,20.6,3.7,41.1,5.2,61.7c0.3,4.3,1.8,6.3,5.9,7.7c41.1,14.4,82.1,29,123.1,43.6c1.1,0.4,2.1,0.8,3.2,1.3c0,0.5,0,0.9,0,1.4
	c-3.1,0-6.2,0.1-9.4,0c-30.6-1.5-61.2-3.1-91.8-4.6c-11.6-0.6-23.3-1.6-34.9-1.7c-4.8,0-10.1,0.9-14.4,2.9
	c-16.2,7.7-32.2,16-48.1,24.2c-3.1,1.6-5.8,3.8-9.1,5.9c3.5,2.8,6.2,1.7,9,0.1c14.4-7.9,29-15.6,43.4-23.6
	c7.5-4.2,15.3-5.7,23.9-5.2c25.8,1.5,51.6,2.2,77.4,3.5c14.5,0.7,28.9,1.8,43.4,2.8c0.9,0.1,1.8,0.5,4,1.1c-2.3,1.4-3.6,2.3-4.9,3
	c-5.8,3-11.5,6.1-17.4,8.7c-2.9,1.3-3.9,2.9-3.9,6c-0.3,19.7-0.7,39.3-1.1,59c0,1-0.1,2-0.1,2.1c-11.1,1.7-21.8,3.8-32.7,4.7
	c-5.6,0.5-11.8-0.3-17.1-2.3c-24.1-9.1-45.7-5.1-65.3,11.1c-3.6,3-7.3,3.8-12,3.1c-16.4-2.3-31.3,1.9-44.9,11.4
	c-2.7,1.9-6.1,3.4-9.4,3.8c-19.1,2.6-38.2,5.3-57.4,7c-8.7,0.8-17.6-0.3-26.4-1.1c-10.8-1-21.1,0-31.1,4.8c-3.9,1.9-8.6,2.6-13,3
	c-9.2,0.8-16.9,4.7-24,10.2c-8,6.3-16.8,11.1-26.5,14.7c-7.7,2.9-15.3,6.8-21.8,11.7c-17.9,13.6-38.2,18.4-60,18
	c-11.1-0.2-22.3-1.4-33.4-2C294.2,929.1,288.7,929.3,283.3,929.3z M572.7,566.8c29-1.6,57.1-0.5,85.3,9.5c-1.8-3.9,1.5-8.9-4.5-10
	c-13.7-2.5-27.4-5.4-41.3-6.9c-23.2-2.5-46.5-2.6-69.8-0.3c-24.3,2.5-48,7.2-70.6,16.7c-3.4,1.4-4.9,3.2-5.2,6.8
	c-1,12.9-2.2,25.9-3.2,38.8c-0.5,6.4-0.8,12.8-1.3,19.7c47.7-23.2,97.7-24.3,149.6-20.4c-1.7-2.5-2.8-3.9-3.6-5.4
	c-0.5-0.9-1-1.9-0.9-2.9c0.7-12.1,1.5-24.2,2.2-36.3c0.1-1.2-0.2-2.4-0.3-3.6c-0.5-0.1-1-0.1-1.6-0.2c-0.9,4.8-1.8,9.7-2.7,14.6
	c-3.5,0-6.9,0-10.7,0c0-2.2,0-4.1,0-5.9c0-1.8,0.1-3.7-0.2-5.5c-0.2-1-1.2-1.9-1.8-2.9c-0.6,1-1.3,2-1.7,3.1
	c-0.3,0.7-0.1,1.6-0.1,2.5c-0.3,7.9-0.3,7.9-8.1,9c-0.7,0.1-1.3,0.6-1.9,0.9c0,0.3,0.1,0.6,0.1,0.9c3.2,0.4,6.3,0.8,9.5,1.2
	c0,6.8,0,13.2,0,20.1c-2.1,0-3.9-0.2-5.7,0c-4.2,0.5-6.1-0.8-5.6-5.5c0.6-5.6,0.5-11.3,0.6-17c0.1-3.8,0-7.7,0-11.5
	c-0.8,0-1.6,0-2.4,0c0,10.6,0,21.3,0,31.9c0,4.2-1.9,5.7-6.3,4.7C571.3,597.6,572,582.4,572.7,566.8z M473,513.7
	c43.3-25.9,89.9-29.7,138.6-25.4c-5.9-2.8-3.7-7.6-3.8-11.6c-0.2-9,0-18-0.1-27c0-7.8,0.4-8.2,8.1-7.4c0.8,0.1,1.6,0.3,2.4,0.5
	c10.4,2.6,20.8,5.3,31.3,7.9c0-1.4,0.1-3.4,0-5.3c-0.6-17.7-0.7-17.3-18.4-18.3c-30-1.6-59.9-0.9-89.8,2.1
	c-19.9,2-39.5,5.8-58.5,12.2c-2.6,0.9-4.1,2-4.4,5.1C476.8,468.6,474.9,490.7,473,513.7z M639.7,312.6c-0.4-6.4-1.1-11.8-1.1-17.3
	c0-3.5-1.5-4.8-4.6-5c-9.5-0.7-19-2.2-28.4-1.8c-20.4,0.8-41,1.4-61.2,4.2c-17.2,2.4-33.9,7.8-50.8,11.9c-3.5,0.9-5.2,2.7-5.3,7
	c-0.4,11.5-1.6,22.9-2.4,34.4c-0.7,9.7-1.2,19.3-1.9,29.5c41.6-21,85.1-25,130.5-21.5c-7.4-4-4.8-10.3-4.9-15.7
	c-0.2-9.3,0.2-18.7-0.2-28c-0.1-3.9,1.3-5,4.8-5C622.9,305.4,631.1,307.8,639.7,312.6z M221.4,873.5c3.7-0.5,6.7-0.8,9.1-1.1
	c0-16.6,0.2-32.5-0.1-48.5c-0.1-6.1,2.1-9.5,7.7-11.8c8.3-3.4,16.4-7.2,24.5-11c2-0.9,3.6-2.5,5.4-3.8c-0.2-0.4-0.5-0.9-0.7-1.3
	c-2-0.3-4.1-0.6-6.4-1c0-4.7,0-9.1,0-13.6c2.6,0,5,0,7.7,0c0.3-5.8,0.6-11.4,0.8-16.9c-0.4,0-0.8-0.1-1.2-0.1
	c-0.4,4.5-0.7,9.1-1.1,13.6c-2.3,0-4.2,0-6.2,0c-0.4-4.5-0.8-8.8-1.1-13c-0.6,0-1.3,0-1.9,0c-0.5,4.3-1.1,8.6-1.7,13.1
	c-2.1,0-4.2,0-6.9,0c0-4.1,0-7.9,0-11.7c-0.5,0-1,0-1.5,0c0,1.7,0,3.4,0,5.1c0.2,9.3,0.5,18.7,0.6,28c0,1.3-0.7,2.7-1.1,4
	c-0.6-0.1-1.2-0.2-1.8-0.3c0-14.5,0-29,0-43.9c8.6-1.5,17.2-2.9,25.5-4.3c0,16.5,0,32.1,0,47.4c-10,4.3-19.3,8.3-28.6,12.2
	c-4.6,1.9-7.1,5-7,10.3c0.2,6.8-0.3,13.7-0.3,20.5c-0.1,8.8,0,17.6,0,26.7c2.3-0.2,4.7-0.5,8.5-0.9c0-11.5-0.4-22.6,0.2-33.7
	c0.2-4.2,1.8-9.1,4.5-12.2c8.9-9.9,20.6-15.5,33.4-18.8c2.3-0.6,4.8-0.5,7.3-0.7c0,22.1,0,43.7,0,65.9c4.3,0.6,8.8,1.1,13.7,1.8
	c1.1-47.3,2.2-93.8,3.2-141.1c-29.7,6.1-58.8,12-88.1,18c1,38.8,2,77.1,3.1,115.4C221,868.1,221.2,870.4,221.4,873.5z M541.7,90.6
	c0,18.6,0,36.5,0,54.2c17,0,33.7,0,50.6,0c0-17.9,0-35.6,0-54.2C575.4,90.6,558.9,90.6,541.7,90.6z M512.6,810.7
	c1.1,4.4,2.2,8.2,3,11.9c1.3,5.8-4.1,6.2-7.2,8.2c0.8,1.9,1.5,3.4,2.5,5.7c-2.8-0.3-4.7-0.5-6.7-0.7c-4.1-0.5-8.3-1.6-12.3-1.3
	c-2.4,0.2-4.6,2.6-6.9,4.1c1.1,1.7,2.2,3.4,3.2,5.1c0.1,0.2-0.2,0.6-0.2,0.8c-3.1-0.5-6.2-1.3-9.3-1.3c-10.6,0-19.7,4.5-28.1,10.4
	c-11.5,8-23.1,15.8-33.8,24.7c-10.1,8.4-19.3,18-29.1,27.3c1.2,0,2.3,0.2,3.3,0c6.4-1.4,10.4-5.9,13.4-11.2c5.3-9,13.1-14.7,22.4-19
	c9-4.1,18.1-8.6,26.1-14.3c5.9-4.3,11.5-6.1,18.7-6c8.7,0.2,17.3-1,27-1.7c-1.7-3.9-3.1-6.5-4.1-9.3c-1.5-4.3-0.5-5.8,4-5.1
	c7.5,1.2,14.5,3.7,20.4,8.7c1.7,1.5,3.8,2.6,5.7,3.9c0.5-0.4,1-0.9,1.4-1.3c-1-2.1-2.2-4.2-2.9-6.4c-1.3-4-3.4-8.3-2.8-12.2
	c0.4-2.5,0.8-4.4-0.2-6.7c-0.7-1.7-1.1-3.5-1.7-5.5c5.3,3.8,10.1,7.2,15.1,10.7c1.2-1.7,1.8-2.7,2.7-3.9
	c3.9,10.3,12.8,12.3,20.1,4.9c3.4-3.4,7.1-6.6,11.1-9.2c3.2-2.1,7-3.1,10.5-4.6c0.3,0.4,0.6,0.9,0.9,1.3c-2.2,3.8-4.4,7.7-6.7,11.5
	c0.4,0.4,0.8,0.8,1.2,1.2c4.3-2.2,8.5-4.3,12.8-6.5c0.3,0.3,0.7,0.6,1,0.9c-3.9,5.1-7.8,10.3-11.6,15.4c9.3-2.8,17.7-6.4,26.3-9.2
	c9-3,19-2.7,26.8-0.3c-3.9,1.5-7.6,2.8-12,4.5c13.2,0.6,25.4,1.2,37.5,1.8c-4.2-5.8-10.3-8.5-17.6-9.1c-2.6-0.2-5.1-1.2-7.7-1.8
	c-3.4-0.8-6.8-2.3-10.1-2.1c-7.4,0.4-14.8,1.6-22.2,2.5c-1.2,0.1-2.3,0.2-4.1,0.4c1.3-1.9,2.2-3.2,3.3-4.7c-2.5,0.4-4.7,0.8-8.1,1.3
	c1.8-2.6,2.7-3.9,3.6-5.1c-0.2-0.3-0.3-0.5-0.5-0.8c-2.3,0.9-4.5,1.8-7.7,3.1c1.4-4.9,2.6-9,3.9-13.7c-14.4,2.2-26.3,7.9-35.8,18.2
	c-2.3,2.5-4.6,4.1-7.7,1.6c-3.1-2.5-3.5-5.5-1-8.7c0.5-0.7,1-1.4,2-2.9c-3,0.5-5.4,0.4-7.2,1.4c-4.1,2.3-7.3,1-11-1.2
	C521.8,814.1,516.9,812.6,512.6,810.7z M314.4,638.2c-5.4,1.1-10.6,2.3-15.8,3c-3.3,0.4-4.4,1.7-4.4,5.1c0,14.1-0.3,28.3-0.5,42.4
	c0,4.5,0,8.9,0,14.2c5.9-1.6,11.3-2.9,16.6-4.7c1.5-0.5,3.3-2.8,3.4-4.3c0.6-17.3,0.8-34.6,1.1-51.9
	C314.9,640.9,314.6,639.7,314.4,638.2z M510.8,201.5c0-5.6-0.3-11.3,0.1-16.9c0.6-7.2-0.2-13.1-8.2-16.3c-3.1-1.2-5.5-2.6-8.8-1.3
	c-2.5,0.9-5.1,1.6-7.6,2.2c-3.4,0.7-4.9,2.4-4.8,6.1c0.3,8.7,0,17.3,0,26c0,5.8,1.7,7.1,7.3,5.7C495.9,205.2,503,203.4,510.8,201.5z
	 M622.5,201.3c7.8,1.9,15,3.6,22.2,5.4c3.8,0.9,5.8-0.5,5.7-4.5c0-6.3,0-12.6,0-18.9c0-13.4,0-13.4-13.4-16.2
	c-1.3-0.3-14.1,7.1-14.5,8.3c0,0.2,0,0.3,0,0.5C622.5,184.4,622.5,193,622.5,201.3z M517.4,150.8c5.1-1.3,9.4-2.6,13.8-3.3
	c3.1-0.5,3.6-2,3.6-4.7c-0.1-7.7,0-15.3,0-23c0-8.9,0-17.9,0-27.4c-6.2,2.9-11.8,5.4-17.2,8.1c-0.7,0.4-1.3,1.8-1.3,2.8
	C516.6,118.9,517,134.5,517.4,150.8z M367.7,681.3c-0.1-0.3-0.3-0.5-0.4-0.8c-2.3,1.2-4.6,2.3-6.9,3.5c-18.1,9.5-36.2,19-54.4,28.4
	c-5.7,2.9-11.5,6.2-17.7,7.8c-26.7,7-53.5,13.4-80.2,20c-4.5,1.1-9,2.6-13.5,4c24.1-3.5,48-7.4,71.8-12.2c9.6-1.9,19.7-1.3,28.6-7
	c4.4-2.8,10.3-3.3,14.8-6c12.8-7.8,25.2-16.1,37.8-24.3C354.3,690.4,361,685.8,367.7,681.3z M600.5,93.4c0,17.2-0.1,33.5,0.1,49.8
	c0,1.4,1.2,3.5,2.4,4c4.1,1.6,8.5,2.5,13.6,4c0-16.2,0-31.9-0.1-47.6c0-0.8-0.7-1.9-1.4-2.2C610.6,98.6,605.9,96.2,600.5,93.4z
	 M704.4,763.1c-0.5,0-0.9,0.1-1.4,0.1c0,13,0,26,0,39.4c11.3,0,22.7,0,33.9,0c0-14.9,0-29.3,0-45.2c-5,5.5-3.8,11.3-4.7,16.8
	c-1.6,0.2-3.2,0.4-4.9,0.5c-6.4,0.3-6.4,0.3-6.6-6c-0.1-2.5-0.4-5-0.5-7.5c-0.5,0-1,0-1.5,0c-0.5,4.3-1,8.6-1.5,13.5
	c-3.9,0-7.8,0-12.1,0C704.8,770.9,704.6,767,704.4,763.1z M409.1,742.4c-0.6,0-1.2-0.1-1.7-0.1c0,12.7,0,25.5,0,38.5
	c12.2,0,24.1,0,36.3,0c0-13.9,0-27.6,0-41.3c-0.6-0.1-1.1-0.2-1.7-0.3c-1.2,4.5-2.3,9-3.6,14c-3.5,0-7.5,0-11.6,0
	c-0.5-4.2-0.9-8.3-1.4-12.4c-0.4,0-0.8,0-1.3,0c-0.6,4.3-1.2,8.6-1.8,12.9c-4.2,0.3-7.8,0.6-11.5,0.9c0,0.4,0,0.9,0,1.3
	c3.8,0.4,7.6,0.9,11.7,1.3c0,6.7,0,13.1,0,19.7c-4.3,0-8.5,0-13.5,0C409.1,765.1,409.1,753.7,409.1,742.4z M477.5,205.2
	c0-11.6,0-21.6,0-32.5c-6.5,3.4-12.3,6.4-15.1,12.9c-1.7,4-2.5,8.3,1.6,11.3C468,199.8,472.3,202.1,477.5,205.2z M572.9,217.3
	c0,13.5,0,26.5,0,39.6c2,0,3.8,0,5.9,0c1.4-13.2,2.9-26.2,4.3-39.6C579.8,217.3,576.7,217.3,572.9,217.3z M654.6,203.8
	c7.3-4.3,14.3-7.5,14.5-16.4c0.2-5.6-6.6-11.9-14.5-13.9C654.6,183.4,654.6,193.1,654.6,203.8z M529,218.6c-2.7,0-5.1,0-8,0
	c3,14.5,5.9,28.5,8.9,42.7c2.1-0.1,3.7-0.2,5.9-0.4C533.5,246.7,531.3,232.8,529,218.6z M483,400.2c11.6-2.9,23.4-6.4,35.5-8.7
	c12.1-2.2,24.4-3.2,36.8-4.7C537.9,380,496.3,390,483,400.2z M472.1,533.6c20-1.4,40-2.9,60-4.3c0.1-0.5,0.1-1,0.2-1.4
	c-2.6-0.6-5.2-1.6-7.8-1.6C506.6,526.1,489.3,529.6,472.1,533.6z M214.1,886.4c19.4-1.2,17.3-1.1,20.4-9.8c-4,0.4-8,1.3-11.9,1.2
	C216.4,877.4,214.6,880.9,214.1,886.4z M475.2,527.2c14.4-3.3,28.8-6.5,43.3-9.8C502.4,513.3,489,521.2,475.2,527.2z M505.2,264.8
	c-3.3-10-14.2-25-20-28.6c3.8,7.6,8.5,16,12.4,24.7C499.2,264.6,500.9,266.4,505.2,264.8z M487.3,388.6c14.7-2.1,28.1-4,41.6-6
	C514.3,377.3,501.4,383,487.3,388.6z M461.4,200.5c0,6.6,0,12.4,0,19.2c3.8-3.5,10-2.9,10.1-8.8C471.7,204,464.4,204.8,461.4,200.5z
	 M670.2,218.8c0-7,0-13.5,0-20.2C660.1,206.3,660,212.8,670.2,218.8z M488.7,404.3c8.7-1.3,17.4-2.7,26.2-4
	c-0.1-0.6-0.2-1.2-0.3-1.8C505,395,496.8,399.3,488.7,404.3z M130.1,919.5c0.3,0.8,0.7,1.6,1,2.4c10.3-4.8,20.6-9.6,31-14.4
	c-0.2-0.4-0.3-0.7-0.5-1.1C151.1,910.7,140.6,915.1,130.1,919.5z M610.2,259.9c4.7,0,12.4-14.3,13.6-25.1
	C619.1,243.5,614.8,251.5,610.2,259.9z M185.2,901.5c-0.2-0.7-0.3-1.5-0.5-2.2c-7.5-2.9-13.2,2.7-19.4,5.8
	C171.9,903.9,178.5,902.7,185.2,901.5z M648.2,242.9c5.4,1.6,6.8-2.1,8.7-5.4C651.9,235.6,649.5,237.2,648.2,242.9z"/>
<path d="M235,974.5c10.7-2.9,21.7-5.1,32.1-8.8c18.2-6.4,36.1-13.3,53.9-20.7c10.8-4.5,21.7-7.3,33.3-7.7
	c11.1-0.3,21.2-3.8,30.5-9.8c4.3-2.8,8.8-5.4,12.9-8.6c10.6-8,22.3-13.1,35.5-14.8c10.2-1.3,19-5.7,26.9-12.2
	c9.5-7.8,19.4-15.1,32-16.4c8.1-0.8,16.4-1.2,24.4-0.3c14.7,1.6,28.8-0.9,43.1-3.5c9.5-1.8,19.1-3,28.6-4.3c1.4-0.2,2.8,0.2,4.2,0.3
	c0.1,0.5,0.3,1,0.4,1.5c-3.1,1.6-6.1,3.8-9.4,4.6c-11.1,2.8-22.3,5-33.4,7.6c-2.1,0.5-4,1.5-5.9,2.5c-5.5,2.7-10.9,5.6-16.2,8.7
	c7.5-0.4,14.8-0.8,20.3-7.4c1.6-1.9,5-3.1,7.6-3.3c19.7-1,39.1-3,54.2-17.7c12.4-12.1,27.5-13.2,43.3-10.9c7.4,1.1,14.6,3,22,4.5
	c-0.3,0.8-0.3,1.2-0.6,1.3c-14.3,9.9-29.1,19.3-42.9,29.9c-12.5,9.6-25.8,15.2-41.5,16.2c-11.6,0.7-23.1,2.9-34.7,3.6
	c-5,0.3-10.6-0.3-15.1-2.3c-12.3-5.4-24.8-4.9-36.5-0.3c-16.1,6.4-31.5,14.7-47.1,22.3c0.2,0.6,0.3,1.2,0.5,1.7
	c5.6-0.8,11.2-1.4,16.7-2.5c11.5-2.3,22.5-5.7,32.4-12.4c2.9-1.9,6.1-3.4,9.2-4.9c7.3-3.6,14.2-3.8,21.9,0
	c4.9,2.4,11.3,3.4,16.9,2.9c16.7-1.6,33.4-4,49.9-6.6c19.1-3,35.9-11.5,51.2-23.3c5.9-4.6,12.3-8.6,18.7-12.4
	c7.5-4.5,15.5-5.1,24.1-3.4c4.3,0.9,8.8,0.1,13.2,0.2c2.1,0.1,4.3,0.1,6.2,0.7c8.4,2.4,16.8,4.9,24.3,7.2
	c-5.4,2.1-12.1,4.4-18.5,7.3c-9.8,4.5-19.3,9.6-29,14.3c-3,1.4-6,2.8-9.1,3.9c-13,4.7-25.7,10.2-39,13.6c-15.4,3.9-31.2,6.4-47,8.6
	c-6.3,0.9-13,0.3-19.4-0.8c-15.5-2.6-30.6,0-45.6,2.5c-51.5,8.8-102.9,17.9-154.3,26.7c-41,7-82,13.8-123,20.6
	c-7.3,1.2-14.8,1.8-22.2,2.7C235,975.2,235,974.9,235,974.5z"/>
<path d="M838.8,818.3c2.3-9.3-1.7-16.3-5.9-24.6c9.5,6,16.7,12.4,22.3,20.4c3.3,4.8,7.8,5.7,12.5,5.5c2-0.1,3.9-3.3,6.1-5.4
	c1.8,0.5,5.4,2.5,7.9,1.6c2.9-1,4.8-4.7,7.5-7.7c4.6,7.1-0.1,15.5,3.3,23.4c7.2-6.1,13.8-12.1,23.3-13c-1.7,2.6-3.5,4.7-4.8,7.2
	c-3.9,7.6-1.1,11.7,7.2,11.2c-2,3.4-4.3,6.8-5.9,10.5c-0.7,1.6-0.4,4.7,0.8,5.7c1,0.9,4,0.3,5.6-0.6c3.9-1.9,7.4-4.4,11.2-6.4
	c1.9-1,4.1-1.2,6.5-1.6c-5.8,5.7-7.4,12.9-5.8,20.1c1.6,7,4.8,13.6,7.4,20.6c-18.3-1-36.9-0.9-55.1-5.3c-6.6-1.6-13.4-2.5-20.1-3.6
	c-8.3-1.3-14.9-4.9-19.6-12.2c-2.8-4.2-6.3-8.1-10-11.6c-3.9-3.6-9-4.5-14-2.4c-8.5,3.5-15.7,1.8-22.7-3.8c-3.5-2.9-8-4.6-13.2-7.6
	c3.9-1.1,6.9-2,10.6-3.1c-3-3.9-6-7.8-9.6-12.5c3.4,0.9,5.8,1.7,8.3,2.3c3.2,0.8,7.2,2,8.8-1.8c0.7-1.6-1.8-4.6-2.9-7.1
	c4.6-1.1,9.1,1,13.5,3.1c4.2,2.1,8.4,4.5,12.5,6.8c0.5-0.3,0.9-0.6,1.4-0.9c-3-6.4-6-12.7-9-19C825.4,806.5,831.6,812.6,838.8,818.3
	z"/>
<path d="M949.2,890.2c-1,7.6-1,7.6-8.3,8.1c-30.1,2.4-60.3,1.6-90.3-1.4c-15.3-1.5-30.4-5.1-45.6-7.8c-1.9-0.3-3.7-1.3-5-1.7
	c13.5,0,27.3,0,41.1,0c0.1-0.4,0.2-0.8,0.2-1.2c-2.8-0.6-5.5-1.8-8.3-1.8c-18.4,0.3-35.9-3.9-53.5-8.7c-5.5-1.5-11.4-1.4-17.1-1.7
	c-13-0.7-26.1-2.3-37.8-8c-18.5-9.1-38.8-11.2-58.6-17.9c1.5-1.5,2.9-3.3,4.6-4.6c11.9-9.1,24.5-13.7,39.4-7.5
	c14.2,5.9,28.6,6,43.4,2.1c12-3.2,23.1-0.2,32.4,8.4c2,1.8,3.9,3.6,5.9,5.4c5.3,4.8,11.4,6.7,18.4,4.4c1.9-0.6,3.9-0.8,5.8-1.4
	c7.6-2.2,14.5-0.4,18.7,5.9c13.9,20.5,35.6,23.8,57.3,26.2c16.4,1.8,32.9,1.7,49.4,2.5C943.9,889.7,946.5,890,949.2,890.2z"/>
<path d="M948.8,932.1c-31.5,2.9-63.6,6.2-95.7,8.8c-34.5,2.8-68.9,1.9-102.9-5.2c-25.8-5.4-51.8-8.6-78.2-8.6
	c-10.4,0-20.8-1.6-31.2-2.5c-0.1-0.6-0.1-1.2-0.2-1.8c16.2-4,32.3-8,48.5-12c0.2,0,0.3-0.1,0.5-0.1c20.2-1.2,40.5-2.2,60.7-3.5
	c4.3-0.3,8.8-0.5,12.7-2.1c11.6-4.6,23.1-4.8,34.6-0.8c27.7,9.7,56.7,14.1,85,21c11.9,2.9,23.3,5.3,35.7,4.3
	c9.5-0.7,19.2,1,28.8,1.8C947.9,931.5,948.8,932,948.8,932.1z"/>
<path d="M369.8,976.3c8.9-3,17.8-6.1,26.8-9c37.4-12,75.3-21.9,114.2-27.7c37.5-5.6,75.3-7.9,113.1-4.4c41.7,3.8,83.3,9.2,125,13.9
	c39.2,4.4,78.4,8.9,117.5,13.3c21.8,2.4,43.6,4.8,65.3,8.2c-16.3-0.6-32.6-0.8-48.8-2c-32.5-2.5-65-5.4-97.5-8.5
	c-26.2-2.5-52.3-5.7-78.4-8.5c-49.1-5.2-98.4-8.6-147.6-2.9c-38.3,4.4-76.3,11.2-114.5,17c-24,3.7-48,7.6-71.9,11.3
	c-0.9,0.1-1.9,0-2.9,0C369.9,976.8,369.9,976.6,369.8,976.3z"/>
<path d="M57.6,976.5c7.4-1.3,14.7-3.4,22.2-3.8c32.7-1.8,64.3-10,96.1-16.9c48-10.3,96.4-18,146.2-19.1
	c-85.6,31.7-173.6,43.8-264,41.3C57.9,977.4,57.7,976.9,57.6,976.5z"/>
<path d="M0,967.4c14.1-9.7,29.5-15.7,45.5-20.1c20.4-5.6,41.3-8.1,62.4-10.2c31.4-3.2,62.8-3.3,94.3-2.7c6.2,0.1,12.3,1.4,18.5,2.1
	c0,0.5,0,1,0,1.5c-36.6,5.7-73.1,12.9-109.9,16.9C73.8,958.8,37.3,966.3,0,967.4z"/>
<path d="M398.2,140.8c-17.9-3.7-35.7-3.7-53.4,1.4c-10.2,2.9-19.6,7.3-27.7,14.3c-7.6,6.5-7.1,9.3,2.1,12.9c2.6,1,5.2,2,7.8,3
	c0,0.4-0.1,0.9-0.1,1.3c-4.6,0-9.6,1.1-13.8-0.2c-14.3-4.2-28.3-1.9-42.4,0.5c-0.8,0.1-1.6,0.1-4,0.3c5.2-4.9,9.6-9,14.8-14
	c-4.5-4.1-8.6-8.6-13.4-12.1c-13.5-9.6-29.1-13.6-45.2-15.9c-7.3-1.1-14.7-1.8-22.1-2.7c-0.1-0.5-0.2-1.1-0.2-1.6
	c3.8-0.9,7.7-2.6,11.5-2.5c13.9,0.4,27.9,1.1,41.8,2.4c9.3,0.9,16.9,5.8,23.3,12.4c2.7,2.7,5.7,5.2,8.1,8.1c3.2,3.9,6.3,3.5,9.8,0.6
	c3.3-2.8,6.9-5.2,10.2-8.1c12.2-10.5,25.9-15.1,42.3-13.7C365.3,128.7,381.9,133.7,398.2,140.8z"/>
<path d="M184.5,288.8c-10.1,2.7-18.6,1.9-25.6-3.4c-7-5.3-14.2-6.3-22.4-5.2c-4,0.5-8.1,0.1-12.2,0.1c-0.1-0.5-0.3-1-0.4-1.5
	c2.8-2,5.4-4.2,8.4-5.8c3.7-2,3.8-4.5,2-7.8c-5.1-8.9-12-15.9-20.8-21.1c-15.1-8.9-31.6-12.7-48.8-14.4c-2.4-0.2-4.8-0.5-7.2-1.2
	c24.4-5.8,48.2-3.4,71.5,4.9c2.5,0.9,4.9,3,6.5,5.1c5.6,7.8,10.7,15.9,16.2,24.2c4.4-3,8.9-5.7,13.1-9c8.7-7,18.8-8.8,29.5-8.8
	c17.4,0,33.4,4.8,48.3,13.8c0.6,0.4,1.2,0.9,1.2,0.9c-9.5-1.4-19.4-3.6-29.4-4.3c-14.6-1-29,0.5-41.7,8.8
	c-12.3,8.1-12.2,10.8,0.6,17.7C176.5,283.8,179.9,286,184.5,288.8z"/>
<path d="M290.5,466.1c5.7-4.1,11.1-7.7,16.1-11.8c8.9-7.5,19.4-8,30.2-7.6c14,0.5,27.2,4,39.7,10.4c0.9,0.4,1.7,1,2.4,0.8
	c-11.6-0.8-23.2-2.4-34.8-2.3c-13.8,0.1-25.9,5.5-36,15.1c-4.7,4.4-4.5,5.9,1,9.4c4.1,2.6,8.4,5,12.5,8.1c-4.9,2.1-9.7,1.9-14.5,0.5
	c-1.9-0.6-4-1.1-5.5-2.2c-6.9-5.4-14.6-5.4-22.8-4.3c-3.2,0.4-6.5,0.1-11.2,0.1c4.3-3.4,7.5-6,11.6-9.2
	c-17.2-24.3-42.6-29.4-69.4-31.5c9.6-3.8,19.5-5.1,29.5-3.5c9.5,1.6,19,3.7,28,6.9c5.2,1.8,9.9,5.8,14.1,9.6
	C284.8,457.6,287.3,462,290.5,466.1z"/>
<path d="M285.9,309.1c2.7-1.9,5.2-3.6,7.5-5.5c4.2-3.5,9.1-3.8,14.2-3.6c6.6,0.2,12.8,1.9,18.6,4.9c0.4,0.2,0.8,0.5,1.1,0.4
	c-5.4-0.4-10.9-1.1-16.3-1.1c-6.5,0-12.2,2.6-16.9,7.1c-2.2,2.1-2.1,2.8,0.5,4.4c1.9,1.2,4,2.4,5.9,3.8c-2.3,1-4.5,0.9-6.8,0.2
	c-0.9-0.3-1.9-0.5-2.6-1c-3.2-2.5-6.9-2.5-10.7-2c-1.5,0.2-3.1,0-5.3,0c2-1.6,3.5-2.8,5.4-4.3c-8.1-11.4-20-13.8-32.6-14.8
	c4.5-1.8,9.2-2.4,13.9-1.6c4.4,0.7,8.9,1.7,13.2,3.2c2.4,0.9,4.6,2.7,6.6,4.5C283.3,305.2,284.4,307.2,285.9,309.1z"/>
<path d="M381.7,371.5c1.8-1.3,3.6-2.5,5.2-3.8c2.9-2.4,6.3-2.6,9.8-2.5c4.5,0.2,8.9,1.3,12.9,3.4c0.3,0.1,0.5,0.3,0.8,0.2
	c-3.8-0.3-7.5-0.8-11.3-0.8c-4.5,0-8.4,1.8-11.7,4.9c-1.5,1.4-1.5,1.9,0.3,3c1.3,0.9,2.7,1.6,4.1,2.6c-1.6,0.7-3.1,0.6-4.7,0.1
	c-0.6-0.2-1.3-0.3-1.8-0.7c-2.2-1.7-4.8-1.7-7.4-1.4c-1,0.1-2.1,0-3.7,0c1.4-1.1,2.5-2,3.8-3c-5.6-7.9-13.8-9.5-22.6-10.2
	c3.1-1.2,6.3-1.7,9.6-1.1c3.1,0.5,6.2,1.2,9.1,2.2c1.7,0.6,3.2,1.9,4.6,3.1C379.9,368.7,380.7,370.1,381.7,371.5z"/>
<path d="M859.7,905.7c-4.9,0-10.5,0.6-15.9-0.1c-16.6-2.3-33.1-5.2-49.7-7.8c-14-2.2-27.6-3.4-41.7,2c-12.8,4.9-26.7,2.3-40.1,1
	c-2.3-0.2-4.6-0.6-7.9-1.1c8.8-7.8,16.9-13.9,28.8-15.7c21.6-3.3,41.7,1.4,62.2,7.1C816.7,897,838.6,901,859.7,905.7z"/>
<path d="M283,632.7c11.8-6.7,23.6-13.4,35.5-20c1-0.5,2.7-0.5,3.7,0c9.8,4.9,19.4,10,29,15c-0.7,5.7-3.8,6.6-8.7,6.6
	c-18.6-0.1-37.2,0.3-55.8,0.5c-1.2,0-2.4-0.5-3.6-0.7C283.1,633.6,283,633.2,283,632.7z"/>
<path d="M604.1,610.2c-3.5,0-6.6,0-10,0c0-6.6,0-13,0-19.6c3.5,0,6.5,0,10,0C604.1,597.1,604.1,603.3,604.1,610.2z"/>
<path d="M570.4,438.4c12.2,0,23.9,0,35.1,0c-0.8,6.1-1.5,11.7-2.5,17.3c-0.2,1-1.7,2.3-2.9,2.5c-2,0.4-4.2,0.1-6.5,0.1
	c-0.4-4.9-0.8-9.3-1.1-13.8c-0.5,0-1,0-1.5-0.1c-0.5,2.6-1.7,5.3-1.4,7.9c0.6,5.7-2.5,6.9-7.1,6.8c-1.5,0-2.9,0-5.1,0
	c0-4.5,0-8.7,0-12.9c-0.4,0-0.8,0-1.2,0c0,11.8,0,23.6,0,35.7c-2.1,0.1-3.8,0.2-5.8,0.3C570.4,467.6,570.4,453.2,570.4,438.4z"/>
<path d="M589.2,461.6c0,6.6,0,12.9,0,19.5c-3.4,0-6.8,0-10.7,0c0-6.5,0-12.8,0-19.5C581.8,461.6,585.2,461.6,589.2,461.6z"/>
<path d="M602.3,481.8c-3.1,0-5.9,0-8.8,0c0-6.8,0-13.4,0-20c3.1,0,5.8,0,8.8,0C602.3,468.6,602.3,475,602.3,481.8z"/>
<path d="M576.2,345.1c-1.9,0-3.4,0-5.4,0c0-14.5,0-28.9,0-43.4c12,0,24,0,37.1,0c-1.4,3.9-2.8,6.6-3.4,9.5c-0.6,3-0.4,6.2-0.6,9.7
	c-3.5,0-6.6,0-10.3,0c0-4.3,0-8.5,0-12.7c-0.5-0.1-1-0.2-1.5-0.3c-0.6,2.2-1.3,4.4-1.7,6.6c-1.3,7.4-1.2,7.5-8.8,8
	c-1.1,0.1-2.3,0-4.4,0c0-4.2,0-8.3,0-12.4c-0.4,0-0.8,0-1.2,0.1C576.2,321.6,576.2,333.1,576.2,345.1z"/>
<path d="M578.6,324.7c3.6,0,6.9,0,10.6,0c0,6.7,0,13.1,0,19.9c-3.3,0-6.7,0-10.6,0C578.6,337.9,578.6,331.2,578.6,324.7z"/>
<path d="M593.8,324.4c3.3,0,6.1,0,9.3,0c0,6.5,0,12.9,0,19.9c-2.9,0.1-5.9,0.3-9.3,0.4C593.8,337.9,593.8,331.3,593.8,324.4z"/>
<path d="M250.1,781.4c1.9,0,3.9,0,6.4,0c0.2,4.6,0.4,9.1,0.6,14c-2.3,0.3-4.4,0.5-7,0.8C250.1,791.1,250.1,786.3,250.1,781.4z"/>
<path d="M705.6,777.4c3.9,0.3,7.5,0.6,11.5,0.9c0,6.6,0,13.1,0,20c-3.8,0-7.4,0-11.5,0C705.6,791.4,705.6,784.7,705.6,777.4z"/>
<path d="M731.9,778.6c0,6.3,0,12.6,0,19.3c-3.4,0-7,0-10.8,0c0-6.3,0-12.6,0-19.3C724.6,778.6,728,778.6,731.9,778.6z"/>
<path d="M438.8,757.4c0,6.8,0,12.9,0,19.5c-4.1,0-8.1,0-12.5,0c0-6.5,0-12.8,0-19.5C430.5,757.4,434.4,757.4,438.8,757.4z"/>
</svg>
